<svg width="25" height="25" viewBox="0 0 25 25" fill="none" xmlns="http://www.w3.org/2000/svg">
<g id="dashboard 1">
<path id="Vector" d="M10.7969 13.3047H4.79688C4.19687 13.3047 3.79688 13.7047 3.79688 14.3047V20.3047C3.79688 20.9047 4.19687 21.3047 4.79688 21.3047H10.7969C11.3969 21.3047 11.7969 20.9047 11.7969 20.3047V14.3047C11.7969 13.7047 11.3969 13.3047 10.7969 13.3047ZM10.7969 3.30469H4.79688C4.19687 3.30469 3.79688 3.70469 3.79688 4.30469V10.3047C3.79688 10.9047 4.19687 11.3047 4.79688 11.3047H10.7969C11.3969 11.3047 11.7969 10.9047 11.7969 10.3047V4.30469C11.7969 3.70469 11.3969 3.30469 10.7969 3.30469ZM20.7969 16.3047H18.7969V14.3047C18.7969 13.7047 18.3969 13.3047 17.7969 13.3047C17.1969 13.3047 16.7969 13.7047 16.7969 14.3047V16.3047H14.7969C14.1969 16.3047 13.7969 16.7047 13.7969 17.3047C13.7969 17.9047 14.1969 18.3047 14.7969 18.3047H16.7969V20.3047C16.7969 20.9047 17.1969 21.3047 17.7969 21.3047C18.3969 21.3047 18.7969 20.9047 18.7969 20.3047V18.3047H20.7969C21.3969 18.3047 21.7969 17.9047 21.7969 17.3047C21.7969 16.7047 21.3969 16.3047 20.7969 16.3047ZM20.7969 3.30469H14.7969C14.1969 3.30469 13.7969 3.70469 13.7969 4.30469V10.3047C13.7969 10.9047 14.1969 11.3047 14.7969 11.3047H20.7969C21.3969 11.3047 21.7969 10.9047 21.7969 10.3047V4.30469C21.7969 3.70469 21.3969 3.30469 20.7969 3.30469Z" fill="white"/>
</g>
</svg>
