<svg width="26" height="26" viewBox="0 0 26 26" fill="none" xmlns="http://www.w3.org/2000/svg">
<path d="M23.0078 13.9453V9.78906C23.0078 4.59375 20.9297 2.51562 15.7344 2.51562H9.5C4.30469 2.51562 2.22656 4.59375 2.22656 9.78906V16.0234C2.22656 21.2187 4.30469 23.2969 9.5 23.2969H13.6562" stroke="#101010" stroke-width="1.55859" stroke-linecap="round" stroke-linejoin="round"/>
<path d="M7.76489 15.4929L10.2379 12.2822C10.5911 11.825 11.2458 11.7419 11.7029 12.0952L13.6044 13.5914C14.0616 13.9447 14.7162 13.8616 15.0695 13.4148L17.4698 10.3184" stroke="#101010" stroke-width="1.55859" stroke-linecap="round" stroke-linejoin="round"/>
<path d="M20.3893 16.8748L20.6802 17.4671C20.8257 17.758 21.1894 18.0282 21.5115 18.0905L21.9063 18.1529C23.0909 18.3503 23.3714 19.2231 22.5194 20.0855L22.1557 20.4492C21.9167 20.6986 21.7817 21.1765 21.8544 21.509L21.9063 21.7272C22.2284 23.1611 21.4699 23.7118 20.2231 22.9637L19.9529 22.8079C19.6308 22.6208 19.1112 22.6208 18.7891 22.8079L18.519 22.9637C17.2617 23.7222 16.5032 23.1611 16.8357 21.7272L16.8876 21.509C16.9604 21.1765 16.8253 20.6986 16.5863 20.4492L16.2227 20.0855C15.3706 19.2231 15.6512 18.3503 16.8357 18.1529L17.2305 18.0905C17.5423 18.0386 17.9163 17.758 18.0618 17.4671L18.3527 16.8748C18.9138 15.7422 19.8282 15.7422 20.3893 16.8748Z" stroke="#101010" stroke-width="1.55859" stroke-linecap="round" stroke-linejoin="round"/>
</svg>
