<svg width="26" height="26" viewBox="0 0 26 26" fill="none" xmlns="http://www.w3.org/2000/svg">
<g id="vuesax/linear/favorite-chart">
<g id="favorite-chart">
<path id="Vector" d="M23.0078 13.9456V9.7893C23.0078 4.59399 20.9297 2.51587 15.7344 2.51587H9.5C4.30469 2.51587 2.22656 4.59399 2.22656 9.7893V16.0237C2.22656 21.219 4.30469 23.2971 9.5 23.2971H13.6562" stroke="white" stroke-width="1.55859" stroke-linecap="round" stroke-linejoin="round"/>
<path id="Vector_2" d="M7.76489 15.4939L10.2379 12.2832C10.5911 11.826 11.2458 11.7429 11.7029 12.0961L13.6044 13.5924C14.0616 13.9457 14.7162 13.8625 15.0695 13.4158L17.4698 10.3193" stroke="white" stroke-width="1.55859" stroke-linecap="round" stroke-linejoin="round"/>
<g id="Group">
<path id="Vector_3" d="M20.3893 16.8756L20.6802 17.4678C20.8257 17.7588 21.1894 18.0289 21.5115 18.0913L21.9063 18.1536C23.0909 18.351 23.3714 19.2238 22.5194 20.0863L22.1557 20.4499C21.9167 20.6993 21.7817 21.1773 21.8544 21.5098L21.9063 21.728C22.2284 23.1619 21.4699 23.7126 20.2231 22.9644L19.9529 22.8086C19.6308 22.6216 19.1112 22.6216 18.7891 22.8086L18.519 22.9644C17.2617 23.723 16.5032 23.1619 16.8357 21.728L16.8876 21.5098C16.9604 21.1773 16.8253 20.6993 16.5863 20.4499L16.2227 20.0863C15.3706 19.2238 15.6512 18.351 16.8357 18.1536L17.2305 18.0913C17.5423 18.0393 17.9163 17.7588 18.0618 17.4678L18.3527 16.8756C18.9138 15.743 19.8282 15.743 20.3893 16.8756Z" stroke="white" stroke-width="1.55859" stroke-linecap="round" stroke-linejoin="round"/>
</g>
</g>
</g>
</svg>
