<svg width="24" height="23" viewBox="0 0 24 23" fill="none" xmlns="http://www.w3.org/2000/svg">
<g id="billboard 1" clip-path="url(#clip0_21_1105)">
<path id="Vector" d="M20.528 2.521H18.0457V3.46604H20.528V2.521Z" fill="white"/>
<path id="Vector_2" d="M21.4588 0.304688H2.22093C1.76258 0.305157 1.32314 0.487443 0.999043 0.811543C0.674943 1.13564 0.492657 1.57508 0.492188 2.03343L0.492188 11.3421C0.492657 11.8004 0.674943 12.2398 0.999043 12.5639C1.32314 12.888 1.76258 13.0703 2.22093 13.0708H3.92485L6.55255 14.9556C6.61311 14.9986 6.68568 15.0216 6.75999 15.0212H9.80081V22.6454C9.80081 22.7394 9.83817 22.8296 9.90468 22.8961C9.97118 22.9626 10.0614 23 10.1554 23H13.5243C13.6183 23 13.7085 22.9626 13.775 22.8961C13.8415 22.8296 13.8789 22.7394 13.8789 22.6454V15.0212H16.9197C16.994 15.0216 17.0666 14.9986 17.1271 14.9556L19.7548 13.0708H21.4588C21.9171 13.0703 22.3565 12.888 22.6806 12.5639C23.0047 12.2398 23.187 11.8004 23.1875 11.3421V2.03343C23.187 1.57508 23.0047 1.13564 22.6806 0.811543C22.3565 0.487443 21.9171 0.305157 21.4588 0.304688ZM2.79718 4.1753C2.70313 4.1753 2.61293 4.13794 2.54643 4.07144C2.47993 4.00493 2.44257 3.91474 2.44257 3.82069V2.16641C2.44257 2.07236 2.47993 1.98217 2.54643 1.91566C2.61293 1.84916 2.70313 1.8118 2.79718 1.8118H4.03833V1.01392H4.74756V1.8118H5.98871C6.08276 1.8118 6.17296 1.84916 6.23946 1.91566C6.30596 1.98217 6.34332 2.07236 6.34332 2.16641V3.82069C6.34332 3.91474 6.30596 4.00493 6.23946 4.07144C6.17296 4.13794 6.08276 4.1753 5.98871 4.1753H2.79718ZM16.8044 14.312H6.87524L5.14295 13.0708H18.5403L16.8044 14.312ZM21.2371 3.82069C21.2371 3.91474 21.1998 4.00493 21.1333 4.07144C21.0668 4.13794 20.9766 4.1753 20.8825 4.1753H17.691C17.5969 4.1753 17.5067 4.13794 17.4402 4.07144C17.3737 4.00493 17.3364 3.91474 17.3364 3.82069V2.16641C17.3364 2.07236 17.3737 1.98217 17.4402 1.91566C17.5067 1.84916 17.5969 1.8118 17.691 1.8118H18.9321V1.01392H19.6414V1.8118H20.8825C20.9766 1.8118 21.0668 1.84916 21.1333 1.91566C21.1998 1.98217 21.2371 2.07236 21.2371 2.16641V3.82069Z" fill="white"/>
<path id="Vector_3" d="M5.63416 2.521H3.15186V3.46604H5.63416V2.521Z" fill="white"/>
</g>
<defs>
<clipPath id="clip0_21_1105">
<rect width="22.6953" height="22.6953" fill="white" transform="translate(0.492188 0.304688)"/>
</clipPath>
</defs>
</svg>
