<svg width="25" height="25" viewBox="0 0 25 25" fill="none" xmlns="http://www.w3.org/2000/svg">
<path d="M20.8047 14.3047C20.4047 14.0047 19.9047 14.1047 19.6047 14.4047C18.6047 15.3047 17.3047 15.8047 15.9047 15.8047C12.8047 15.8047 10.2047 13.3047 10.2047 10.1047C10.2047 8.10469 11.3047 6.20469 13.0047 5.20469C13.4047 5.00469 13.6047 4.50469 13.5047 4.10469C13.4047 3.70469 13.0047 3.30469 12.5047 3.30469C7.60469 3.40469 3.80469 7.40469 3.80469 12.3047C3.80469 17.3047 7.80469 21.3047 12.8047 21.3047C16.6047 21.3047 19.9047 18.9047 21.2047 15.4047C21.4047 15.0047 21.2047 14.5047 20.8047 14.3047Z" fill="#101010"/>
</svg>
