<svg width="28" height="28" viewBox="0 0 28 28" fill="none" xmlns="http://www.w3.org/2000/svg">
<g id="documentation 1" clip-path="url(#clip0_21_1084)">
<g id="Clip path group">
<mask id="mask0_21_1084" style="mask-type:luminance" maskUnits="userSpaceOnUse" x="0" y="0" width="28" height="28">
<g id="clip0_53_971">
<path id="Vector" d="M27.6718 0.4375H0.796875V27.3124H27.6718V0.4375Z" fill="white"/>
</g>
</mask>
<g mask="url(#mask0_21_1084)">
<g id="Group">
<path id="Vector_2" d="M20.8522 5.01745C20.6139 3.73261 19.9338 2.57152 18.9297 1.73515C17.9257 0.898775 16.6608 0.439743 15.3541 0.4375H8.63535C7.15059 0.438034 5.72676 1.02809 4.67688 2.07798C3.62699 3.12786 3.03692 4.55166 3.03638 6.03643V17.2343C3.03862 18.5411 3.49765 19.806 4.33403 20.81C5.17041 21.8141 6.33149 22.4941 7.61632 22.7325C7.85467 24.0173 8.53473 25.1784 9.53881 26.0148C10.5428 26.8512 11.8077 27.3102 13.1145 27.3124H15.7348C16.4706 27.3142 17.1995 27.1706 17.8797 26.89C18.56 26.6095 19.1782 26.1975 19.6988 25.6775L23.7973 21.5791C24.3172 21.0584 24.7292 20.4402 25.0098 19.76C25.2903 19.0798 25.4339 18.3509 25.4321 17.615V10.5156C25.4299 9.20885 24.9709 7.94396 24.1345 6.93993C23.2981 5.93586 22.1371 5.25584 20.8522 5.01745ZM7.51554 10.5156V20.3921C6.86303 20.1597 6.29798 19.7318 5.89725 19.1668C5.49652 18.6018 5.27959 17.927 5.27598 17.2343V6.03643C5.27858 5.14628 5.63337 4.29333 6.26279 3.66389C6.89225 3.03445 7.7452 2.67968 8.63535 2.67706H15.3541C16.0468 2.6807 16.7215 2.89764 17.2865 3.29837C17.8516 3.6991 18.2794 4.26416 18.5119 4.91667H13.1145C11.6297 4.91722 10.2059 5.50725 9.15601 6.55713C8.10612 7.60702 7.51609 9.03085 7.51554 10.5156ZM18.7134 10.5156C18.7134 10.8126 18.5954 11.0974 18.3854 11.3074C18.1754 11.5174 17.8907 11.6354 17.5936 11.6354H13.1145C12.8175 11.6354 12.5327 11.5174 12.3227 11.3074C12.1127 11.0974 11.9947 10.8126 11.9947 10.5156C11.9947 10.2186 12.1127 9.9338 12.3227 9.7238C12.5327 9.5138 12.8175 9.3958 13.1145 9.3958H17.5936C17.8907 9.3958 18.1754 9.5138 18.3854 9.7238C18.5954 9.9338 18.7134 10.2186 18.7134 10.5156ZM13.1145 14.9948C12.8175 14.9948 12.5327 14.8768 12.3227 14.6668C12.1127 14.4568 11.9947 14.172 11.9947 13.875C11.9947 13.578 12.1127 13.2932 12.3227 13.0832C12.5327 12.8732 12.8175 12.7552 13.1145 12.7552H17.5936C17.8907 12.7552 18.1754 12.8732 18.3854 13.0832C18.5955 13.2932 18.7134 13.578 18.7134 13.875C18.7134 14.172 18.5955 14.4568 18.3854 14.6668C18.1754 14.8768 17.8907 14.9948 17.5936 14.9948H13.1145ZM22.2072 19.989L18.1088 24.0874C17.6574 24.5319 17.0914 24.8421 16.4738 24.9833V21.7135C16.4764 20.8234 16.8312 19.9704 17.4607 19.341C18.0901 18.7115 18.9431 18.3567 19.8332 18.3541H23.103C22.9618 18.9716 22.6516 19.5377 22.2072 19.989Z" fill="white"/>
</g>
</g>
</g>
</g>
<defs>
<clipPath id="clip0_21_1084">
<rect width="26.8749" height="26.8749" fill="white" transform="translate(0.796875 0.4375)"/>
</clipPath>
</defs>
</svg>
