<svg width="29" height="29" viewBox="0 0 29 29" fill="none" xmlns="http://www.w3.org/2000/svg">
<g id="ui-ux 1" clip-path="url(#clip0_21_1059)">
<path id="Vector" d="M11.3745 16.3574C11.1817 16.3574 10.9907 16.3954 10.8125 16.4692C10.6344 16.543 10.4725 16.6512 10.3361 16.7875C10.1998 16.9239 10.0916 17.0858 10.0178 17.264C9.94399 17.4421 9.90601 17.6331 9.90601 17.8259V21.4967C9.90601 23.6409 11.6781 25.4131 13.8224 25.4131C15.9667 25.4131 17.7394 23.6409 17.7394 21.4967V17.8259C17.7394 17.4365 17.5846 17.0629 17.3092 16.7875C17.0339 16.5121 16.6603 16.3574 16.2709 16.3574C15.8814 16.3574 15.5079 16.5121 15.2325 16.7875C14.9571 17.0629 14.8023 17.4365 14.8023 17.8259V21.4967C14.8023 22.0643 14.3906 22.476 13.8224 22.476C13.2542 22.476 12.843 22.0643 12.843 21.4967V17.8259C12.843 17.6331 12.805 17.4421 12.7312 17.264C12.6574 17.0858 12.5493 16.9239 12.4129 16.7875C12.2765 16.6512 12.1147 16.543 11.9365 16.4692C11.7583 16.3954 11.5674 16.3574 11.3745 16.3574ZM21.6001 16.739C21.3145 16.7374 21.0346 16.8191 20.7948 16.9741C20.5549 17.1291 20.3655 17.3508 20.2497 17.6118C20.1339 17.8729 20.0968 18.1621 20.1429 18.4439C20.189 18.7258 20.3163 18.9881 20.5093 19.1986L21.7165 20.5184C21.7987 20.6084 21.8443 20.726 21.8443 20.8479C21.8443 20.9699 21.7987 21.0874 21.7165 21.1774L20.5093 22.4972C20.2463 22.7846 20.1083 23.1646 20.1256 23.5538C20.1429 23.9429 20.3141 24.3092 20.6015 24.5721C20.8888 24.835 21.2689 24.973 21.658 24.9557C22.0471 24.9385 22.4134 24.7673 22.6764 24.4799L23.648 23.4181C23.6937 23.3681 23.7493 23.3281 23.8113 23.3008C23.8733 23.2735 23.9404 23.2594 24.0081 23.2594C24.0759 23.2594 24.1429 23.2735 24.2049 23.3008C24.2669 23.3281 24.3226 23.3681 24.3683 23.4181L25.3399 24.4799C25.47 24.6222 25.627 24.7375 25.8017 24.8191C25.9764 24.9008 26.1655 24.9472 26.3582 24.9557C26.5509 24.9643 26.7434 24.9348 26.9247 24.869C27.1059 24.8032 27.2725 24.7023 27.4148 24.5721C27.5571 24.4419 27.6723 24.285 27.754 24.1103C27.8356 23.9355 27.882 23.7464 27.8906 23.5538C27.8992 23.3611 27.8697 23.1686 27.8039 22.9873C27.738 22.806 27.6372 22.6395 27.507 22.4972L26.2997 21.1774C26.2175 21.0874 26.1719 20.9699 26.1719 20.8479C26.1719 20.726 26.2175 20.6084 26.2997 20.5184L27.507 19.1986C27.7698 18.9111 27.9078 18.531 27.8904 18.1419C27.8731 17.7527 27.7019 17.3864 27.4145 17.1234C27.127 16.8609 26.747 16.7231 26.358 16.7405C25.9691 16.7578 25.6029 16.9288 25.3399 17.2159L24.3683 18.2783C24.3226 18.3283 24.2669 18.3682 24.2049 18.3956C24.1429 18.4229 24.0759 18.437 24.0081 18.437C23.9404 18.437 23.8733 18.4229 23.8113 18.3956C23.7493 18.3682 23.6937 18.3283 23.648 18.2783L22.6764 17.2159C22.5396 17.0664 22.3734 16.9468 22.1882 16.8648C22.0029 16.7827 21.8027 16.7399 21.6001 16.739Z" fill="#C9FA49"/>
<path id="Vector_2" d="M2.39698 3.71973C2.0075 3.71973 1.63398 3.87444 1.35858 4.14984C1.08318 4.42524 0.928467 4.79876 0.928467 5.18824V8.8584C0.928467 11.0032 2.7006 12.7754 4.84543 12.7754C6.99025 12.7754 8.76238 11.0032 8.76238 8.8584V5.18824C8.75489 4.80364 8.59686 4.43733 8.32222 4.16799C8.04758 3.89865 7.67826 3.74778 7.29359 3.74778C6.90893 3.74778 6.53961 3.89865 6.26497 4.16799C5.99033 4.43733 5.83229 4.80364 5.8248 5.18824V8.8584C5.8248 9.42664 5.41367 9.83834 4.84543 9.83834C4.27719 9.83834 3.86549 9.42664 3.86549 8.8584V5.18824C3.86549 4.99539 3.82751 4.80443 3.75371 4.62626C3.67991 4.44809 3.57174 4.28621 3.43537 4.14984C3.29901 4.01348 3.13712 3.90531 2.95895 3.83151C2.78079 3.75771 2.58983 3.71973 2.39698 3.71973ZM12.4075 3.83783C12.5932 3.83783 12.777 3.8744 12.9486 3.94546C13.1201 4.01652 13.276 4.12066 13.4073 4.25196C13.5386 4.38325 13.6427 4.53912 13.7138 4.71067C13.7848 4.88221 13.8214 5.06607 13.8214 5.25175V11.2433C13.8251 11.4313 13.7913 11.6182 13.722 11.793C13.6526 11.9678 13.5491 12.1269 13.4174 12.2612C13.2858 12.3955 13.1287 12.5022 12.9553 12.575C12.7819 12.6478 12.5958 12.6853 12.4078 12.6853C12.2197 12.6853 12.0336 12.6478 11.8602 12.575C11.6868 12.5022 11.5297 12.3955 11.3981 12.2612C11.2665 12.1269 11.1629 11.9678 11.0936 11.793C11.0242 11.6182 10.9904 11.4313 10.9941 11.2433V5.25175C10.994 5.0661 11.0306 4.88225 11.1015 4.71071C11.1725 4.53917 11.2766 4.38329 11.4079 4.25199C11.5391 4.12069 11.695 4.01653 11.8665 3.94547C12.038 3.87441 12.2218 3.83783 12.4075 3.83783Z" fill="#C9FA49"/>
<path id="Vector_3" d="M17.0925 10.0449C17.3509 10.0448 17.6036 10.1214 17.8185 10.2649C18.0334 10.4084 18.2009 10.6124 18.2999 10.8511C18.3988 11.0899 18.4247 11.3526 18.3744 11.606C18.324 11.8595 18.1995 12.0923 18.0168 12.2751C17.8341 12.4578 17.6012 12.5822 17.3478 12.6326C17.0943 12.683 16.8316 12.6571 16.5928 12.5582C16.3541 12.4592 16.1501 12.2917 16.0066 12.0768C15.8631 11.8618 15.7865 11.6092 15.7866 11.3508C15.7868 11.0045 15.9244 10.6724 16.1693 10.4276C16.4141 10.1827 16.7462 10.0451 17.0925 10.0449ZM7.08977 22.8014C7.34804 22.8014 7.60052 22.8779 7.81526 23.0214C8.03 23.1649 8.19738 23.3689 8.29621 23.6075C8.39505 23.8461 8.42091 24.1086 8.37052 24.362C8.32013 24.6153 8.19577 24.8479 8.01314 25.0306C7.83052 25.2132 7.59784 25.3376 7.34453 25.3879C7.09122 25.4383 6.82866 25.4125 6.59005 25.3136C6.35144 25.2148 6.1475 25.0474 6.00401 24.8327C5.86052 24.6179 5.78394 24.3655 5.78394 24.1072C5.78394 23.7609 5.92151 23.4287 6.16641 23.1838C6.4113 22.9389 6.74344 22.8014 7.08977 22.8014Z" fill="#C9FA49"/>
</g>
<defs>
<clipPath id="clip0_21_1059">
<rect width="28.5234" height="28.5234" fill="white" transform="translate(0.148438 0.304688)"/>
</clipPath>
</defs>
</svg>
