<svg width="31" height="22" viewBox="0 0 31 22" fill="none" xmlns="http://www.w3.org/2000/svg">
<g id="code 1" clip-path="url(#clip0_21_1078)">
<path id="Vector" fill-rule="evenodd" clip-rule="evenodd" d="M8.49077 6.06987C8.79138 5.76845 8.95994 5.3619 8.95994 4.9383C8.95994 4.51469 8.79138 4.10815 8.49077 3.80672L8.46956 3.78572C8.32158 3.63724 8.14528 3.51935 7.9509 3.43888C7.75652 3.35842 7.54793 3.31698 7.33724 3.31698C7.12656 3.31698 6.91797 3.35842 6.72359 3.43888C6.52921 3.51935 6.35291 3.63724 6.20493 3.78572L0.469927 9.51711C0.169215 9.81881 0.000610352 10.2256 0.000610352 10.6495C0.000610352 11.0734 0.169215 11.4802 0.469927 11.7819L6.20493 17.5133C6.35291 17.6617 6.52921 17.7796 6.72359 17.8601C6.91797 17.9406 7.12656 17.982 7.33724 17.982C7.54793 17.982 7.75652 17.9406 7.9509 17.8601C8.14528 17.7796 8.32158 17.6617 8.46956 17.5133L8.49077 17.4923C8.79138 17.1908 8.95994 16.7843 8.95994 16.3607C8.95994 15.9371 8.79138 15.5305 8.49077 15.2291L5.04161 11.7819C4.7409 11.4802 4.57229 11.0734 4.57229 10.6495C4.57229 10.2256 4.7409 9.81881 5.04161 9.51711L8.49077 6.06987ZM30.5301 9.51711L24.7951 3.78572C24.6472 3.63724 24.4709 3.51935 24.2765 3.43888C24.0821 3.35842 23.8735 3.31698 23.6628 3.31698C23.4521 3.31698 23.2435 3.35842 23.0492 3.43888C22.8548 3.51935 22.6785 3.63724 22.5305 3.78572L22.5093 3.80672C22.2087 4.10815 22.0401 4.51469 22.0401 4.9383C22.0401 5.3619 22.2087 5.76845 22.5093 6.06987L25.9601 9.51711C26.2608 9.81881 26.4294 10.2256 26.4294 10.6495C26.4294 11.0734 26.2608 11.4802 25.9601 11.7819L22.5093 15.2291C22.2087 15.5305 22.0401 15.9371 22.0401 16.3607C22.0401 16.7843 22.2087 17.1908 22.5093 17.4923L22.5305 17.5133C22.6785 17.6617 22.8548 17.7796 23.0492 17.8601C23.2435 17.9406 23.4521 17.982 23.6628 17.982C23.8735 17.982 24.0821 17.9406 24.2765 17.8601C24.4709 17.7796 24.6472 17.6617 24.7951 17.5133L30.5301 11.7819C30.8308 11.4802 30.9995 11.0734 30.9995 10.6495C30.9995 10.2256 30.8308 9.81881 30.5301 9.51711ZM20.8989 2.82134L12.6399 20.316C12.3723 20.8668 11.9024 21.5469 11.2971 21.5469H11.2645C10.0881 21.5469 9.31961 19.9638 9.84009 18.896L18.0518 1.56618C18.3194 1.01695 19.3114 0.58726 19.3114 0.58726V0.546875C20.9136 0.546875 21.4194 1.75357 20.8989 2.82134Z" fill="white"/>
</g>
<defs>
<clipPath id="clip0_21_1078">
<rect width="31" height="21" fill="white" transform="translate(0 0.546875)"/>
</clipPath>
</defs>
</svg>
