<svg width="32" height="32" viewBox="0 0 32 32" fill="none" xmlns="http://www.w3.org/2000/svg">
<path d="M27.3824 13.607V22.4874C27.3824 25.2606 25.1276 27.5154 22.3544 27.5154H19.3641C19.1049 28.4076 18.2789 29.0617 17.3053 29.0617H15.4635C14.8938 29.0617 14.3572 28.8356 13.9473 28.4287C13.5404 28.0218 13.3173 27.4852 13.3173 26.9185C13.3173 25.7399 14.2789 24.7783 15.4635 24.7783H17.3053C17.8811 24.7783 18.4176 24.9983 18.8215 25.4023C19.0778 25.6585 19.2647 25.969 19.3641 26.3066H22.3544C24.4614 26.3066 26.1766 24.5914 26.1766 22.4844V21.9056C26.053 21.9418 25.9204 21.9599 25.7817 21.9599H23.1441C22.3453 21.9599 21.6942 21.3088 21.6942 20.5099V13.7125C21.6942 12.9137 22.3453 12.2626 23.1441 12.2626H25.7817C25.8872 12.2626 25.9897 12.2747 26.0892 12.2958C25.4471 7.43359 21.2752 3.66864 16.2382 3.66864C11.2102 3.66864 7.04136 7.42154 6.38725 12.2717C6.43849 12.2656 6.48973 12.2626 6.54098 12.2626H9.17856C9.97736 12.2626 10.6285 12.9137 10.6285 13.7125V20.513C10.6285 21.3118 9.97736 21.9629 9.17856 21.9629H6.54098C5.74217 21.9629 5.09106 21.3118 5.09106 20.513V13.7125C5.09106 13.6764 5.09106 13.6432 5.09408 13.607H5.09106C5.09106 12.1089 5.38647 10.6529 5.97126 9.27839C6.53495 7.95207 7.33979 6.76139 8.36467 5.7365C9.38956 4.71161 10.5802 3.90678 11.9066 3.34309C13.2841 2.7583 14.7401 2.46289 16.2382 2.46289C17.7364 2.46289 19.1923 2.7583 20.5669 3.34309C21.8932 3.90678 23.0839 4.71161 24.1087 5.7365C25.1336 6.76139 25.9385 7.95207 26.5022 9.27839C27.087 10.6529 27.3824 12.1089 27.3824 13.607Z" fill="#101010"/>
</svg>
