<svg width="26" height="26" viewBox="0 0 26 26" fill="none" xmlns="http://www.w3.org/2000/svg">
<g id="login (1) 1" clip-path="url(#clip0_21_1118)">
<path id="Vector" d="M20.5505 7.10864C20.0052 7.10864 19.5615 7.55113 19.5615 8.09505C19.5615 8.63902 20.0052 9.08151 20.5505 9.08151C21.0959 9.08151 21.5396 8.63902 21.5396 8.09505C21.5396 7.55113 21.0959 7.10864 20.5505 7.10864Z" fill="white"/>
<path id="Vector_2" d="M20.5504 3.26633C17.8532 3.26633 15.6588 5.45515 15.6588 8.14558C15.6588 9.87244 16.572 11.4632 18.0546 12.3423V21.3977C18.0546 21.4761 18.0837 21.5517 18.1362 21.6099L20.0965 23.7823C20.1257 23.8147 20.1613 23.8408 20.2011 23.8588C20.2409 23.8769 20.2839 23.8865 20.3276 23.8872L20.3327 23.8872C20.4192 23.8872 20.502 23.8521 20.5619 23.7898L22.9578 21.2997C23.0111 21.2443 23.0425 21.1715 23.046 21.0948C23.0496 21.0181 23.0251 20.9426 22.9771 20.8826L21.8471 19.4665L22.9532 18.3632C22.9827 18.3338 23.0061 18.2989 23.0221 18.2604C23.0381 18.2219 23.0463 18.1807 23.0463 18.139C23.0463 18.0973 23.0381 18.0561 23.0221 18.0176C23.0061 17.9791 22.9827 17.9442 22.9532 17.9148L21.8471 16.8115L22.9771 15.3954C23.0219 15.3393 23.0463 15.2697 23.0463 15.1979V12.3423C24.5289 11.4632 25.4421 9.87244 25.4421 8.14558C25.4421 5.45515 23.2477 3.26633 20.5504 3.26633ZM20.5504 9.71555C19.6546 9.71555 18.9258 8.98856 18.9258 8.09499C18.9258 7.20143 19.6546 6.47448 20.5504 6.47448C21.4463 6.47448 22.1751 7.20143 22.1751 8.09499C22.1751 8.98856 21.4463 9.71555 20.5504 9.71555ZM9.61563 3.92919C10.1103 2.53838 10.7056 1.48638 11.3646 0.812831C8.59163 1.55278 6.25798 3.97345 4.96754 7.25804H8.75399C8.97365 6.04424 9.26267 4.92142 9.61563 3.92919ZM9.28772 18.3983H12.8762V13.7347H8.89436C8.92025 15.3679 9.05465 16.9444 9.28772 18.3983ZM4.06183 7.89214H1.7067C0.971218 9.47873 0.557383 11.2426 0.549805 13.1006H3.24937C3.25459 11.2796 3.53422 9.51521 4.06183 7.89214ZM3.2588 13.7347H0.563054C0.639186 15.3925 1.03887 16.9673 1.70007 18.3983H4.05727C3.58391 16.9373 3.31135 15.3623 3.2588 13.7347ZM4.73573 7.89214C4.19477 9.47868 3.8905 11.2426 3.88493 13.1006H8.25428C8.25679 11.2788 8.39184 9.51371 8.64679 7.89214H4.73573ZM8.88984 13.1006H12.8762V7.89214H9.29008C9.03036 9.50683 8.8924 11.2731 8.88984 13.1006ZM10.2146 4.14128C9.88363 5.07173 9.61056 6.12233 9.39983 7.25799H12.8762V0.605713C11.907 0.811476 10.9498 2.07431 10.2146 4.14128ZM4.73086 18.3983H8.64458C8.41583 16.9386 8.28419 15.3631 8.2588 13.7347H3.89466C3.95067 15.3925 4.24461 16.9673 4.73086 18.3983Z" fill="white"/>
<path id="Vector_3" d="M6.12078 3.84628C6.84637 2.87086 7.66626 2.06607 8.55305 1.44507C5.74664 2.54716 3.42869 4.62506 2.02218 7.25803H4.28296C4.74869 6.01271 5.36548 4.86164 6.12078 3.84628ZM6.12078 22.4585C5.36262 21.4392 4.74412 20.2832 4.27774 19.0324H2.01465C3.42041 21.6721 5.74152 23.7556 8.55305 24.8597C7.66621 24.2387 6.84637 23.4339 6.12078 22.4585ZM10.2146 22.1635C10.9495 24.2295 11.9062 25.4921 12.8763 25.6988V19.0324H9.39723C9.60832 20.1736 9.88228 21.2291 10.2146 22.1635Z" fill="white"/>
<path id="Vector_4" d="M8.75151 19.0325H4.96216C6.25144 22.3243 8.58776 24.751 11.3647 25.492C10.7058 24.8184 10.1105 23.7664 9.61577 22.3756C9.26146 21.3795 8.97148 20.2518 8.75151 19.0325Z" fill="white"/>
</g>
<defs>
<clipPath id="clip0_21_1118">
<rect width="25.6953" height="25.6953" fill="white" transform="translate(0.148438 0.304688)"/>
</clipPath>
</defs>
</svg>
