<svg width="26" height="26" viewBox="0 0 26 26" fill="none" xmlns="http://www.w3.org/2000/svg">
<g clip-path="url(#clip0_48_19483)">
<path d="M20.5505 7.10938C20.0052 7.10938 19.5615 7.55187 19.5615 8.09578C19.5615 8.63975 20.0052 9.08224 20.5505 9.08224C21.0959 9.08224 21.5396 8.63975 21.5396 8.09578C21.5396 7.55187 21.0959 7.10938 20.5505 7.10938Z" fill="#101010"/>
<path d="M20.5504 3.26609C17.8532 3.26609 15.6588 5.45491 15.6588 8.14534C15.6588 9.87219 16.572 11.463 18.0546 12.3421V21.3975C18.0546 21.4759 18.0837 21.5515 18.1362 21.6096L20.0965 23.7821C20.1257 23.8145 20.1613 23.8405 20.2011 23.8586C20.2409 23.8766 20.2839 23.8863 20.3276 23.8869L20.3327 23.887C20.4192 23.887 20.502 23.8518 20.5619 23.7895L22.9578 21.2994C23.0111 21.2441 23.0425 21.1713 23.046 21.0945C23.0496 21.0178 23.0251 20.9424 22.9771 20.8824L21.8471 19.4663L22.9532 18.363C22.9827 18.3336 23.0061 18.2986 23.0221 18.2602C23.0381 18.2217 23.0463 18.1804 23.0463 18.1388C23.0463 18.0971 23.0381 18.0558 23.0221 18.0174C23.0061 17.9789 22.9827 17.9439 22.9532 17.9145L21.8471 16.8112L22.9771 15.3951C23.0219 15.339 23.0463 15.2694 23.0463 15.1976V12.3421C24.5289 11.463 25.4421 9.87219 25.4421 8.14534C25.4421 5.45491 23.2477 3.26609 20.5504 3.26609ZM20.5504 9.71531C19.6546 9.71531 18.9258 8.98831 18.9258 8.09475C18.9258 7.20118 19.6546 6.47424 20.5504 6.47424C21.4463 6.47424 22.1751 7.20118 22.1751 8.09475C22.1751 8.98831 21.4463 9.71531 20.5504 9.71531ZM9.61563 3.92895C10.1103 2.53814 10.7056 1.48614 11.3646 0.812587C8.59163 1.55253 6.25798 3.97321 4.96754 7.25779H8.75399C8.97365 6.04399 9.26267 4.92118 9.61563 3.92895ZM9.28772 18.398H12.8762V13.7344H8.89436C8.92025 15.3676 9.05465 16.9441 9.28772 18.398ZM4.06183 7.8919H1.7067C0.971218 9.47848 0.557383 11.2424 0.549805 13.1003H3.24937C3.25459 11.2793 3.53422 9.51497 4.06183 7.8919ZM3.2588 13.7344H0.563054C0.639186 15.3922 1.03887 16.967 1.70007 18.398H4.05727C3.58391 16.9371 3.31135 15.3621 3.2588 13.7344ZM4.73573 7.8919C4.19477 9.47843 3.8905 11.2424 3.88493 13.1003H8.25428C8.25679 11.2785 8.39184 9.51346 8.64679 7.8919H4.73573ZM8.88984 13.1003H12.8762V7.8919H9.29008C9.03036 9.50659 8.8924 11.2729 8.88984 13.1003ZM10.2146 4.14103C9.88363 5.07148 9.61056 6.12208 9.39983 7.25774H12.8762V0.605469C11.907 0.811232 10.9498 2.07407 10.2146 4.14103ZM4.73086 18.398H8.64458C8.41583 16.9384 8.28419 15.3628 8.2588 13.7344H3.89466C3.95067 15.3922 4.24461 16.9671 4.73086 18.398Z" fill="#101010"/>
<path d="M6.12078 3.84652C6.84637 2.8711 7.66626 2.06632 8.55305 1.44531C5.74664 2.5474 3.42869 4.62531 2.02218 7.25827H4.28296C4.74869 6.01295 5.36548 4.86189 6.12078 3.84652ZM6.12078 22.4587C5.36262 21.4395 4.74412 20.2834 4.27774 19.0326H2.01465C3.42041 21.6723 5.74152 23.7558 8.55305 24.8599C7.66621 24.2389 6.84637 23.4341 6.12078 22.4587ZM10.2146 22.1637C10.9495 24.2297 11.9062 25.4924 12.8763 25.699V19.0326H9.39723C9.60832 20.1738 9.88228 21.2293 10.2146 22.1637Z" fill="#101010"/>
<path d="M8.75151 19.0332H4.96216C6.25144 22.3251 8.58776 24.7518 11.3647 25.4927C10.7058 24.8192 10.1105 23.7671 9.61577 22.3764C9.26146 21.3802 8.97148 20.2525 8.75151 19.0332Z" fill="#101010"/>
</g>
<defs>
<clipPath id="clip0_48_19483">
<rect width="25.6953" height="25.6953" fill="white" transform="translate(0.148438 0.304688)"/>
</clipPath>
</defs>
</svg>
