<svg width="25" height="25" viewBox="0 0 25 25" fill="none" xmlns="http://www.w3.org/2000/svg">
<g id="magic 1">
<g id="Group">
<path id="Vector" d="M12.4922 6.80469C12.4922 6.50469 12.2922 6.30469 11.9922 6.30469C9.99219 6.30469 8.99219 6.10469 8.29219 5.50469C7.59219 4.90469 7.49219 3.80469 7.49219 1.80469C7.49219 1.50469 7.29219 1.30469 6.99219 1.30469C6.69219 1.30469 6.49219 1.50469 6.49219 1.80469C6.49219 3.80469 6.29219 4.80469 5.69219 5.50469C5.09219 6.20469 3.99219 6.30469 1.99219 6.30469C1.69219 6.30469 1.49219 6.50469 1.49219 6.80469C1.49219 7.10469 1.69219 7.30469 1.99219 7.30469C3.99219 7.30469 4.99219 7.50469 5.69219 8.10469C6.39219 8.70469 6.49219 9.80469 6.49219 11.8047C6.49219 12.1047 6.69219 12.3047 6.99219 12.3047C7.29219 12.3047 7.49219 12.1047 7.49219 11.8047C7.49219 9.80469 7.69219 8.80469 8.29219 8.10469C8.89219 7.40469 9.99219 7.30469 11.9922 7.30469C12.2922 7.30469 12.4922 7.10469 12.4922 6.80469ZM11.9922 4.30469C12.6922 4.30469 13.0922 4.40469 13.2922 4.60469C13.4922 4.80469 13.4922 5.10469 13.4922 5.80469C13.4922 6.10469 13.6922 6.30469 13.9922 6.30469C14.2922 6.30469 14.4922 6.10469 14.4922 5.80469C14.4922 5.10469 14.5922 4.70469 14.7922 4.50469C14.9922 4.30469 15.2922 4.30469 15.9922 4.30469C16.2922 4.30469 16.4922 4.10469 16.4922 3.80469C16.4922 3.50469 16.2922 3.30469 15.9922 3.30469C15.2922 3.30469 14.8922 3.20469 14.6922 3.00469C14.4922 2.80469 14.4922 2.50469 14.4922 1.80469C14.4922 1.50469 14.2922 1.30469 13.9922 1.30469C13.6922 1.30469 13.4922 1.50469 13.4922 1.80469C13.4922 2.50469 13.3922 2.90469 13.1922 3.10469C12.9922 3.30469 12.6922 3.30469 11.9922 3.30469C11.6922 3.30469 11.4922 3.50469 11.4922 3.80469C11.4922 4.10469 11.6922 4.30469 11.9922 4.30469Z" fill="white"/>
<path id="Vector_2" d="M14.6923 11.7048L11.4923 8.50478C11.3923 8.40478 11.2923 8.30478 11.0923 8.30478C10.3923 8.20478 9.69229 8.40478 9.09229 8.80478C8.59229 9.40478 8.39229 10.2048 8.49229 10.9048C8.49229 11.0048 8.49229 11.2048 8.59229 11.3048L11.7923 14.5048C11.9923 14.7048 12.2923 14.7048 12.4923 14.5048L14.5923 12.4048C14.8923 12.2048 14.8923 11.9048 14.6923 11.7048ZM22.8923 19.9048L16.0923 13.1048C15.8923 12.9048 15.5923 12.9048 15.3923 13.1048L13.2923 15.2048C13.0923 15.4048 13.0923 15.7048 13.2923 15.9048L20.0923 22.7048C20.8923 23.5048 22.0923 23.5048 22.8923 22.7048C23.6923 21.9048 23.6923 20.7048 22.8923 19.9048Z" fill="white"/>
</g>
</g>
</svg>
