<svg width="26" height="26" viewBox="0 0 26 26" fill="none" xmlns="http://www.w3.org/2000/svg">
<path d="M18.1562 22.2578H7.76562C3.60937 22.2578 2.57031 21.2187 2.57031 17.0625V8.75C2.57031 4.59375 3.60937 3.55469 7.76562 3.55469H18.1562C22.3125 3.55469 23.3516 4.59375 23.3516 8.75V17.0625C23.3516 21.2187 22.3125 22.2578 18.1562 22.2578Z" stroke="#101010" stroke-width="1.55859" stroke-linecap="round" stroke-linejoin="round"/>
<path d="M15.0391 8.75H20.2344" stroke="#101010" stroke-width="1.55859" stroke-linecap="round" stroke-linejoin="round"/>
<path d="M16.0781 12.9062H20.2344" stroke="#101010" stroke-width="1.55859" stroke-linecap="round" stroke-linejoin="round"/>
<path d="M18.1562 17.0625H20.2344" stroke="#101010" stroke-width="1.55859" stroke-linecap="round" stroke-linejoin="round"/>
<path d="M9.32406 12.1677C10.3627 12.1677 11.2048 11.3256 11.2048 10.287C11.2048 9.24827 10.3627 8.40625 9.32406 8.40625C8.28538 8.40625 7.44336 9.24827 7.44336 10.287C7.44336 11.3256 8.28538 12.1677 9.32406 12.1677Z" stroke="#101010" stroke-width="1.55859" stroke-linecap="round" stroke-linejoin="round"/>
<path d="M12.9609 17.4043C12.8155 15.8976 11.6205 14.7131 10.1139 14.578C9.59437 14.5261 9.06445 14.5261 8.53453 14.578C7.02789 14.7235 5.83297 15.8976 5.6875 17.4043" stroke="#101010" stroke-width="1.55859" stroke-linecap="round" stroke-linejoin="round"/>
</svg>
