<svg width="26" height="26" viewBox="0 0 26 26" fill="none" xmlns="http://www.w3.org/2000/svg">
<g id="vuesax/linear/personalcard">
<g id="personalcard">
<path id="Vector" d="M18.1562 22.2581H7.76562C3.60937 22.2581 2.57031 21.219 2.57031 17.0627V8.75024C2.57031 4.59399 3.60937 3.55493 7.76562 3.55493H18.1562C22.3125 3.55493 23.3516 4.59399 23.3516 8.75024V17.0627C23.3516 21.219 22.3125 22.2581 18.1562 22.2581Z" stroke="white" stroke-width="1.55859" stroke-linecap="round" stroke-linejoin="round"/>
<path id="Vector_2" d="M15.0391 8.75024H20.2344" stroke="white" stroke-width="1.55859" stroke-linecap="round" stroke-linejoin="round"/>
<path id="Vector_3" d="M16.0781 12.9065H20.2344" stroke="white" stroke-width="1.55859" stroke-linecap="round" stroke-linejoin="round"/>
<path id="Vector_4" d="M18.1562 17.0627H20.2344" stroke="white" stroke-width="1.55859" stroke-linecap="round" stroke-linejoin="round"/>
<path id="Vector_5" d="M9.32406 12.1686C10.3627 12.1686 11.2048 11.3266 11.2048 10.2879C11.2048 9.24925 10.3627 8.40723 9.32406 8.40723C8.28538 8.40723 7.44336 9.24925 7.44336 10.2879C7.44336 11.3266 8.28538 12.1686 9.32406 12.1686Z" stroke="white" stroke-width="1.55859" stroke-linecap="round" stroke-linejoin="round"/>
<path id="Vector_6" d="M12.9609 17.4057C12.8155 15.8991 11.6205 14.7146 10.1139 14.5795C9.59437 14.5275 9.06445 14.5275 8.53453 14.5795C7.02789 14.725 5.83297 15.8991 5.6875 17.4057" stroke="white" stroke-width="1.55859" stroke-linecap="round" stroke-linejoin="round"/>
</g>
</g>
</svg>
