<svg width="26" height="26" viewBox="0 0 26 26" fill="none" xmlns="http://www.w3.org/2000/svg">
<g id="vuesax/linear/monitor-mobbile">
<g id="monitor-mobbile">
<path id="Vector" d="M11.1953 18.0499H7.25726C3.75562 18.0499 2.88281 17.1771 2.88281 13.6755V7.4411C2.88281 3.93946 3.75562 3.06665 7.25726 3.06665H18.1986C21.7002 3.06665 22.573 3.93946 22.573 7.4411" stroke="white" stroke-width="1.55859" stroke-linecap="round" stroke-linejoin="round"/>
<path id="Vector_2" d="M11.1953 22.7464V18.0498" stroke="white" stroke-width="1.55859" stroke-linecap="round" stroke-linejoin="round"/>
<path id="Vector_3" d="M2.88281 13.8936H11.1953" stroke="white" stroke-width="1.55859" stroke-linecap="round" stroke-linejoin="round"/>
<path id="Vector_4" d="M7.80786 22.7463H11.1952" stroke="white" stroke-width="1.55859" stroke-linecap="round" stroke-linejoin="round"/>
<path id="Vector_5" d="M23.6641 13.7377V19.6708C23.6641 22.1334 23.0511 22.7464 20.5885 22.7464H16.8998C14.4373 22.7464 13.8242 22.1334 13.8242 19.6708V13.7377C13.8242 11.2752 14.4373 10.6621 16.8998 10.6621H20.5885C23.0511 10.6621 23.6641 11.2752 23.6641 13.7377Z" stroke="white" stroke-width="1.55859" stroke-linecap="round" stroke-linejoin="round"/>
<path id="Vector_6" d="M18.7228 19.4006H18.7321" stroke="white" stroke-width="2.07812" stroke-linecap="round" stroke-linejoin="round"/>
</g>
</g>
</svg>
