<svg width="26" height="26" viewBox="0 0 26 26" fill="none" xmlns="http://www.w3.org/2000/svg">
<path d="M11.1953 18.0497H7.25726C3.75562 18.0497 2.88281 17.1769 2.88281 13.6752V7.44086C2.88281 3.93922 3.75562 3.06641 7.25726 3.06641H18.1986C21.7002 3.06641 22.573 3.93922 22.573 7.44086" stroke="#101010" stroke-width="1.55859" stroke-linecap="round" stroke-linejoin="round"/>
<path d="M11.1953 22.7454V18.0488" stroke="#101010" stroke-width="1.55859" stroke-linecap="round" stroke-linejoin="round"/>
<path d="M2.88281 13.8926H11.1953" stroke="#101010" stroke-width="1.55859" stroke-linecap="round" stroke-linejoin="round"/>
<path d="M7.80786 22.7461H11.1952" stroke="#101010" stroke-width="1.55859" stroke-linecap="round" stroke-linejoin="round"/>
<path d="M23.6641 13.7377V19.6708C23.6641 22.1334 23.0511 22.7464 20.5885 22.7464H16.8998C14.4373 22.7464 13.8242 22.1334 13.8242 19.6708V13.7377C13.8242 11.2752 14.4373 10.6621 16.8998 10.6621H20.5885C23.0511 10.6621 23.6641 11.2752 23.6641 13.7377Z" stroke="#101010" stroke-width="1.55859" stroke-linecap="round" stroke-linejoin="round"/>
<path d="M18.7228 19.4004H18.7321" stroke="#101010" stroke-width="2.07812" stroke-linecap="round" stroke-linejoin="round"/>
</svg>
