<svg width="326" height="326" viewBox="0 0 326 326" fill="none" xmlns="http://www.w3.org/2000/svg">
<path d="M53.4618 325.493C39.4378 325.475 25.994 319.892 16.0836 309.97C6.17324 300.047 0.606674 286.596 0.606685 272.572V53.6569C0.580948 46.6994 1.92909 39.8053 4.57379 33.37C7.21848 26.9348 11.1077 21.085 16.0183 16.1562C20.9289 11.2274 26.7643 7.31662 33.1898 4.64818C39.6152 1.97974 46.5043 0.606154 53.4618 0.606201H272.573C279.53 0.606154 286.419 1.97974 292.845 4.64818C299.27 7.31662 305.106 11.2274 310.016 16.1562C314.927 21.085 318.816 26.9348 321.461 33.37C324.106 39.8053 325.454 46.6994 325.428 53.6569V272.572C325.428 286.596 319.861 300.047 309.951 309.97C300.041 319.892 286.597 325.475 272.573 325.493H53.4618ZM266.121 222.585C257.509 222.636 249.105 225.237 241.969 230.059C234.833 234.881 229.285 241.709 226.025 249.68C222.765 257.651 221.939 266.41 223.651 274.85C225.362 283.291 229.535 291.035 235.643 297.107C241.751 303.178 249.52 307.305 257.971 308.966C266.421 310.628 275.174 309.749 283.126 306.442C291.078 303.134 297.872 297.546 302.652 290.381C307.431 283.217 309.982 274.798 309.982 266.185C310.077 260.548 309.059 254.948 306.987 249.704C304.915 244.461 301.83 239.677 297.907 235.628C293.985 231.578 289.302 228.341 284.127 226.103C278.953 223.865 273.387 222.67 267.75 222.585H266.121ZM163.017 246.894C159.13 246.791 155.3 247.848 152.017 249.933C148.733 252.017 146.146 255.033 144.586 258.596C143.026 262.158 142.564 266.104 143.258 269.931C143.953 273.757 145.773 277.289 148.485 280.076C151.198 282.863 154.679 284.778 158.486 285.575C162.292 286.373 166.25 286.017 169.853 284.554C173.456 283.091 176.541 280.586 178.713 277.361C180.885 274.135 182.046 270.335 182.048 266.446C182.126 263.945 181.708 261.452 180.818 259.113C179.929 256.774 178.585 254.634 176.864 252.816C175.144 250.999 173.081 249.54 170.793 248.523C168.506 247.507 166.041 246.953 163.539 246.894H163.017ZM266.121 119.416C257.509 119.468 249.105 122.069 241.969 126.891C234.833 131.713 229.285 138.54 226.025 146.511C222.765 154.483 221.939 163.241 223.651 171.682C225.362 180.122 229.535 187.866 235.643 193.938C241.751 200.01 249.52 204.136 257.971 205.798C266.421 207.459 275.174 206.581 283.126 203.273C291.078 199.965 297.872 194.377 302.652 187.213C307.431 180.048 309.982 171.629 309.982 163.017C310.156 151.637 305.806 140.653 297.888 132.478C289.969 124.303 279.13 119.605 267.75 119.416H266.121ZM163.017 119.416C151.454 119.416 140.364 124.01 132.187 132.187C124.01 140.363 119.417 151.453 119.417 163.017C119.417 174.58 124.01 185.67 132.187 193.847C140.364 202.024 151.454 206.617 163.017 206.617C174.581 206.617 185.671 202.024 193.848 193.847C202.024 185.67 206.618 174.58 206.618 163.017C206.618 151.453 202.024 140.363 193.848 132.187C185.671 124.01 174.581 119.416 163.017 119.416ZM67.2785 143.791C69.4292 154.479 72.753 167.709 75.5554 179.115C77.2499 186.023 78.814 192.149 79.8568 196.842L80.5085 199.123H94.9769L118.309 116.614H102.863L102.276 118.83C101.168 123.131 99.7997 128.606 98.1704 134.276C94.9769 146.398 91.1969 160.736 88.4596 172.271C86.2437 161.322 82.9851 147.897 80.1827 136.491C78.5534 129.974 76.9892 123.457 75.8813 118.699L75.2947 116.874H60.6308L60.1095 118.83C58.8712 123.978 57.0463 130.821 54.9608 138.382C51.7673 150.047 48.4435 162.821 45.9018 173.184C43.6207 161.648 40.1666 147.506 37.1035 135.514L33.3886 118.83L32.9324 116.809H17.0302L37.9507 199.123H52.4191L52.8753 197.167C54.1136 192.41 55.9384 185.892 58.0239 178.789C61.087 167.383 64.6715 154.284 67.2785 143.791ZM266.121 16.3128C260.497 16.183 254.903 17.1624 249.659 19.1951C244.414 21.2278 239.621 24.2739 235.554 28.1595C231.487 32.0451 228.225 36.6939 225.955 41.8405C223.685 46.987 222.451 52.5303 222.325 58.1538V60.1741C222.762 71.5058 227.57 82.2278 235.742 90.0903C243.914 97.9529 254.813 102.345 266.153 102.345C277.493 102.345 288.393 97.9529 296.564 90.0903C304.736 82.2278 309.545 71.5058 309.982 60.1741C310.077 54.537 309.059 48.9364 306.987 43.6929C304.915 38.4495 301.83 33.666 297.907 29.6163C293.985 25.5666 289.302 22.3302 284.127 20.0921C278.953 17.8541 273.387 16.6584 267.75 16.5735L266.121 16.3128ZM163.017 40.6223C160.535 40.6051 158.074 41.077 155.775 42.011C153.475 42.945 151.382 44.3228 149.615 46.0657C147.847 47.8087 146.441 49.8826 145.475 52.1692C144.51 54.4557 144.004 56.9101 143.987 59.3921V60.1741C143.987 65.2213 145.992 70.0618 149.561 73.6307C153.13 77.1996 157.97 79.2046 163.017 79.2046C168.064 79.2046 172.905 77.1996 176.474 73.6307C180.043 70.0618 182.048 65.2213 182.048 60.1741C182.152 57.6768 181.757 55.1838 180.885 52.8413C180.014 50.4987 178.683 48.3539 176.971 46.5327C175.259 44.7115 173.2 43.2506 170.916 42.2356C168.632 41.2207 166.168 40.6722 163.669 40.6223H163.017Z" fill="#C9FA49"/>
</svg>
