<svg width="22" height="22" viewBox="0 0 22 22" fill="none" xmlns="http://www.w3.org/2000/svg">
<g id="glob 1" clip-path="url(#clip0_48_9295)">
<path id="Vector" d="M10.5415 14.8959V11.4584H4.67484C4.72067 13.2001 4.99567 14.8042 5.454 16.2709C7.01234 15.4001 8.754 14.9417 10.5415 14.8959ZM11.4582 11.4584V14.8959C13.2457 14.9876 14.9873 15.4459 16.5457 16.2709C17.004 14.8501 17.279 13.2001 17.3248 11.4584H11.4582ZM10.5415 21.7709V15.8126C8.84567 15.9042 7.2415 16.3167 5.77484 17.1417C6.829 19.7542 8.57067 21.5417 10.5415 21.7709ZM10.5415 10.5417V7.10425C8.754 7.01258 7.01234 6.55425 5.454 5.72925C4.99567 7.15008 4.72067 8.80008 4.67484 10.5417H10.5415ZM19.1123 3.89591C18.5623 4.44591 17.9665 4.90425 17.3707 5.31675C17.9207 6.87508 18.2415 8.66258 18.2873 10.5876H21.8165C21.679 7.97508 20.6707 5.68341 19.1123 3.89591ZM11.4582 0.229248V6.18758C13.154 6.09591 14.7582 5.68341 16.2248 4.85841C15.1707 2.24591 13.429 0.458415 11.4582 0.229248ZM5.77484 4.85841C7.2415 5.68341 8.84567 6.14175 10.5415 6.18758V0.229248C8.57067 0.458415 6.829 2.24591 5.77484 4.85841ZM16.2248 17.1417C14.7582 16.3167 13.154 15.8584 11.4582 15.8126V21.7709C13.429 21.5417 15.1707 19.7542 16.2248 17.1417ZM11.4582 7.10425V10.5417H17.3248C17.279 8.80008 17.004 7.19591 16.5457 5.72925C14.9873 6.60008 13.2457 7.05841 11.4582 7.10425ZM4.67484 16.7292C4.12484 15.1709 3.804 13.3834 3.75817 11.4584H0.229004C0.320671 14.0251 1.329 16.3167 2.88734 18.1042C3.43734 17.6001 4.03317 17.1417 4.67484 16.7292ZM17.004 17.6001C16.3623 19.0667 15.5373 20.3042 14.5748 21.1751C16.0415 20.6709 17.3707 19.8459 18.4707 18.7917C18.0123 18.3334 17.5082 17.9667 17.004 17.6001ZM18.2415 11.4584C18.1957 13.3834 17.8748 15.1709 17.3248 16.7292C17.9665 17.1417 18.5623 17.6001 19.0665 18.1501C20.6248 16.3626 21.6332 14.0251 21.7248 11.5042H18.2415V11.4584ZM4.99567 17.6001C4.4915 17.9667 3.98734 18.3334 3.529 18.7917C4.629 19.8459 5.95817 20.6709 7.42484 21.1751C6.46234 20.3042 5.63734 19.0667 4.99567 17.6001ZM3.75817 10.5417C3.804 8.61675 4.12484 6.82925 4.67484 5.27091C4.03317 4.85841 3.43734 4.40008 2.93317 3.85008C1.37484 5.63758 0.366504 7.97508 0.274837 10.4959H3.75817V10.5417ZM17.004 4.40008C17.5082 4.03341 18.0123 3.66675 18.4707 3.20841C17.3707 2.15425 16.0415 1.32925 14.5748 0.825081C15.5373 1.69591 16.3623 2.93341 17.004 4.40008ZM4.99567 4.40008C5.63734 2.93341 6.46234 1.69591 7.42484 0.825081C5.95817 1.32925 4.629 2.15425 3.529 3.20841C3.98734 3.66675 4.4915 4.03341 4.99567 4.40008Z" fill="white"/>
</g>
<defs>
<clipPath id="clip0_48_9295">
<rect width="22" height="22" fill="white"/>
</clipPath>
</defs>
</svg>
