<svg width="30" height="30" viewBox="0 0 30 30" fill="none" xmlns="http://www.w3.org/2000/svg">
<g id="sun 1">
<path id="Vector" d="M15 8.125C11.25 8.125 8.125 11.25 8.125 15C8.125 18.75 11.25 21.875 15 21.875C18.75 21.875 21.875 18.75 21.875 15C21.875 11.25 18.75 8.125 15 8.125ZM15 6.25C15.75 6.25 16.25 5.75 16.25 5V3.75C16.25 3 15.75 2.5 15 2.5C14.25 2.5 13.75 3 13.75 3.75V5C13.75 5.75 14.25 6.25 15 6.25ZM15 23.75C14.25 23.75 13.75 24.25 13.75 25V26.25C13.75 27 14.25 27.5 15 27.5C15.75 27.5 16.25 27 16.25 26.25V25C16.25 24.25 15.75 23.75 15 23.75ZM26.25 13.75H25C24.25 13.75 23.75 14.25 23.75 15C23.75 15.75 24.25 16.25 25 16.25H26.25C27 16.25 27.5 15.75 27.5 15C27.5 14.25 27 13.75 26.25 13.75ZM6.25 15C6.25 14.25 5.75 13.75 5 13.75H3.75C3 13.75 2.5 14.25 2.5 15C2.5 15.75 3 16.25 3.75 16.25H5C5.75 16.25 6.25 15.75 6.25 15ZM23 21.25C22.5 20.75 21.75 20.75 21.25 21.25C20.75 21.75 20.75 22.5 21.25 23L22.125 23.875C22.375 24.125 22.625 24.25 23 24.25C23.375 24.25 23.625 24.125 23.875 23.875C24.375 23.375 24.375 22.625 23.875 22.125L23 21.25ZM7 8.75C7.25 9 7.5 9.125 7.875 9.125C8.25 9.125 8.5 9 8.75 8.75C9.25 8.25 9.25 7.5 8.75 7L7.875 6.125C7.375 5.625 6.625 5.625 6.125 6.125C5.625 6.625 5.625 7.375 6.125 7.875L7 8.75ZM7 21.25L6.125 22.125C5.875 22.375 5.75 22.625 5.75 23C5.75 23.75 6.25 24.25 7 24.25C7.375 24.25 7.625 24.125 7.875 23.875L8.75 23C9.25 22.5 9.25 21.75 8.75 21.25C8.25 20.75 7.5 20.75 7 21.25ZM22.125 9.125C22.5 9.125 22.75 9 23 8.75L23.875 7.875C24.375 7.375 24.375 6.625 23.875 6.125C23.375 5.625 22.625 5.625 22.125 6.125L21.25 7C21 7.25 20.875 7.5 20.875 7.875C20.875 8.625 21.375 9.125 22.125 9.125Z" fill="white"/>
</g>
</svg>
