<svg width="153" height="35" viewBox="0 0 153 35" fill="none" xmlns="http://www.w3.org/2000/svg">
<path d="M142.265 32.2292C135.037 32.2292 131.487 27.2679 131.487 20.8096C131.487 14.4369 135.037 9.47559 142.265 9.47559C149.45 9.47559 153 14.4797 153 20.8096C153 27.2251 149.45 32.2292 142.265 32.2292ZM134.951 20.8524C134.951 26.8402 137.432 29.4491 142.265 29.4491C147.098 29.4491 149.536 26.8402 149.536 20.8524C149.536 14.8218 147.098 12.2556 142.265 12.2556C137.432 12.2556 134.951 14.8218 134.951 20.8524Z" fill="#2D2D28"/>
<path d="M127.093 6.65244H122.688V3.10254H127.093V6.65244ZM126.58 31.5445H123.158V10.1596H126.58V31.5445Z" fill="#2D2D28"/>
<path d="M118.553 31.5445H113.506C109.4 31.5445 108.331 29.962 108.331 26.5404V12.8541H104.268V10.9294L108.631 9.86018L109.914 5.41211H111.753V10.1596H118.81V12.8541H111.753V28.7645H118.553V31.5445Z" fill="#2D2D28"/>
<path d="M101.323 6.65244H96.9175V3.10254H101.323V6.65244ZM100.81 31.5445H97.388V10.1596H100.81V31.5445Z" fill="#2D2D28"/>
<path d="M92.9736 9.86035H93.7434V13.2392H92.8453C86.5153 13.0253 85.1467 17.6445 85.1467 23.675V31.5447H81.7251V10.1597H85.1467V15.9337C86.4298 12.1699 88.9104 9.86035 92.9736 9.86035Z" fill="#2D2D28"/>
<path d="M68.8061 29.2777L74.7939 3.10254H78.3438L71.8428 31.5445H65.855L59.0973 5.79704L52.2969 31.5445H46.3091L39.8081 3.10254H43.4008L49.3886 29.2777L56.3173 3.10254H61.8774L68.8061 29.2777Z" fill="#2D2D28"/>
<path d="M5.8162 34.3431C4.34555 34.3413 2.93575 33.7558 1.89649 32.7152C0.85722 31.6747 0.273474 30.2642 0.273475 28.7935V5.83667C0.270777 5.10706 0.412152 4.3841 0.689491 3.70926C0.96683 3.03442 1.37468 2.42097 1.88964 1.90411C2.40459 1.38724 3.01653 0.977134 3.69035 0.697305C4.36416 0.417476 5.08659 0.273433 5.8162 0.273438H28.7936C29.5232 0.273433 30.2456 0.417476 30.9194 0.697305C31.5932 0.977134 32.2052 1.38724 32.7201 1.90411C33.2351 2.42097 33.6429 3.03442 33.9203 3.70926C34.1976 4.3841 34.339 5.10706 34.3363 5.83667V28.7935C34.3363 30.2642 33.7525 31.6747 32.7133 32.7152C31.674 33.7558 30.2642 34.3413 28.7936 34.3431H5.8162ZM28.117 23.5515C27.2138 23.5569 26.3325 23.8297 25.5843 24.3353C24.836 24.841 24.2542 25.557 23.9123 26.3929C23.5704 27.2288 23.4838 28.1473 23.6633 29.0324C23.8428 29.9175 24.2804 30.7296 24.9209 31.3664C25.5614 32.0031 26.3761 32.4358 27.2623 32.61C28.1485 32.7842 29.0664 32.6921 29.9003 32.3453C30.7341 31.9984 31.4466 31.4124 31.9478 30.6611C32.449 29.9098 32.7165 29.0269 32.7165 28.1238C32.7265 27.5326 32.6198 26.9453 32.4025 26.3954C32.1852 25.8456 31.8617 25.3439 31.4503 24.9193C31.039 24.4946 30.5479 24.1552 30.0053 23.9205C29.4626 23.6858 28.879 23.5604 28.2878 23.5515H28.117ZM17.3049 26.1008C16.8972 26.0899 16.4956 26.2008 16.1513 26.4194C15.807 26.638 15.5357 26.9543 15.3721 27.3278C15.2085 27.7014 15.16 28.1153 15.2328 28.5165C15.3057 28.9178 15.4965 29.2882 15.7809 29.5804C16.0654 29.8727 16.4305 30.0735 16.8297 30.1571C17.2288 30.2407 17.6438 30.2035 18.0217 30.05C18.3995 29.8966 18.723 29.6339 18.9508 29.2957C19.1786 28.9574 19.3004 28.5589 19.3005 28.1511C19.3087 27.8888 19.2649 27.6274 19.1716 27.3821C19.0783 27.1368 18.9374 26.9124 18.757 26.7218C18.5766 26.5312 18.3602 26.3782 18.1203 26.2716C17.8805 26.165 17.6219 26.1069 17.3596 26.1008H17.3049ZM28.117 12.7326C27.2138 12.738 26.3325 13.0107 25.5843 13.5164C24.836 14.0221 24.2542 14.7381 23.9123 15.574C23.5704 16.4099 23.4838 17.3284 23.6633 18.2135C23.8428 19.0986 24.2804 19.9107 24.9209 20.5474C25.5614 21.1841 26.3761 21.6169 27.2623 21.7911C28.1485 21.9653 29.0664 21.8732 29.9003 21.5264C30.7341 21.1795 31.4466 20.5935 31.9478 19.8422C32.449 19.0909 32.7165 18.208 32.7165 17.3048C32.7348 16.1115 32.2787 14.9596 31.4483 14.1023C30.6179 13.245 29.4812 12.7524 28.2878 12.7326H28.117ZM17.3049 12.7326C16.0923 12.7326 14.9293 13.2143 14.0718 14.0718C13.2144 14.9292 12.7326 16.0922 12.7326 17.3048C12.7326 18.5175 13.2144 19.6804 14.0718 20.5379C14.9293 21.3954 16.0923 21.8771 17.3049 21.8771C18.5175 21.8771 19.6805 21.3954 20.5379 20.5379C21.3954 19.6804 21.8771 18.5175 21.8771 17.3048C21.8771 16.0922 21.3954 14.9292 20.5379 14.0718C19.6805 13.2143 18.5175 12.7326 17.3049 12.7326ZM7.2651 15.2887C7.49064 16.4095 7.83919 17.7969 8.13307 18.9929C8.31077 19.7174 8.4748 20.3598 8.58415 20.8519L8.65249 21.0911H10.1697L12.6165 12.4387H10.9967L10.9352 12.6711C10.819 13.1222 10.6755 13.6963 10.5046 14.2909C10.1697 15.5621 9.77334 17.0656 9.48629 18.2753C9.25392 17.1271 8.9122 15.7193 8.61832 14.5232C8.44746 13.8398 8.28343 13.1563 8.16725 12.6574L8.10574 12.4661H6.56799L6.51331 12.6711C6.38346 13.211 6.19209 13.9286 5.97339 14.7214C5.63851 15.9448 5.28995 17.2843 5.02341 18.371C4.7842 17.1613 4.42198 15.6782 4.10076 14.4207L3.7112 12.6711L3.66335 12.4592H1.99575L4.18961 21.0911H5.70685L5.75469 20.8861C5.88455 20.3872 6.07591 19.7037 6.29461 18.9588C6.61583 17.7628 6.99172 16.389 7.2651 15.2887ZM28.117 1.92054C27.5273 1.90692 26.9406 2.00962 26.3906 2.22279C25.8406 2.43595 25.338 2.75539 24.9115 3.16285C24.485 3.57032 24.143 4.05783 23.9049 4.59752C23.6669 5.13722 23.5375 5.71853 23.5242 6.30824V6.52011C23.57 7.70842 24.0743 8.83279 24.9313 9.65731C25.7882 10.4818 26.9312 10.9424 28.1204 10.9424C29.3096 10.9424 30.4525 10.4818 31.3095 9.65731C32.1664 8.83279 32.6707 7.70842 32.7165 6.52011C32.7265 5.92896 32.6198 5.34165 32.4025 4.79179C32.1852 4.24192 31.8617 3.7403 31.4503 3.31562C31.039 2.89095 30.5479 2.55155 30.0053 2.31686C29.4626 2.08216 28.879 1.95678 28.2878 1.94787L28.117 1.92054ZM17.3049 4.46978C17.0446 4.46798 16.7865 4.51746 16.5454 4.61541C16.3042 4.71335 16.0847 4.85783 15.8994 5.04061C15.7141 5.22339 15.5666 5.44088 15.4653 5.68066C15.3641 5.92044 15.311 6.17782 15.3092 6.4381V6.52011C15.3092 7.04939 15.5195 7.55699 15.8937 7.93125C16.268 8.30551 16.7756 8.51576 17.3049 8.51576C17.8342 8.51576 18.3418 8.30551 18.716 7.93125C19.0903 7.55699 19.3005 7.04939 19.3005 6.52011C19.3115 6.25823 19.2701 5.99679 19.1786 5.75114C19.0872 5.50548 18.9476 5.28057 18.7681 5.08958C18.5886 4.8986 18.3727 4.7454 18.1332 4.63896C17.8937 4.53253 17.6353 4.47501 17.3732 4.46978H17.3049Z" fill="#C9FA49"/>
<path d="M28.7935 0.53992C30.1953 0.543541 31.5383 1.1034 32.5276 2.09652C33.5169 3.08965 34.0715 4.43483 34.0697 5.83661V28.7935C34.0679 30.1922 33.5114 31.5332 32.5223 32.5223C31.5332 33.5114 30.1923 34.0678 28.7935 34.0696H5.81614C4.41736 34.0678 3.0764 33.5114 2.08731 32.5223C1.09823 31.5332 0.541765 30.1922 0.539956 28.7935V5.83661C0.538141 4.43483 1.09279 3.08965 2.08207 2.09652C3.07135 1.1034 4.41437 0.543541 5.81614 0.53992H28.7935ZM28.1101 11.3588C29.0753 11.3588 30.0188 11.0721 30.8208 10.5352C31.6229 9.99818 32.2475 9.2351 32.6153 8.3427C32.9831 7.45029 33.0775 6.46875 32.8867 5.52257C32.6959 4.57639 32.2284 3.70819 31.5435 3.02808C30.8586 2.34796 29.9871 1.88658 29.0396 1.70243C28.0921 1.51828 27.1113 1.61967 26.2215 1.99374C25.3317 2.36781 24.573 2.9977 24.0417 3.80354C23.5104 4.60937 23.2303 5.55484 23.2371 6.52005C23.2389 7.81007 23.7522 9.04673 24.6644 9.95892C25.5765 10.8711 26.8132 11.3844 28.1032 11.3862M17.3048 8.77541C17.5983 8.77993 17.8898 8.72659 18.1627 8.61844C18.4356 8.51029 18.6845 8.34944 18.8952 8.14508C19.1059 7.94072 19.2743 7.69685 19.3907 7.42741C19.5072 7.15797 19.5694 6.86822 19.5739 6.57472V6.52005C19.5811 6.22654 19.5305 5.93448 19.4248 5.66054C19.3192 5.38661 19.1606 5.13618 18.9581 4.92356C18.7557 4.71094 18.5133 4.5403 18.2449 4.42138C17.9764 4.30246 17.6872 4.23761 17.3937 4.23051H17.3048C16.7167 4.2213 16.1487 4.4443 15.7239 4.85115C15.2992 5.25801 15.0519 5.81591 15.0358 6.40386V6.52005C15.0229 7.11165 15.2453 7.6842 15.654 8.11212C16.0627 8.54005 16.6244 8.78841 17.216 8.80275H17.3048M9.47256 17.0451C9.27436 16.1771 9.04883 15.2545 8.84379 14.4343C8.67293 13.7509 8.51574 13.0674 8.40639 12.5685L8.30387 12.1448H6.36289L6.25354 12.5549C6.12369 13.0948 5.92549 13.8192 5.71362 14.6052C5.50175 15.3911 5.25572 16.3275 5.03018 17.1408C4.81831 16.2454 4.58594 15.2408 4.34674 14.3523C4.18954 13.6689 4.03919 13.0606 3.93667 12.589L3.84099 12.1653H1.64713L1.818 12.8487L3.86833 20.9612L3.97084 21.3713H5.91182L6.02117 20.968C6.14419 20.4691 6.33556 19.7789 6.56109 19.0407C6.78663 18.3026 7.03267 17.3321 7.24454 16.4847C7.44957 17.3458 7.6751 18.2616 7.88014 19.0817L8.33121 20.9407L8.42006 21.3644H10.3542L10.4704 20.968L12.7668 12.8556L12.9855 12.1721H10.7438L10.6412 12.5822C10.5319 13.0333 10.3747 13.6005 10.2175 14.202C9.97831 15.0973 9.71177 16.1088 9.47256 17.0519M28.1169 22.1709C29.3777 22.1948 30.5969 21.72 31.5095 20.8497C32.422 19.9794 32.954 18.784 32.9898 17.5235V17.3048C32.9426 16.0449 32.4089 14.8523 31.5009 13.9776C30.5928 13.103 29.3811 12.6143 28.1203 12.6143C26.8595 12.6143 25.6478 13.103 24.7397 13.9776C23.8317 14.8523 23.298 16.0449 23.2508 17.3048C23.2287 18.5644 23.7043 19.7819 24.5744 20.693C25.4445 21.604 26.6389 22.1351 27.8982 22.1709H28.1169ZM17.3048 22.1709C18.5644 22.193 19.7819 21.7174 20.693 20.8473C21.6041 19.9771 22.1351 18.7828 22.1709 17.5235V17.3048C22.1712 16.0512 21.6793 14.8476 20.8013 13.9529C19.9232 13.0583 18.729 12.544 17.4757 12.5207H17.3048C16.0452 12.4986 14.8277 12.9742 13.9166 13.8443C13.0056 14.7144 12.4745 15.9088 12.4387 17.1681V17.339C12.4257 18.5927 12.9053 19.8015 13.7745 20.7051C14.6436 21.6088 15.8328 22.1351 17.0861 22.1709H17.3048ZM28.1169 32.9898C29.3777 33.0137 30.5969 32.5389 31.5095 31.6686C32.422 30.7983 32.954 29.6029 32.9898 28.3424V28.1237C33.0144 27.4689 32.9066 26.8158 32.6729 26.2036C32.4393 25.5914 32.0845 25.0326 31.6299 24.5607C31.1753 24.0887 30.6302 23.7133 30.0272 23.4569C29.4242 23.2004 28.7756 23.0683 28.1203 23.0683C27.465 23.0683 26.8165 23.2004 26.2134 23.4569C25.6104 23.7133 25.0653 24.0887 24.6107 24.5607C24.1561 25.0326 23.8014 25.5914 23.5677 26.2036C23.334 26.8158 23.2262 27.4689 23.2508 28.1237C23.2287 29.3833 23.7043 30.6008 24.5744 31.5119C25.4445 32.4229 26.6389 32.954 27.8982 32.9898H28.1169ZM17.3048 30.4406C17.6156 30.4576 17.9265 30.411 18.2186 30.3038C18.5108 30.1966 18.778 30.031 19.004 29.817C19.23 29.6031 19.4099 29.3453 19.533 29.0594C19.656 28.7736 19.7194 28.4656 19.7194 28.1544C19.7194 27.8433 19.656 27.5353 19.533 27.2495C19.4099 26.9636 19.23 26.7058 19.004 26.4919C18.778 26.2779 18.5108 26.1123 18.2186 26.0051C17.9265 25.8979 17.6156 25.8513 17.3048 25.8683C16.9941 25.8513 16.6832 25.8979 16.391 26.0051C16.0989 26.1123 15.8316 26.2779 15.6057 26.4919C15.3797 26.7058 15.1997 26.9636 15.0767 27.2495C14.9537 27.5353 14.8902 27.8433 14.8902 28.1544C14.8902 28.4656 14.9537 28.7736 15.0767 29.0594C15.1997 29.3453 15.3797 29.6031 15.6057 29.817C15.8316 30.031 16.0989 30.1966 16.391 30.3038C16.6832 30.411 16.9941 30.4576 17.3048 30.4406ZM28.7935 1.12293e-10H5.81614C5.05063 -4.75658e-06 4.29265 0.15111 3.58567 0.444678C2.87869 0.738245 2.23661 1.16849 1.69627 1.71074C1.15592 2.25299 0.72794 2.89657 0.436862 3.60458C0.145784 4.31259 -0.00266248 5.0711 3.61431e-05 5.83661V28.7935C3.61431e-05 30.336 0.612802 31.8153 1.70353 32.9061C2.79426 33.9968 4.27361 34.6096 5.81614 34.6096H28.7935C30.336 34.6096 31.8154 33.9968 32.9061 32.9061C33.9968 31.8153 34.6096 30.336 34.6096 28.7935V5.83661C34.6123 5.0711 34.4639 4.31259 34.1728 3.60458C33.8817 2.89657 33.4537 2.25299 32.9134 1.71074C32.373 1.16849 31.731 0.738245 31.024 0.444678C30.317 0.15111 29.559 -4.75658e-06 28.7935 1.12293e-10ZM28.1101 10.8189C27.2536 10.8175 26.4167 10.562 25.7056 10.0845C24.9945 9.60714 24.4411 8.92939 24.1155 8.13717C23.7899 7.34495 23.7069 6.47391 23.8768 5.63443C24.0467 4.79494 24.462 4.02479 25.07 3.42155C25.6781 2.81831 26.4515 2.40913 27.2923 2.24585C28.1331 2.08258 29.0034 2.17256 29.7931 2.50439C30.5827 2.83623 31.256 3.39498 31.7278 4.10986C32.1996 4.82473 32.4485 5.66356 32.4431 6.52005C32.4341 7.66213 31.9745 8.75446 31.1644 9.55949C30.3542 10.3645 29.259 10.8171 28.1169 10.8189H28.1101ZM17.3048 8.23549C16.9573 8.23543 16.6177 8.13189 16.3293 7.93809C16.0409 7.74428 15.8167 7.46899 15.6854 7.14729C15.554 6.8256 15.5214 6.47207 15.5917 6.13178C15.6621 5.79149 15.8321 5.47984 16.0803 5.23657C16.3284 4.9933 16.6433 4.82942 16.9849 4.76582C17.3265 4.70222 17.6793 4.74178 17.9984 4.87946C18.3174 5.01714 18.5883 5.2467 18.7763 5.53888C18.9644 5.83106 19.0612 6.17263 19.0544 6.52005C19.0455 6.97813 18.8572 7.41442 18.5301 7.73518C18.2029 8.05594 17.763 8.23558 17.3048 8.23549ZM9.42472 19.5943C9.74594 17.8994 10.6959 14.4617 11.147 12.7052H12.2268L9.93047 20.8177H8.84379C8.47473 19.1569 7.47691 15.5073 7.29238 13.9833C7.0395 15.5415 5.92549 19.1911 5.51542 20.8519H4.43558L2.38525 12.7394H3.45143C3.84099 14.448 4.72946 18.0429 5.00968 19.6353C5.28989 18.0156 6.32872 14.4617 6.75929 12.7394H7.83913C8.23553 14.4822 9.15818 17.9404 9.39055 19.6285L9.42472 19.5943ZM28.1169 21.6447C27.2613 21.6447 26.4248 21.3909 25.7134 20.9156C25.002 20.4402 24.4475 19.7645 24.12 18.974C23.7926 18.1835 23.7069 17.3137 23.8738 16.4745C24.0408 15.6353 24.4528 14.8644 25.0578 14.2594C25.6628 13.6543 26.4337 13.2423 27.2729 13.0754C28.1121 12.9085 28.982 12.9941 29.7725 13.3216C30.563 13.649 31.2386 14.2035 31.714 14.9149C32.1894 15.6264 32.4431 16.4628 32.4431 17.3185C32.4707 18.4353 32.0547 19.5175 31.2861 20.3283C30.5176 21.1392 29.4591 21.6125 28.3424 21.6447H28.1169ZM17.3048 21.6447C16.7361 21.7164 16.1589 21.6745 15.6065 21.5212C15.0542 21.368 14.5378 21.1065 14.0874 20.752C13.637 20.3975 13.2615 19.957 12.9828 19.4561C12.7041 18.9553 12.5277 18.404 12.4638 17.8344C12.4 17.2647 12.45 16.6881 12.6109 16.138C12.7718 15.5878 13.0405 15.0751 13.4012 14.6297C13.762 14.1843 14.2076 13.815 14.7123 13.5433C15.217 13.2715 15.7707 13.1028 16.3412 13.0469C16.6615 13.0128 16.9845 13.0128 17.3048 13.0469C17.8735 12.9752 18.4508 13.0171 19.0031 13.1704C19.5554 13.3236 20.0718 13.5851 20.5222 13.9396C20.9727 14.2941 21.3481 14.7346 21.6268 15.2354C21.9056 15.7363 22.082 16.2876 22.1458 16.8572C22.2097 17.4268 22.1597 18.0035 21.9988 18.5536C21.8378 19.1038 21.5692 19.6164 21.2084 20.0619C20.8477 20.5073 20.402 20.8766 19.8973 21.1483C19.3926 21.42 18.8389 21.5887 18.2685 21.6447C17.9477 21.6743 17.6246 21.6697 17.3048 21.631V21.6447ZM28.1169 32.4499C27.2613 32.4499 26.4248 32.1962 25.7134 31.7208C25.002 31.2454 24.4475 30.5698 24.12 29.7793C23.7926 28.9887 23.7069 28.1189 23.8738 27.2797C24.0408 26.4405 24.4528 25.6696 25.0578 25.0646C25.6628 24.4596 26.4337 24.0476 27.2729 23.8806C28.1121 23.7137 28.982 23.7994 29.7725 24.1268C30.563 24.4542 31.2386 25.0087 31.714 25.7202C32.1894 26.4316 32.4431 27.2681 32.4431 28.1237C32.4689 29.24 32.0523 30.3212 31.2841 31.1317C30.5159 31.9421 29.4585 32.4159 28.3424 32.4499H28.1169ZM17.3048 29.8665C16.9582 29.8678 16.619 29.7662 16.3302 29.5745C16.0415 29.3827 15.8161 29.1095 15.6829 28.7896C15.5496 28.4696 15.5144 28.1172 15.5817 27.7772C15.649 27.4372 15.8157 27.1248 16.0608 26.8797C16.3059 26.6346 16.6183 26.4678 16.9583 26.4005C17.2984 26.3333 17.6507 26.3685 17.9707 26.5017C18.2907 26.635 18.5639 26.8603 18.7556 27.1491C18.9473 27.4379 19.049 27.7771 19.0476 28.1237C19.0485 28.3528 19.004 28.5798 18.9168 28.7917C18.8295 29.0035 18.7012 29.196 18.5392 29.358C18.3772 29.5201 18.1847 29.6484 17.9728 29.7357C17.761 29.8229 17.5339 29.8674 17.3048 29.8665Z" fill="#C9FA49"/>
</svg>
