<svg width="153" height="35" viewBox="0 0 153 35" fill="none" xmlns="http://www.w3.org/2000/svg">
<g id="Group 31">
<g id="Layer 2">
<g id="Layer 1">
<g id="Writio">
<path id="Vector" d="M142.265 32.2292C135.037 32.2292 131.487 27.2679 131.487 20.8096C131.487 14.4369 135.037 9.47559 142.265 9.47559C149.45 9.47559 153 14.4797 153 20.8096C153 27.2251 149.45 32.2292 142.265 32.2292ZM134.951 20.8524C134.951 26.8402 137.432 29.4491 142.265 29.4491C147.098 29.4491 149.536 26.8402 149.536 20.8524C149.536 14.8218 147.098 12.2556 142.265 12.2556C137.432 12.2556 134.951 14.8218 134.951 20.8524Z" fill="white"/>
<path id="Vector_2" d="M127.093 6.65268H122.688V3.10278H127.093V6.65268ZM126.58 31.5448H123.158V10.1598H126.58V31.5448Z" fill="white"/>
<path id="Vector_3" d="M118.553 31.545H113.506C109.4 31.545 108.331 29.9625 108.331 26.5409V12.8546H104.268V10.9299L108.631 9.86066L109.914 5.4126H111.753V10.1601H118.81V12.8546H111.753V28.765H118.553V31.545Z" fill="white"/>
<path id="Vector_4" d="M101.323 6.65268H96.9174V3.10278H101.323V6.65268ZM100.809 31.5448H97.3878V10.1598H100.809V31.5448Z" fill="white"/>
<path id="Vector_5" d="M92.9735 9.8606H93.7433V13.2394H92.8451C86.5152 13.0256 85.1466 17.6447 85.1466 23.6753V31.5449H81.725V10.16H85.1466V15.9339C86.4297 12.1702 88.9103 9.8606 92.9735 9.8606Z" fill="white"/>
<path id="Vector_6" d="M68.8061 29.278L74.7939 3.10278H78.3438L71.8428 31.5448H65.855L59.0973 5.79728L52.2969 31.5448H46.3091L39.8081 3.10278H43.4008L49.3886 29.278L56.3173 3.10278H61.8774L68.8061 29.278Z" fill="white"/>
</g>
<path id="Vector_7" d="M5.81608 34.3428C4.34543 34.341 2.93563 33.7555 1.89636 32.715C0.857098 31.6745 0.273352 30.2639 0.273353 28.7933V5.83642C0.270654 5.10682 0.412029 4.38386 0.689369 3.70902C0.966708 3.03417 1.37455 2.42073 1.88951 1.90386C2.40447 1.387 3.01641 0.97689 3.69022 0.697061C4.36404 0.417232 5.08647 0.273188 5.81608 0.273193H28.7934C29.5231 0.273188 30.2455 0.417232 30.9193 0.697061C31.5931 0.97689 32.2051 1.387 32.72 1.90386C33.235 2.42073 33.6428 3.03417 33.9202 3.70902C34.1975 4.38386 34.3389 5.10682 34.3362 5.83642V28.7933C34.3362 30.2639 33.7524 31.6745 32.7132 32.715C31.6739 33.7555 30.2641 34.341 28.7934 34.3428H5.81608ZM28.1168 23.5513C27.2137 23.5567 26.3324 23.8294 25.5841 24.3351C24.8358 24.8408 24.2541 25.5567 23.9122 26.3926C23.5703 27.2286 23.4837 28.147 23.6631 29.0321C23.8426 29.9173 24.2803 30.7294 24.9208 31.3661C25.5613 32.0028 26.376 32.4356 27.2622 32.6098C28.1484 32.784 29.0663 32.6919 29.9001 32.345C30.734 31.9982 31.4465 31.4121 31.9477 30.6608C32.4489 29.9095 32.7164 29.0266 32.7164 28.1235C32.7264 27.5324 32.6196 26.945 32.4024 26.3952C32.1851 25.8453 31.8615 25.3437 31.4502 24.919C31.0388 24.4943 30.5478 24.1549 30.0051 23.9203C29.4625 23.6856 28.8789 23.5602 28.2877 23.5513H28.1168ZM17.3048 26.1005C16.8971 26.0896 16.4954 26.2006 16.1512 26.4192C15.8069 26.6377 15.5356 26.954 15.372 27.3276C15.2084 27.7012 15.1599 28.115 15.2327 28.5163C15.3055 28.9175 15.4964 29.288 15.7808 29.5802C16.0653 29.8724 16.4304 30.0732 16.8295 30.1569C17.2287 30.2405 17.6437 30.2032 18.0216 30.0498C18.3994 29.8963 18.7229 29.6337 18.9507 29.2954C19.1785 28.9572 19.3003 28.5587 19.3004 28.1508C19.3086 27.8885 19.2648 27.6272 19.1715 27.3819C19.0782 27.1365 18.9373 26.9121 18.7569 26.7215C18.5764 26.5309 18.3601 26.3779 18.1202 26.2713C17.8804 26.1648 17.6218 26.1067 17.3594 26.1005H17.3048ZM28.1168 12.7324C27.2137 12.7378 26.3324 13.0105 25.5841 13.5162C24.8358 14.0219 24.2541 14.7378 23.9122 15.5737C23.5703 16.4097 23.4837 17.3281 23.6631 18.2132C23.8426 19.0984 24.2803 19.9105 24.9208 20.5472C25.5613 21.1839 26.376 21.6167 27.2622 21.7909C28.1484 21.9651 29.0663 21.873 29.9001 21.5261C30.734 21.1793 31.4465 20.5932 31.9477 19.8419C32.4489 19.0906 32.7164 18.2077 32.7164 17.3046C32.7347 16.1112 32.2785 14.9594 31.4482 14.1021C30.6178 13.2448 29.4811 12.7521 28.2877 12.7324H28.1168ZM17.3048 12.7324C16.0921 12.7324 14.9292 13.2141 14.0717 14.0715C13.2142 14.929 12.7325 16.092 12.7325 17.3046C12.7325 18.5172 13.2142 19.6802 14.0717 20.5377C14.9292 21.3951 16.0921 21.8768 17.3048 21.8768C18.5174 21.8768 19.6804 21.3951 20.5378 20.5377C21.3953 19.6802 21.877 18.5172 21.877 17.3046C21.877 16.092 21.3953 14.929 20.5378 14.0715C19.6804 13.2141 18.5174 12.7324 17.3048 12.7324ZM7.26498 15.2884C7.49052 16.4093 7.83907 17.7967 8.13295 18.9927C8.31065 19.7172 8.47467 20.3596 8.58403 20.8517L8.65237 21.0909H10.1696L12.6163 12.4385H10.9966L10.9351 12.6709C10.8189 13.1219 10.6754 13.696 10.5045 14.2906C10.1696 15.5618 9.77322 17.0654 9.48617 18.2751C9.2538 17.1269 8.91208 15.719 8.6182 14.523C8.44734 13.8395 8.28331 13.1561 8.16712 12.6572L8.10561 12.4658H6.56787L6.51319 12.6709C6.38334 13.2108 6.19197 13.9284 5.97327 14.7212C5.63838 15.9445 5.28983 17.2841 5.02328 18.3708C4.78408 17.1611 4.42185 15.678 4.10064 14.4205L3.71107 12.6709L3.66323 12.459H1.99563L4.18948 21.0909H5.70673L5.75457 20.8858C5.88442 20.3869 6.07579 19.7035 6.29449 18.9585C6.61571 17.7625 6.9916 16.3888 7.26498 15.2884ZM28.1168 1.92029C27.5271 1.90667 26.9405 2.00938 26.3905 2.22254C25.8405 2.4357 25.3379 2.75514 24.9114 3.16261C24.4849 3.57007 24.1429 4.05758 23.9048 4.59728C23.6668 5.13698 23.5374 5.71829 23.5241 6.308V6.51987C23.5699 7.70817 24.0742 8.83255 24.9312 9.65707C25.7881 10.4816 26.9311 10.9422 28.1203 10.9422C29.3094 10.9422 30.4524 10.4816 31.3094 9.65707C32.1663 8.83255 32.6706 7.70817 32.7164 6.51987C32.7264 5.92872 32.6196 5.34141 32.4024 4.79154C32.1851 4.24168 31.8615 3.74006 31.4502 3.31538C31.0388 2.8907 30.5478 2.55131 30.0051 2.31661C29.4625 2.08192 28.8789 1.95653 28.2877 1.94763L28.1168 1.92029ZM17.3048 4.46954C17.0445 4.46773 16.7864 4.51722 16.5452 4.61516C16.3041 4.71311 16.0846 4.85759 15.8993 5.04037C15.714 5.22314 15.5665 5.44063 15.4652 5.68041C15.3639 5.92019 15.3109 6.17757 15.3091 6.43785V6.51987C15.3091 7.04915 15.5194 7.55675 15.8936 7.93101C16.2679 8.30526 16.7755 8.51552 17.3048 8.51552C17.834 8.51552 18.3416 8.30526 18.7159 7.93101C19.0902 7.55675 19.3004 7.04915 19.3004 6.51987C19.3114 6.25798 19.2699 5.99654 19.1785 5.75089C19.0871 5.50524 18.9475 5.28032 18.768 5.08934C18.5885 4.89836 18.3726 4.74515 18.1331 4.63872C17.8935 4.53229 17.6352 4.47477 17.3731 4.46954H17.3048Z" fill="#C9FA49"/>
<path id="Vector_8" d="M28.7935 0.53992C30.1953 0.543541 31.5383 1.1034 32.5276 2.09652C33.5169 3.08965 34.0715 4.43483 34.0697 5.83661V28.7935C34.0679 30.1922 33.5114 31.5332 32.5223 32.5223C31.5332 33.5114 30.1923 34.0678 28.7935 34.0696H5.81614C4.41736 34.0678 3.0764 33.5114 2.08731 32.5223C1.09823 31.5332 0.541765 30.1922 0.539956 28.7935V5.83661C0.538141 4.43483 1.09279 3.08965 2.08207 2.09652C3.07135 1.1034 4.41437 0.543541 5.81614 0.53992H28.7935ZM28.1101 11.3588C29.0753 11.3588 30.0188 11.0721 30.8208 10.5352C31.6229 9.99818 32.2475 9.2351 32.6153 8.3427C32.9831 7.45029 33.0775 6.46875 32.8867 5.52257C32.6959 4.57639 32.2284 3.70819 31.5435 3.02808C30.8586 2.34796 29.9871 1.88658 29.0396 1.70243C28.0921 1.51828 27.1113 1.61967 26.2215 1.99374C25.3317 2.36781 24.573 2.9977 24.0417 3.80354C23.5104 4.60937 23.2303 5.55484 23.2371 6.52005C23.2389 7.81007 23.7522 9.04673 24.6644 9.95892C25.5765 10.8711 26.8132 11.3844 28.1032 11.3862M17.3048 8.77541C17.5983 8.77993 17.8898 8.72659 18.1627 8.61844C18.4356 8.51029 18.6845 8.34944 18.8952 8.14508C19.1059 7.94072 19.2743 7.69685 19.3907 7.42741C19.5072 7.15797 19.5694 6.86822 19.5739 6.57472V6.52005C19.5811 6.22654 19.5305 5.93448 19.4248 5.66054C19.3192 5.38661 19.1606 5.13618 18.9581 4.92356C18.7557 4.71094 18.5133 4.5403 18.2449 4.42138C17.9764 4.30246 17.6872 4.23761 17.3937 4.23051H17.3048C16.7167 4.2213 16.1487 4.4443 15.7239 4.85115C15.2992 5.25801 15.0519 5.81591 15.0358 6.40386V6.52005C15.0229 7.11165 15.2453 7.6842 15.654 8.11212C16.0627 8.54005 16.6244 8.78841 17.216 8.80275H17.3048M9.47256 17.0451C9.27436 16.1771 9.04883 15.2545 8.84379 14.4343C8.67293 13.7509 8.51574 13.0674 8.40639 12.5685L8.30387 12.1448H6.36289L6.25354 12.5549C6.12369 13.0948 5.92549 13.8192 5.71362 14.6052C5.50175 15.3911 5.25572 16.3275 5.03018 17.1408C4.81831 16.2454 4.58594 15.2408 4.34674 14.3523C4.18954 13.6689 4.03919 13.0606 3.93667 12.589L3.84099 12.1653H1.64713L1.818 12.8487L3.86833 20.9612L3.97084 21.3713H5.91182L6.02117 20.968C6.14419 20.4691 6.33556 19.7789 6.56109 19.0407C6.78663 18.3026 7.03267 17.3321 7.24454 16.4847C7.44957 17.3458 7.6751 18.2616 7.88014 19.0817L8.33121 20.9407L8.42006 21.3644H10.3542L10.4704 20.968L12.7668 12.8556L12.9855 12.1721H10.7438L10.6412 12.5822C10.5319 13.0333 10.3747 13.6005 10.2175 14.202C9.97831 15.0973 9.71177 16.1088 9.47256 17.0519M28.1169 22.1709C29.3777 22.1948 30.5969 21.72 31.5095 20.8497C32.422 19.9794 32.954 18.784 32.9898 17.5235V17.3048C32.9426 16.0449 32.4089 14.8523 31.5009 13.9776C30.5928 13.103 29.3811 12.6143 28.1203 12.6143C26.8595 12.6143 25.6478 13.103 24.7397 13.9776C23.8317 14.8523 23.298 16.0449 23.2508 17.3048C23.2287 18.5644 23.7043 19.7819 24.5744 20.693C25.4445 21.604 26.6389 22.1351 27.8982 22.1709H28.1169ZM17.3048 22.1709C18.5644 22.193 19.7819 21.7174 20.693 20.8473C21.6041 19.9771 22.1351 18.7828 22.1709 17.5235V17.3048C22.1712 16.0512 21.6793 14.8476 20.8013 13.9529C19.9232 13.0583 18.729 12.544 17.4757 12.5207H17.3048C16.0452 12.4986 14.8277 12.9742 13.9166 13.8443C13.0056 14.7144 12.4745 15.9088 12.4387 17.1681V17.339C12.4257 18.5927 12.9053 19.8015 13.7745 20.7051C14.6436 21.6088 15.8328 22.1351 17.0861 22.1709H17.3048ZM28.1169 32.9898C29.3777 33.0137 30.5969 32.5389 31.5095 31.6686C32.422 30.7983 32.954 29.6029 32.9898 28.3424V28.1237C33.0144 27.4689 32.9066 26.8158 32.6729 26.2036C32.4393 25.5914 32.0845 25.0326 31.6299 24.5607C31.1753 24.0887 30.6302 23.7133 30.0272 23.4569C29.4242 23.2004 28.7756 23.0683 28.1203 23.0683C27.465 23.0683 26.8165 23.2004 26.2134 23.4569C25.6104 23.7133 25.0653 24.0887 24.6107 24.5607C24.1561 25.0326 23.8014 25.5914 23.5677 26.2036C23.334 26.8158 23.2262 27.4689 23.2508 28.1237C23.2287 29.3833 23.7043 30.6008 24.5744 31.5119C25.4445 32.4229 26.6389 32.954 27.8982 32.9898H28.1169ZM17.3048 30.4406C17.6156 30.4576 17.9265 30.411 18.2186 30.3038C18.5108 30.1966 18.778 30.031 19.004 29.817C19.23 29.6031 19.4099 29.3453 19.533 29.0594C19.656 28.7736 19.7194 28.4656 19.7194 28.1544C19.7194 27.8433 19.656 27.5353 19.533 27.2495C19.4099 26.9636 19.23 26.7058 19.004 26.4919C18.778 26.2779 18.5108 26.1123 18.2186 26.0051C17.9265 25.8979 17.6156 25.8513 17.3048 25.8683C16.9941 25.8513 16.6832 25.8979 16.391 26.0051C16.0989 26.1123 15.8316 26.2779 15.6057 26.4919C15.3797 26.7058 15.1997 26.9636 15.0767 27.2495C14.9537 27.5353 14.8902 27.8433 14.8902 28.1544C14.8902 28.4656 14.9537 28.7736 15.0767 29.0594C15.1997 29.3453 15.3797 29.6031 15.6057 29.817C15.8316 30.031 16.0989 30.1966 16.391 30.3038C16.6832 30.411 16.9941 30.4576 17.3048 30.4406ZM28.7935 1.12293e-10H5.81614C5.05063 -4.75658e-06 4.29265 0.15111 3.58567 0.444678C2.87869 0.738245 2.23661 1.16849 1.69627 1.71074C1.15592 2.25299 0.72794 2.89657 0.436862 3.60458C0.145784 4.31259 -0.00266248 5.0711 3.61431e-05 5.83661V28.7935C3.61431e-05 30.336 0.612802 31.8153 1.70353 32.9061C2.79426 33.9968 4.27361 34.6096 5.81614 34.6096H28.7935C30.336 34.6096 31.8154 33.9968 32.9061 32.9061C33.9968 31.8153 34.6096 30.336 34.6096 28.7935V5.83661C34.6123 5.0711 34.4639 4.31259 34.1728 3.60458C33.8817 2.89657 33.4537 2.25299 32.9134 1.71074C32.373 1.16849 31.731 0.738245 31.024 0.444678C30.317 0.15111 29.559 -4.75658e-06 28.7935 1.12293e-10ZM28.1101 10.8189C27.2536 10.8175 26.4167 10.562 25.7056 10.0845C24.9945 9.60714 24.4411 8.92939 24.1155 8.13717C23.7899 7.34495 23.7069 6.47391 23.8768 5.63443C24.0467 4.79494 24.462 4.02479 25.07 3.42155C25.6781 2.81831 26.4515 2.40913 27.2923 2.24585C28.1331 2.08258 29.0034 2.17256 29.7931 2.50439C30.5827 2.83623 31.256 3.39498 31.7278 4.10986C32.1996 4.82473 32.4485 5.66356 32.4431 6.52005C32.4341 7.66213 31.9745 8.75446 31.1644 9.55949C30.3542 10.3645 29.259 10.8171 28.1169 10.8189H28.1101ZM17.3048 8.23549C16.9573 8.23543 16.6177 8.13189 16.3293 7.93809C16.0409 7.74428 15.8167 7.46899 15.6854 7.14729C15.554 6.8256 15.5214 6.47207 15.5917 6.13178C15.6621 5.79149 15.8321 5.47984 16.0803 5.23657C16.3284 4.9933 16.6433 4.82942 16.9849 4.76582C17.3265 4.70222 17.6793 4.74178 17.9984 4.87946C18.3174 5.01714 18.5883 5.2467 18.7763 5.53888C18.9644 5.83106 19.0612 6.17263 19.0544 6.52005C19.0455 6.97813 18.8572 7.41442 18.5301 7.73518C18.2029 8.05594 17.763 8.23558 17.3048 8.23549ZM9.42472 19.5943C9.74594 17.8994 10.6959 14.4617 11.147 12.7052H12.2268L9.93047 20.8177H8.84379C8.47473 19.1569 7.47691 15.5073 7.29238 13.9833C7.0395 15.5415 5.92549 19.1911 5.51542 20.8519H4.43558L2.38525 12.7394H3.45143C3.84099 14.448 4.72946 18.0429 5.00968 19.6353C5.28989 18.0156 6.32872 14.4617 6.75929 12.7394H7.83913C8.23553 14.4822 9.15818 17.9404 9.39055 19.6285L9.42472 19.5943ZM28.1169 21.6447C27.2613 21.6447 26.4248 21.3909 25.7134 20.9156C25.002 20.4402 24.4475 19.7645 24.12 18.974C23.7926 18.1835 23.7069 17.3137 23.8738 16.4745C24.0408 15.6353 24.4528 14.8644 25.0578 14.2594C25.6628 13.6543 26.4337 13.2423 27.2729 13.0754C28.1121 12.9085 28.982 12.9941 29.7725 13.3216C30.563 13.649 31.2386 14.2035 31.714 14.9149C32.1894 15.6264 32.4431 16.4628 32.4431 17.3185C32.4707 18.4353 32.0547 19.5175 31.2861 20.3283C30.5176 21.1392 29.4591 21.6125 28.3424 21.6447H28.1169ZM17.3048 21.6447C16.7361 21.7164 16.1589 21.6745 15.6065 21.5212C15.0542 21.368 14.5378 21.1065 14.0874 20.752C13.637 20.3975 13.2615 19.957 12.9828 19.4561C12.7041 18.9553 12.5277 18.404 12.4638 17.8344C12.4 17.2647 12.45 16.6881 12.6109 16.138C12.7718 15.5878 13.0405 15.0751 13.4012 14.6297C13.762 14.1843 14.2076 13.815 14.7123 13.5433C15.217 13.2715 15.7707 13.1028 16.3412 13.0469C16.6615 13.0128 16.9845 13.0128 17.3048 13.0469C17.8735 12.9752 18.4508 13.0171 19.0031 13.1704C19.5554 13.3236 20.0718 13.5851 20.5222 13.9396C20.9727 14.2941 21.3481 14.7346 21.6268 15.2354C21.9056 15.7363 22.082 16.2876 22.1458 16.8572C22.2097 17.4268 22.1597 18.0035 21.9988 18.5536C21.8378 19.1038 21.5692 19.6164 21.2084 20.0619C20.8477 20.5073 20.402 20.8766 19.8973 21.1483C19.3926 21.42 18.8389 21.5887 18.2685 21.6447C17.9477 21.6743 17.6246 21.6697 17.3048 21.631V21.6447ZM28.1169 32.4499C27.2613 32.4499 26.4248 32.1962 25.7134 31.7208C25.002 31.2454 24.4475 30.5698 24.12 29.7793C23.7926 28.9887 23.7069 28.1189 23.8738 27.2797C24.0408 26.4405 24.4528 25.6696 25.0578 25.0646C25.6628 24.4596 26.4337 24.0476 27.2729 23.8806C28.1121 23.7137 28.982 23.7994 29.7725 24.1268C30.563 24.4542 31.2386 25.0087 31.714 25.7202C32.1894 26.4316 32.4431 27.2681 32.4431 28.1237C32.4689 29.24 32.0523 30.3212 31.2841 31.1317C30.5159 31.9421 29.4585 32.4159 28.3424 32.4499H28.1169ZM17.3048 29.8665C16.9582 29.8678 16.619 29.7662 16.3302 29.5745C16.0415 29.3827 15.8161 29.1095 15.6829 28.7896C15.5496 28.4696 15.5144 28.1172 15.5817 27.7772C15.649 27.4372 15.8157 27.1248 16.0608 26.8797C16.3059 26.6346 16.6183 26.4678 16.9583 26.4005C17.2984 26.3333 17.6507 26.3685 17.9707 26.5017C18.2907 26.635 18.5639 26.8603 18.7556 27.1491C18.9473 27.4379 19.049 27.7771 19.0476 28.1237C19.0485 28.3528 19.004 28.5798 18.9168 28.7917C18.8295 29.0035 18.7012 29.196 18.5392 29.358C18.3772 29.5201 18.1847 29.6484 17.9728 29.7357C17.761 29.8229 17.5339 29.8674 17.3048 29.8665Z" fill="#C9FA49"/>
</g>
</g>
</g>
</svg>
