<svg width="166" height="36" viewBox="0 0 166 36" fill="none" xmlns="http://www.w3.org/2000/svg">
<mask id="path-1-outside-1_21_630" maskUnits="userSpaceOnUse" x="38.133" y="2.68749" width="127.795" height="29.417" fill="black">
<rect fill="white" x="38.133" y="2.68749" width="127.795" height="29.417"/>
<path d="M46.1462 25.6029L46.0295 22.2604L58.9176 21.8104L59.0343 25.1529L46.1462 25.6029ZM41.4464 30.018L49.9202 10.2157L54.2564 10.0643L64.1812 29.2241L59.8149 29.3766L51.192 12.1009L53.1192 12.0336L45.7826 29.8666L41.4464 30.018ZM66.9054 9.62259L70.9103 9.48274L71.5907 28.9654L67.5857 29.1052L66.9054 9.62259ZM106.53 20.7206C106.404 22.2927 105.898 23.647 105.013 24.7833C104.129 25.9197 102.903 26.8067 101.338 27.4442C99.7721 28.0818 97.8953 28.4387 95.7071 28.5152C93.8803 28.5789 92.1967 28.4267 90.6563 28.0584C89.1359 27.6894 87.809 27.1026 86.6754 26.298C85.562 25.4927 84.6824 24.4783 84.0366 23.2547C83.3902 22.011 83.0376 20.546 82.9787 18.8597C82.9198 17.1734 83.1694 15.6874 83.7275 14.4017C84.2856 13.1159 85.0919 12.0326 86.1465 11.1516C87.2205 10.2498 88.5029 9.56182 89.9938 9.08767C91.5041 8.59274 93.1726 8.31338 94.9994 8.24959C97.1876 8.17318 99.0851 8.4084 100.692 8.95527C102.319 9.50143 103.614 10.3205 104.577 11.4124C105.539 12.4843 106.128 13.8104 106.344 15.3907L102.369 15.5295C102.078 14.6955 101.612 13.9882 100.968 13.4077C100.344 12.8064 99.5448 12.362 98.57 12.0744C97.5952 11.7869 96.4453 11.6662 95.1204 11.7125C93.4742 11.77 92.0379 12.0814 90.8115 12.6468C89.5844 13.1922 88.6471 13.9786 87.9996 15.0062C87.3514 16.0137 87.0529 17.2502 87.1041 18.7157C87.1546 20.1611 87.5382 21.3637 88.2551 22.3235C88.972 23.2833 89.9619 24.0025 91.2248 24.481C92.4869 24.9394 93.9411 25.1398 95.5872 25.0824C96.9122 25.0361 98.0408 24.8359 98.9731 24.4817C99.9255 24.1269 100.692 23.6378 101.273 23.0145C101.875 22.3906 102.302 21.6722 102.555 20.8594L106.53 20.7206ZM123.841 27.1407L123.554 18.9201C123.526 18.097 123.361 17.4194 123.061 16.8872C122.761 16.355 122.295 15.9592 121.663 15.6999C121.051 15.4399 120.233 15.3277 119.209 15.3635C118.226 15.3978 117.339 15.6198 116.549 16.0292C115.759 16.4186 115.123 16.9232 114.642 17.543C114.161 18.1427 113.902 18.7748 113.864 19.4394L113.777 17.7842C113.854 17.1183 114.061 16.4477 114.4 15.7726C114.738 15.0976 115.199 14.4785 115.782 13.9154C116.365 13.3524 117.073 12.8955 117.905 12.5449C118.756 12.1735 119.714 11.9692 120.778 11.932C121.701 11.8998 122.559 11.9904 123.35 12.204C124.141 12.3975 124.835 12.725 125.434 13.1864C126.033 13.6479 126.506 14.2344 126.853 14.9458C127.198 15.6372 127.388 16.4647 127.422 17.4283L127.756 27.004L123.841 27.1407ZM110.441 27.6087L109.708 6.62042L113.623 6.48372L114.356 27.472L110.441 27.6087ZM138.612 26.9566C137.127 27.0084 135.761 26.7346 134.514 26.1349C133.286 25.5145 132.29 24.6348 131.527 23.4957C130.783 22.3358 130.384 20.983 130.33 19.4372C130.275 17.8513 130.588 16.4635 131.27 15.274C131.952 14.0844 132.894 13.147 134.096 12.4619C135.318 11.7559 136.712 11.3756 138.277 11.3209C140.004 11.2606 141.401 11.5636 142.47 12.2298C143.558 12.8751 144.363 13.7816 144.886 14.9492C145.409 16.1168 145.697 17.4333 145.748 18.8988C145.779 19.7821 145.67 20.6904 145.421 21.6236C145.171 22.5368 144.769 23.395 144.214 24.1983C143.659 24.9815 142.918 25.6304 141.991 26.1452C141.064 26.6398 139.937 26.9103 138.612 26.9566ZM139.772 23.9012C140.956 23.8598 141.973 23.6233 142.822 23.1917C143.672 22.76 144.314 22.1748 144.751 21.436C145.187 20.6972 145.389 19.856 145.356 18.9125C145.32 17.8887 145.049 17.0339 144.543 16.3481C144.056 15.6415 143.375 15.1226 142.499 14.7914C141.642 14.4394 140.622 14.2841 139.438 14.3255C137.771 14.3837 136.492 14.8705 135.599 15.7861C134.706 16.6815 134.285 17.852 134.335 19.2973C134.369 20.2609 134.619 21.0964 135.086 21.8036C135.552 22.4908 136.184 23.0215 136.981 23.3957C137.798 23.7691 138.728 23.9376 139.772 23.9012ZM145.094 11.4145L149.009 11.2778L149.532 26.2436L145.888 26.3709C145.888 26.3709 145.851 26.1812 145.778 25.8019C145.724 25.4018 145.666 24.9013 145.605 24.3005C145.544 23.6996 145.503 23.1081 145.482 22.526L145.094 11.4145ZM151.498 11.1909L163.121 10.785L163.228 13.8263L151.604 14.2322L151.498 11.1909ZM155.209 6.96104L159.124 6.82434L159.79 25.8854L155.875 26.0221L155.209 6.96104Z"/>
</mask>
<path d="M46.1462 25.6029L44.8915 25.6467L44.9354 26.9014L46.19 26.8576L46.1462 25.6029ZM46.0295 22.2604L45.9857 21.0058L44.731 21.0496L44.7748 22.3043L46.0295 22.2604ZM58.9176 21.8104L60.1722 21.7666L60.1284 20.5119L58.8737 20.5557L58.9176 21.8104ZM59.0343 25.1529L59.0781 26.4075L60.3328 26.3637L60.289 25.109L59.0343 25.1529ZM41.4464 30.018L40.2922 29.5241L39.5144 31.3417L41.4902 31.2727L41.4464 30.018ZM49.9202 10.2157L49.8764 8.96105L49.0796 8.98887L48.766 9.72182L49.9202 10.2157ZM54.2564 10.0643L55.3711 9.48686L55.006 8.78192L54.2125 8.80963L54.2564 10.0643ZM64.1812 29.2241L64.225 30.4788L66.2091 30.4095L65.2959 28.6467L64.1812 29.2241ZM59.8149 29.3766L58.6916 29.9373L59.0521 30.6594L59.8587 30.6313L59.8149 29.3766ZM51.192 12.1009L51.1482 10.8462L49.1966 10.9143L50.0687 12.6615L51.192 12.1009ZM53.1192 12.0336L54.2802 12.5112L55.0208 10.7109L53.0754 10.7789L53.1192 12.0336ZM45.7826 29.8666L45.8264 31.1213L46.6356 31.093L46.9436 30.3443L45.7826 29.8666ZM47.4009 25.5591L47.2842 22.2166L44.7748 22.3043L44.8915 25.6467L47.4009 25.5591ZM46.0733 23.5151L58.9614 23.0651L58.8737 20.5557L45.9857 21.0058L46.0733 23.5151ZM57.6629 21.8542L57.7796 25.1967L60.289 25.109L60.1722 21.7666L57.6629 21.8542ZM58.9905 23.8982L46.1024 24.3482L46.19 26.8576L59.0781 26.4075L58.9905 23.8982ZM42.6006 30.5119L51.0744 10.7096L48.766 9.72182L40.2922 29.5241L42.6006 30.5119ZM49.964 11.4704L54.3002 11.319L54.2125 8.80963L49.8764 8.96105L49.964 11.4704ZM53.1416 10.6418L63.0664 29.8016L65.2959 28.6467L55.3711 9.48686L53.1416 10.6418ZM64.1374 27.9694L59.7711 28.1219L59.8587 30.6313L64.225 30.4788L64.1374 27.9694ZM60.9382 28.8159L52.3153 11.5402L50.0687 12.6615L58.6916 29.9373L60.9382 28.8159ZM51.2358 13.3555L53.163 13.2882L53.0754 10.7789L51.1482 10.8462L51.2358 13.3555ZM51.9581 11.5559L44.6215 29.389L46.9436 30.3443L54.2802 12.5112L51.9581 11.5559ZM45.7388 28.6119L41.4026 28.7634L41.4902 31.2727L45.8264 31.1213L45.7388 28.6119ZM66.9054 9.62259L66.8616 8.36791L65.6069 8.41173L65.6507 9.66641L66.9054 9.62259ZM70.9103 9.48274L72.165 9.43892L72.1212 8.18424L70.8665 8.22806L70.9103 9.48274ZM71.5907 28.9654L71.6345 30.2201L72.8892 30.1762L72.8454 28.9216L71.5907 28.9654ZM67.5857 29.1052L66.3311 29.1491L66.3749 30.4037L67.6296 30.3599L67.5857 29.1052ZM66.9492 10.8773L70.9541 10.7374L70.8665 8.22806L66.8616 8.36791L66.9492 10.8773ZM69.6557 9.52655L70.336 29.0092L72.8454 28.9216L72.165 9.43892L69.6557 9.52655ZM71.5469 27.7107L67.5419 27.8506L67.6296 30.3599L71.6345 30.2201L71.5469 27.7107ZM68.8404 29.0614L68.1601 9.57878L65.6507 9.66641L66.3311 29.1491L68.8404 29.0614ZM106.53 20.7206L107.781 20.8209L107.894 19.4167L106.486 19.4659L106.53 20.7206ZM90.6563 28.0584L90.3602 29.2784L90.3643 29.2794L90.6563 28.0584ZM86.6754 26.298L85.9397 27.3154L85.9488 27.3218L86.6754 26.298ZM84.0366 23.2547L82.9227 23.8337L82.9263 23.8406L84.0366 23.2547ZM86.1465 11.1516L86.9514 12.115L86.9538 12.113L86.1465 11.1516ZM89.9938 9.08767L90.3743 10.2841L90.3848 10.2807L89.9938 9.08767ZM100.692 8.95527L100.288 10.1438L100.293 10.1454L100.692 8.95527ZM104.577 11.4124L103.635 12.2427L103.642 12.251L104.577 11.4124ZM106.344 15.3907L106.387 16.6454L107.776 16.5969L107.588 15.2207L106.344 15.3907ZM102.369 15.5295L101.183 15.9423L101.488 16.8165L102.413 16.7842L102.369 15.5295ZM100.968 13.4077L100.097 14.3117L100.112 14.326L100.127 14.3398L100.968 13.4077ZM98.57 12.0744L98.9252 10.8703L98.9252 10.8703L98.57 12.0744ZM90.8115 12.6468L91.3214 13.7941L91.3293 13.7906L91.3371 13.787L90.8115 12.6468ZM87.9996 15.0062L89.0555 15.6855L89.0618 15.6755L87.9996 15.0062ZM88.2551 22.3235L87.2493 23.0748L88.2551 22.3235ZM91.2248 24.481L90.78 25.655L90.7881 25.658L90.7962 25.661L91.2248 24.481ZM98.9731 24.4817L98.5348 23.3053L98.5273 23.3081L98.9731 24.4817ZM101.273 23.0145L100.369 22.1434L100.362 22.1508L100.355 22.1583L101.273 23.0145ZM102.555 20.8594L102.511 19.6047L101.621 19.6358L101.356 20.4862L102.555 20.8594ZM105.278 20.6203C105.17 21.9723 104.743 23.0873 104.023 24.012L106.004 25.5547C107.054 24.2066 107.638 22.6132 107.781 20.8209L105.278 20.6203ZM104.023 24.012C103.295 24.9468 102.262 25.7123 100.864 26.2815L101.811 28.6069C103.545 27.901 104.962 26.8926 106.004 25.5547L104.023 24.012ZM100.864 26.2815C99.469 26.8496 97.7453 27.1878 95.6633 27.2605L95.7509 29.7698C98.0453 29.6897 100.075 29.3139 101.811 28.6069L100.864 26.2815ZM95.6633 27.2605C93.9324 27.3209 92.3634 27.1757 90.9482 26.8374L90.3643 29.2794C92.03 29.6777 93.8282 29.837 95.7509 29.7698L95.6633 27.2605ZM90.9524 26.8384C89.5674 26.5022 88.3906 25.9759 87.4021 25.2743L85.9488 27.3218C87.2274 28.2293 88.7045 28.8766 90.3602 29.2784L90.9524 26.8384ZM87.4112 25.2807C86.4551 24.5893 85.7033 23.7229 85.147 22.6688L82.9263 23.8406C83.6615 25.2337 84.6688 26.3961 85.9397 27.3153L87.4112 25.2807ZM85.1506 22.6757C84.6061 21.6281 84.2871 20.353 84.2334 18.8159L81.724 18.9035C81.7881 20.739 82.1744 22.3939 82.9227 23.8337L85.1506 22.6757ZM84.2334 18.8159C84.1797 17.2788 84.409 15.9846 84.8791 14.9015L82.5759 13.9018C81.9298 15.3902 81.6599 17.0681 81.724 18.9035L84.2334 18.8159ZM84.8791 14.9015C85.3609 13.7915 86.05 12.8681 86.9514 12.115L85.3416 10.1881C84.1338 11.1971 83.2102 12.4403 82.5759 13.9018L84.8791 14.9015ZM86.9538 12.113C87.8885 11.3282 89.0216 10.7143 90.3743 10.2841L89.6133 7.89127C87.9842 8.40937 86.5525 9.17135 85.3392 10.1901L86.9538 12.113ZM90.3848 10.2807C91.7674 9.82757 93.3172 9.56454 95.0432 9.50427L94.9556 6.99491C93.0281 7.06222 91.2407 7.35791 89.6028 7.89465L90.3848 10.2807ZM95.0432 9.50427C97.1212 9.4317 98.8599 9.6579 100.288 10.1438L101.097 7.76676C99.3104 7.15891 97.254 6.91465 94.9556 6.99491L95.0432 9.50427ZM100.293 10.1454C101.748 10.634 102.842 11.3438 103.635 12.2427L105.518 10.5822C104.385 9.29722 102.89 8.36883 101.092 7.76509L100.293 10.1454ZM103.642 12.251C104.419 13.1161 104.914 14.2013 105.1 15.5607L107.588 15.2207C107.341 13.4194 106.659 11.8525 105.511 10.5739L103.642 12.251ZM106.3 14.136L102.325 14.2748L102.413 16.7842L106.387 16.6454L106.3 14.136ZM103.554 15.1167C103.196 14.0873 102.612 13.2003 101.809 12.4756L100.127 14.3398C100.611 14.7761 100.961 15.3036 101.183 15.9423L103.554 15.1167ZM101.839 12.5037C101.047 11.74 100.06 11.2051 98.9252 10.8703L98.2148 13.2786C99.0294 13.5189 99.6416 13.8728 100.097 14.3117L101.839 12.5037ZM98.9252 10.8703C97.7884 10.5349 96.4976 10.4082 95.0765 10.4578L95.1642 12.9672C96.393 12.9243 97.402 13.0388 98.2148 13.2786L98.9252 10.8703ZM95.0765 10.4578C93.2994 10.5199 91.6931 10.858 90.2859 11.5067L91.3371 13.787C92.3828 13.3049 93.649 13.0201 95.1642 12.9672L95.0765 10.4578ZM90.3017 11.4996C88.8721 12.1349 87.7315 13.0768 86.9374 14.3369L89.0618 15.6755C89.5627 14.8805 90.2967 14.2495 91.3214 13.7941L90.3017 11.4996ZM86.9438 14.3269C86.1288 15.5937 85.7913 17.0964 85.8494 18.7595L88.3588 18.6718C88.3145 17.404 88.574 16.4337 89.0554 15.6855L86.9438 14.3269ZM85.8494 18.7595C85.9069 20.4066 86.3499 21.8706 87.2493 23.0748L89.261 21.5722C88.7266 20.8567 88.4022 19.9155 88.3588 18.6718L85.8494 18.7595ZM87.2493 23.0748C88.1268 24.2496 89.3229 25.1029 90.78 25.655L91.6696 23.307C90.6009 22.902 89.8173 22.317 89.261 21.5722L87.2493 23.0748ZM90.7962 25.661C92.2396 26.1852 93.8595 26.3989 95.6311 26.337L95.5434 23.8277C94.0227 23.8808 92.7343 23.6935 91.6534 23.3009L90.7962 25.661ZM95.6311 26.337C97.051 26.2874 98.3235 26.0715 99.4189 25.6554L98.5273 23.3081C97.7581 23.6003 96.7733 23.7847 95.5434 23.8277L95.6311 26.337ZM99.4114 25.6582C100.512 25.2483 101.454 24.6615 102.192 23.8708L100.355 22.1583C99.9303 22.6141 99.3394 23.0055 98.5348 23.3053L99.4114 25.6582ZM102.178 23.8857C102.912 23.1235 103.441 22.2354 103.754 21.2325L101.356 20.4862C101.162 21.1089 100.838 21.6576 100.369 22.1434L102.178 23.8857ZM102.599 22.114L106.574 21.9752L106.486 19.4659L102.511 19.6047L102.599 22.114ZM123.841 27.1407L122.587 27.1846L122.631 28.4392L123.885 28.3954L123.841 27.1407ZM123.061 16.8872L121.968 17.5036L121.968 17.5036L123.061 16.8872ZM121.663 15.6999L121.172 16.8554L121.179 16.8584L121.187 16.8614L121.663 15.6999ZM116.549 16.0292L117.104 17.1554L117.116 17.1497L117.127 17.1437L116.549 16.0292ZM114.642 17.543L115.621 18.329L115.628 18.3208L115.634 18.3125L114.642 17.543ZM113.864 19.4394L112.611 19.506L115.118 19.5093L113.864 19.4394ZM113.777 17.7842L112.529 17.6396L112.517 17.745L112.523 17.8509L113.777 17.7842ZM114.4 15.7726L115.522 16.335L115.522 16.335L114.4 15.7726ZM115.782 13.9154L116.654 14.8187L116.654 14.8187L115.782 13.9154ZM117.905 12.5449L118.392 13.7018L118.4 13.6987L118.407 13.6956L117.905 12.5449ZM123.35 12.204L123.023 13.4161L123.037 13.4199L123.051 13.4235L123.35 12.204ZM125.434 13.1864L124.668 14.181L125.434 13.1864ZM126.852 14.9458L125.724 15.4955L125.73 15.5073L126.852 14.9458ZM127.756 27.004L127.8 28.2587L129.054 28.2149L129.011 26.9602L127.756 27.004ZM110.441 27.6087L109.187 27.6525L109.231 28.9072L110.485 28.8634L110.441 27.6087ZM109.708 6.62042L109.665 5.36575L108.41 5.40956L108.454 6.66424L109.708 6.62042ZM113.623 6.48372L114.878 6.43991L114.834 5.18523L113.579 5.22905L113.623 6.48372ZM114.356 27.472L114.4 28.7267L115.654 28.6828L115.611 27.4282L114.356 27.472ZM125.096 27.0969L124.809 18.8763L122.3 18.9639L122.587 27.1846L125.096 27.0969ZM124.809 18.8763C124.776 17.919 124.582 17.0284 124.155 16.2707L121.968 17.5036C122.14 17.8104 122.276 18.275 122.3 18.9639L124.809 18.8763ZM124.155 16.2707C123.7 15.4635 123 14.8914 122.14 14.5384L121.187 16.8614C121.59 17.027 121.823 17.2464 121.968 17.5036L124.155 16.2707ZM122.154 14.5444C121.307 14.1844 120.283 14.0698 119.165 14.1088L119.253 16.6182C120.183 16.5857 120.795 16.6954 121.172 16.8554L122.154 14.5444ZM119.165 14.1088C118.016 14.149 116.943 14.4107 115.971 14.9147L117.127 17.1437C117.734 16.8288 118.436 16.6467 119.253 16.6182L119.165 14.1088ZM115.994 14.903C115.054 15.3661 114.262 15.9855 113.65 16.7734L115.634 18.3125C115.985 17.8609 116.463 17.4711 117.104 17.1554L115.994 14.903ZM113.663 16.7569C113.044 17.528 112.665 18.4042 112.611 19.3694L115.118 19.5093C115.138 19.1454 115.277 18.7573 115.621 18.329L113.663 16.7569ZM115.118 19.3728L115.03 17.7176L112.523 17.8509L112.611 19.506L115.118 19.3728ZM115.024 17.9289C115.082 17.4255 115.241 16.8955 115.522 16.335L113.277 15.2103C112.882 15.9999 112.626 16.811 112.529 17.6396L115.024 17.9289ZM115.522 16.335C115.792 15.796 116.165 15.2904 116.654 14.8187L114.91 13.0121C114.232 13.6666 113.684 14.3991 113.277 15.2103L115.522 16.335ZM116.654 14.8187C117.114 14.3747 117.687 13.9991 118.392 13.7018L117.417 11.388C116.459 11.792 115.617 12.3301 114.91 13.0121L116.654 14.8187ZM118.407 13.6956C119.094 13.3959 119.893 13.2192 120.822 13.1867L120.734 10.6774C119.535 10.7192 118.419 10.9511 117.403 11.3942L118.407 13.6956ZM120.822 13.1867C121.636 13.1583 122.367 13.239 123.023 13.4161L123.677 10.9919C122.751 10.7419 121.767 10.6413 120.734 10.6774L120.822 13.1867ZM123.051 13.4235C123.685 13.5786 124.218 13.8342 124.668 14.181L126.201 12.1919C125.453 11.6157 124.596 11.2164 123.648 10.9845L123.051 13.4235ZM124.668 14.181C125.106 14.5186 125.458 14.9499 125.724 15.4955L127.981 14.3962C127.554 13.5188 126.96 12.7772 126.201 12.1919L124.668 14.181ZM125.73 15.5073C125.977 16.003 126.138 16.6453 126.167 17.4722L128.676 17.3845C128.638 16.2842 128.419 15.2715 127.975 14.3844L125.73 15.5073ZM126.167 17.4722L126.501 27.0479L129.011 26.9602L128.676 17.3845L126.167 17.4722ZM127.712 25.7494L123.798 25.8861L123.885 28.3954L127.8 28.2587L127.712 25.7494ZM111.696 27.5649L110.963 6.57661L108.454 6.66424L109.187 27.6525L111.696 27.5649ZM109.752 7.8751L113.667 7.7384L113.579 5.22905L109.665 5.36575L109.752 7.8751ZM112.368 6.52754L113.101 27.5158L115.611 27.4282L114.878 6.43991L112.368 6.52754ZM114.312 26.2173L110.398 26.354L110.485 28.8634L114.4 28.7267L114.312 26.2173ZM134.514 26.1349L133.947 27.2554L133.958 27.261L133.97 27.2664L134.514 26.1349ZM131.527 23.4957L130.47 24.1735L130.477 24.1841L130.484 24.1946L131.527 23.4957ZM131.27 15.274L132.359 15.8984L131.27 15.274ZM134.096 12.4619L134.718 13.5526L134.725 13.5488L134.096 12.4619ZM142.47 12.2298L141.806 13.2951L141.817 13.3024L141.829 13.3095L142.47 12.2298ZM144.886 14.9492L146.032 14.4359L146.032 14.4359L144.886 14.9492ZM145.421 21.6236L146.632 21.9545L146.634 21.947L145.421 21.6236ZM144.214 24.1983L145.238 24.9246L145.243 24.9182L145.247 24.9118L144.214 24.1983ZM141.991 26.1452L142.582 27.2529L142.591 27.2478L142.601 27.2427L141.991 26.1452ZM142.822 23.1917L142.254 22.0725L142.254 22.0725L142.822 23.1917ZM144.751 21.436L145.832 22.0746L144.751 21.436ZM144.543 16.3481L143.509 17.0605L143.521 17.0773L143.533 17.0937L144.543 16.3481ZM142.499 14.7914L142.022 15.9526L142.038 15.9594L142.055 15.9657L142.499 14.7914ZM135.599 15.7861L136.488 16.6727L136.493 16.6676L136.498 16.6625L135.599 15.7861ZM135.086 21.8036L134.038 22.4953L134.043 22.5019L134.047 22.5084L135.086 21.8036ZM136.981 23.3957L136.447 24.5322L136.459 24.5375L136.981 23.3957ZM145.094 11.4145L145.051 10.1598L143.796 10.2037L143.84 11.4583L145.094 11.4145ZM149.009 11.2778L150.264 11.234L150.22 9.97933L148.965 10.0231L149.009 11.2778ZM149.532 26.2436L149.575 27.4983L150.83 27.4545L150.786 26.1998L149.532 26.2436ZM145.888 26.3709L144.656 26.6098L144.86 27.663L145.932 27.6255L145.888 26.3709ZM145.778 25.8019L144.534 25.9703L144.538 26.0057L144.545 26.0408L145.778 25.8019ZM145.605 24.3005L144.356 24.4276L144.356 24.4277L145.605 24.3005ZM138.569 25.7019C137.271 25.7472 136.108 25.5086 135.058 25.0035L133.97 27.2664C135.413 27.9605 136.983 28.2697 138.656 28.2112L138.569 25.7019ZM135.08 25.0145C134.044 24.491 133.213 23.7562 132.57 22.7968L130.484 24.1946C131.368 25.5134 132.528 26.5381 133.947 27.2554L135.08 25.0145ZM132.584 22.8178C131.976 21.8701 131.632 20.7421 131.585 19.3934L129.076 19.481C129.136 21.2238 129.59 22.8014 130.47 24.1735L132.584 22.8178ZM131.585 19.3934C131.536 18.0038 131.811 16.8548 132.359 15.8984L130.181 14.6495C129.365 16.0723 129.013 17.6987 129.076 19.481L131.585 19.3934ZM132.359 15.8984C132.929 14.905 133.709 14.1279 134.718 13.5526L133.475 11.3711C132.08 12.1662 130.976 13.2637 130.181 14.6495L132.359 15.8984ZM134.725 13.5488C135.749 12.9568 136.938 12.6239 138.321 12.5756L138.234 10.0663C136.485 10.1273 134.887 10.555 133.468 11.3749L134.725 13.5488ZM138.321 12.5756C139.888 12.5209 141.014 12.8019 141.806 13.2951L143.134 11.1644C141.788 10.3253 140.119 10.0004 138.234 10.0663L138.321 12.5756ZM141.829 13.3095C142.691 13.8211 143.322 14.5284 143.741 15.4626L146.032 14.4359C145.404 13.0348 144.424 11.9292 143.11 11.15L141.829 13.3095ZM143.741 15.4626C144.188 16.4621 144.447 17.6158 144.493 18.9426L147.002 18.855C146.946 17.2509 146.63 15.7715 146.032 14.4359L143.741 15.4626ZM144.493 18.9426C144.519 19.6912 144.428 20.4756 144.208 21.3002L146.634 21.947C146.912 20.9051 147.038 19.873 147.002 18.855L144.493 18.9426ZM144.21 21.2927C143.999 22.065 143.658 22.7944 143.181 23.4848L145.247 24.9118C145.88 23.9957 146.344 23.0086 146.632 21.9545L144.21 21.2927ZM143.19 23.4719C142.754 24.0866 142.161 24.6145 141.381 25.0477L142.601 27.2427C143.674 26.6463 144.563 25.8763 145.238 24.9246L143.19 23.4719ZM141.4 25.0374C140.68 25.4217 139.751 25.6606 138.569 25.7019L138.656 28.2112C140.124 28.16 141.447 27.8579 142.582 27.2529L141.4 25.0374ZM139.816 25.1559C141.14 25.1096 142.344 24.843 143.391 24.3108L142.254 22.0725C141.602 22.4036 140.773 22.61 139.728 22.6465L139.816 25.1559ZM143.391 24.3108C144.429 23.7833 145.261 23.0412 145.832 22.0746L143.67 20.7974C143.368 21.3084 142.914 21.7368 142.254 22.0725L143.391 24.3108ZM145.832 22.0746C146.402 21.1091 146.651 20.0267 146.611 18.8687L144.102 18.9563C144.127 19.6853 143.973 20.2852 143.67 20.7974L145.832 22.0746ZM146.611 18.8687C146.568 17.6435 146.238 16.5302 145.553 15.6024L143.533 17.0937C143.861 17.5375 144.073 18.1338 144.102 18.9563L146.611 18.8687ZM145.577 15.6356C144.932 14.6994 144.035 14.03 142.943 13.6171L142.055 15.9657C142.715 16.2152 143.181 16.5835 143.509 17.0605L145.577 15.6356ZM142.976 13.6302C141.915 13.1942 140.708 13.0249 139.394 13.0708L139.481 15.5802C140.536 15.5433 141.37 15.6846 142.022 15.9526L142.976 13.6302ZM139.394 13.0708C137.506 13.1367 135.881 13.6989 134.7 14.9097L136.498 16.6625C137.103 16.0422 138.037 15.6306 139.481 15.5802L139.394 13.0708ZM134.711 14.8994C133.536 16.0772 133.02 17.6031 133.08 19.3412L135.59 19.2535C135.55 18.1008 135.877 17.2858 136.488 16.6727L134.711 14.8994ZM133.08 19.3412C133.121 20.5031 133.427 21.5698 134.038 22.4953L136.134 21.112C135.811 20.623 135.617 20.0188 135.59 19.2535L133.08 19.3412ZM134.047 22.5084C134.648 23.3937 135.459 24.0681 136.447 24.5321L137.514 22.2592C136.909 21.9749 136.457 21.588 136.125 21.0988L134.047 22.5084ZM136.459 24.5375C137.48 25.0042 138.609 25.198 139.816 25.1559L139.728 22.6465C138.847 22.6773 138.116 22.5341 137.503 22.2539L136.459 24.5375ZM145.138 12.6692L149.053 12.5325L148.965 10.0231L145.051 10.1598L145.138 12.6692ZM147.754 11.3216L148.277 26.2874L150.786 26.1998L150.264 11.234L147.754 11.3216ZM149.488 24.9889L145.844 25.1162L145.932 27.6255L149.575 27.4983L149.488 24.9889ZM145.888 26.3709C147.121 26.1319 147.121 26.1319 147.121 26.1319C147.121 26.1319 147.121 26.1319 147.121 26.1319C147.121 26.1319 147.121 26.1319 147.121 26.1319C147.121 26.1319 147.121 26.1319 147.121 26.1319C147.121 26.1319 147.121 26.1319 147.121 26.1318C147.121 26.1318 147.121 26.1318 147.121 26.1318C147.121 26.1318 147.121 26.1318 147.12 26.1318C147.12 26.1318 147.12 26.1318 147.12 26.1318C147.12 26.1317 147.12 26.1317 147.12 26.1317C147.12 26.1317 147.12 26.1317 147.12 26.1317C147.12 26.1317 147.12 26.1317 147.12 26.1316C147.12 26.1316 147.12 26.1316 147.12 26.1316C147.12 26.1316 147.12 26.1316 147.12 26.1315C147.12 26.1315 147.12 26.1315 147.12 26.1315C147.12 26.1315 147.12 26.1314 147.12 26.1314C147.12 26.1314 147.12 26.1314 147.12 26.1313C147.12 26.1313 147.12 26.1313 147.12 26.1313C147.12 26.1312 147.12 26.1312 147.12 26.1312C147.12 26.1312 147.12 26.1311 147.12 26.1311C147.12 26.1311 147.12 26.1311 147.12 26.131C147.12 26.1309 147.12 26.1309 147.12 26.1308C147.12 26.1308 147.12 26.1308 147.12 26.1308C147.12 26.1307 147.12 26.1307 147.12 26.1306C147.12 26.1306 147.12 26.1298 147.12 26.1297C147.119 26.1257 147.12 26.1312 147.12 26.1269C147.118 26.1193 147.12 26.131 147.119 26.123C147.118 26.1181 147.119 26.1233 147.118 26.118C147.118 26.1178 147.117 26.1124 147.117 26.1119C147.114 26.0971 147.118 26.1198 147.115 26.1047C147.113 26.0947 147.116 26.1107 147.114 26.1006C147.11 26.0763 147.118 26.1207 147.114 26.0963C147.114 26.0962 147.112 26.0874 147.112 26.0869C147.112 26.0861 147.112 26.0864 147.112 26.0856C147.112 26.0855 147.111 26.0845 147.111 26.0844C147.111 26.0827 147.111 26.0835 147.111 26.0818C147.11 26.0799 147.11 26.0783 147.11 26.0763C147.107 26.0605 147.111 26.0808 147.107 26.0647C147.107 26.0629 147.107 26.0633 147.107 26.0616C147.106 26.0591 147.107 26.0609 147.106 26.0584C147.101 26.0288 147.111 26.0816 147.105 26.0519C147.105 26.0502 147.103 26.04 147.102 26.038C147.097 26.011 147.105 26.0504 147.099 26.023C147.091 25.9795 147.105 26.0507 147.096 26.0069C147.091 25.9784 147.099 26.0185 147.093 25.9897C147.087 25.9593 147.095 26.0021 147.089 25.9713C147.087 25.9578 147.088 25.9658 147.086 25.9519C147.083 25.9384 147.084 25.9451 147.082 25.9313C147.072 25.8803 147.087 25.961 147.077 25.9096C147.075 25.8964 147.076 25.9004 147.073 25.8869C147.073 25.8868 147.072 25.8811 147.072 25.881C147.071 25.8787 147.072 25.8803 147.071 25.878C147.071 25.8775 147.071 25.8756 147.071 25.8751C147.071 25.8742 147.07 25.8729 147.07 25.8721C147.07 25.8717 147.07 25.8694 147.07 25.869C147.056 25.799 147.083 25.9361 147.069 25.866C147.069 25.8655 147.069 25.865 147.069 25.8645C147.069 25.864 147.068 25.8635 147.068 25.863C147.057 25.8032 147.075 25.8981 147.064 25.838C147.061 25.8247 147.061 25.8255 147.058 25.8118C147.056 25.7973 147.056 25.7995 147.053 25.7846C147.053 25.7813 147.051 25.774 147.05 25.7706C147.05 25.7682 147.048 25.7587 147.048 25.7563C147.034 25.6877 147.055 25.7958 147.042 25.7268C147.041 25.7217 147.04 25.7169 147.039 25.7117C147.037 25.7032 147.039 25.7125 147.038 25.704C147.036 25.6951 147.038 25.7052 147.036 25.6963C147.033 25.6809 147.033 25.6803 147.03 25.6646C147.016 25.5931 147.037 25.7037 147.024 25.6318C147.015 25.586 147.026 25.6441 147.017 25.5979C147.015 25.5898 147.015 25.5888 147.014 25.5806C147.013 25.5798 147.013 25.5791 147.013 25.5784C147.013 25.5776 147.013 25.5769 147.013 25.5762C147.013 25.5754 147.012 25.5747 147.012 25.574C147.012 25.5732 147.012 25.5725 147.012 25.5718C147.012 25.571 147.012 25.5703 147.011 25.5696C147.011 25.5688 147.011 25.5681 147.011 25.5674C147.011 25.5666 147.011 25.5659 147.011 25.5651C147.01 25.5644 147.01 25.5637 147.01 25.5629L144.545 26.0408C144.547 26.0487 144.551 26.0684 144.552 26.0759C144.553 26.0795 144.555 26.0893 144.555 26.0929C144.558 26.107 144.556 26.0958 144.559 26.1097C144.563 26.1316 144.561 26.121 144.565 26.1425C144.577 26.2055 144.559 26.1116 144.571 26.1742C144.575 26.1941 144.573 26.1852 144.577 26.2048C144.579 26.2162 144.578 26.2082 144.58 26.2196C144.581 26.2263 144.581 26.2276 144.583 26.2342C144.589 26.2642 144.582 26.233 144.588 26.2625C144.591 26.2784 144.59 26.2743 144.593 26.2898C144.594 26.2939 144.598 26.3121 144.599 26.3159C144.599 26.3171 144.599 26.3179 144.599 26.3191C144.599 26.3196 144.599 26.3201 144.599 26.3207C144.6 26.3212 144.6 26.3217 144.6 26.3222C144.6 26.3239 144.6 26.3238 144.6 26.3254C144.6 26.3259 144.601 26.3264 144.601 26.327C144.601 26.3275 144.601 26.328 144.601 26.3285C144.602 26.3343 144.602 26.3352 144.603 26.3409C144.608 26.3647 144.603 26.3414 144.608 26.3648C144.608 26.3661 144.609 26.3693 144.609 26.3706C144.609 26.3711 144.609 26.3715 144.609 26.372C144.61 26.3725 144.61 26.373 144.61 26.3735C144.61 26.3739 144.61 26.3744 144.61 26.3749C144.61 26.3754 144.61 26.3758 144.61 26.3763C144.61 26.3768 144.61 26.3773 144.611 26.3777C144.611 26.3782 144.611 26.3787 144.611 26.3792C144.611 26.3796 144.611 26.3801 144.611 26.3806C144.611 26.381 144.611 26.3815 144.611 26.382C144.612 26.383 144.612 26.3838 144.612 26.3848C144.612 26.3852 144.612 26.3857 144.612 26.3862C144.612 26.3866 144.612 26.3871 144.612 26.3876C144.614 26.3979 144.615 26.3993 144.617 26.4092C144.622 26.4377 144.615 26.4017 144.621 26.4298C144.627 26.4628 144.618 26.4166 144.624 26.4492C144.627 26.4647 144.625 26.4525 144.628 26.4676C144.63 26.4802 144.629 26.4725 144.631 26.4848C144.631 26.4853 144.633 26.4926 144.633 26.493C144.634 26.4965 144.634 26.4976 144.634 26.5009C144.637 26.516 144.634 26.5012 144.637 26.5159C144.644 26.5492 144.634 26.4969 144.64 26.5298C144.641 26.5342 144.642 26.5386 144.643 26.5426C144.643 26.5446 144.643 26.5436 144.643 26.5456C144.643 26.5476 144.643 26.5466 144.644 26.5486C144.649 26.5741 144.639 26.5259 144.644 26.5514C144.644 26.5517 144.644 26.5519 144.644 26.5522C144.644 26.5524 144.644 26.5526 144.644 26.5529C144.645 26.5531 144.645 26.5533 144.645 26.5536C144.645 26.5538 144.645 26.554 144.645 26.5543C144.647 26.5669 144.644 26.5526 144.647 26.5648C144.647 26.5666 144.648 26.5729 144.649 26.5743C144.649 26.5776 144.65 26.5796 144.65 26.5826C144.65 26.583 144.652 26.5898 144.652 26.5898C144.653 26.5987 144.651 26.5874 144.653 26.5959C144.655 26.6058 144.651 26.5888 144.653 26.5986C144.655 26.6067 144.652 26.5929 144.654 26.6009C144.654 26.6033 144.654 26.6028 144.655 26.6048C144.656 26.6101 144.654 26.6027 144.655 26.6076C144.655 26.6089 144.655 26.6083 144.655 26.6093C144.655 26.6093 144.655 26.6093 144.655 26.6093C144.655 26.6094 144.655 26.6094 144.655 26.6094C144.655 26.6094 144.655 26.6094 144.655 26.6095C144.655 26.6095 144.655 26.6095 144.655 26.6095C144.655 26.6095 144.655 26.6095 144.655 26.6096C144.655 26.6096 144.655 26.6096 144.655 26.6096C144.655 26.6096 144.655 26.6096 144.655 26.6096C144.656 26.6097 144.656 26.6097 144.656 26.6097C144.656 26.6097 144.656 26.6097 144.656 26.6097C144.656 26.6097 144.656 26.6097 144.656 26.6097C144.656 26.6098 144.656 26.6098 144.656 26.6098C144.656 26.6098 144.656 26.6098 144.656 26.6098C144.656 26.6098 144.656 26.6098 144.656 26.6098C144.656 26.6098 144.656 26.6098 144.656 26.6098C144.656 26.6098 144.656 26.6098 144.656 26.6098C144.656 26.6098 144.656 26.6098 145.888 26.3709ZM147.022 25.6334C146.97 25.252 146.914 24.7664 146.854 24.1733L144.356 24.4277C144.418 25.0363 144.477 25.5516 144.534 25.9703L147.022 25.6334ZM146.854 24.1733C146.795 23.5992 146.756 23.0355 146.737 22.4821L144.228 22.5698C144.249 23.1808 144.292 23.8001 144.356 24.4276L146.854 24.1733ZM146.737 22.4821L146.349 11.3707L143.84 11.4583L144.228 22.5698L146.737 22.4821ZM151.498 11.1909L151.454 9.93623L150.199 9.98004L150.243 11.2347L151.498 11.1909ZM163.121 10.785L164.376 10.7412L164.332 9.48651L163.077 9.53033L163.121 10.785ZM163.228 13.8263L163.271 15.081L164.526 15.0372L164.482 13.7825L163.228 13.8263ZM151.604 14.2322L150.349 14.2761L150.393 15.5307L151.648 15.4869L151.604 14.2322ZM155.209 6.96104L155.166 5.70636L153.911 5.75017L153.955 7.00485L155.209 6.96104ZM159.124 6.82434L160.379 6.78052L160.335 5.52584L159.08 5.56966L159.124 6.82434ZM159.79 25.8854L159.833 27.1401L161.088 27.0963L161.044 25.8416L159.79 25.8854ZM155.875 26.0221L154.62 26.0659L154.664 27.3206L155.919 27.2768L155.875 26.0221ZM151.542 12.4456L163.165 12.0397L163.077 9.53033L151.454 9.93623L151.542 12.4456ZM161.867 10.8288L161.973 13.8702L164.482 13.7825L164.376 10.7412L161.867 10.8288ZM163.184 12.5717L151.56 12.9776L151.648 15.4869L163.271 15.081L163.184 12.5717ZM152.859 14.1884L152.753 11.1471L150.243 11.2347L150.349 14.2761L152.859 14.1884ZM155.253 8.21571L159.168 8.07901L159.08 5.56966L155.166 5.70636L155.253 8.21571ZM157.869 6.86815L158.535 25.9292L161.044 25.8416L160.379 6.78052L157.869 6.86815ZM159.746 24.6307L155.831 24.7674L155.919 27.2768L159.833 27.1401L159.746 24.6307ZM157.13 25.9783L156.464 6.91722L153.955 7.00485L154.62 26.0659L157.13 25.9783Z" fill="#101010" mask="url(#path-1-outside-1_21_630)"/>
<path d="M11.3736 13.6266C11.8124 12.7626 12.1498 11.825 12.612 10.3929C13.173 11.7892 13.575 12.701 14.073 13.5324C15.5915 16.0672 17.7948 18.1219 20.4295 19.4599C21.2935 19.8987 22.2311 20.2361 23.6632 20.6983C22.2669 21.2593 21.3551 21.6612 20.5237 22.1592C17.9888 23.6777 15.9342 25.8811 14.5962 28.5157C14.1574 29.3797 13.82 30.3174 13.3578 31.7495C12.7968 30.3531 12.3949 29.4413 11.8969 28.61C10.3784 26.0751 8.17502 24.0204 5.5404 22.6824C4.67634 22.2436 3.73872 21.9063 2.30664 21.4441C3.70299 20.8831 4.6148 20.4811 5.44614 19.9831C7.98101 18.4646 10.0357 16.2613 11.3736 13.6266Z" stroke="#101010" stroke-width="1.25544"/>
</svg>
