<svg width="174" height="35" viewBox="0 0 174 35" fill="none" xmlns="http://www.w3.org/2000/svg">
<path d="M46.1462 25.1492L46.0295 21.8067L58.9176 21.3567L59.0343 24.6991L46.1462 25.1492ZM41.4464 29.5643L49.9202 9.76199L54.2564 9.61057L64.1812 28.7704L59.8149 28.9229L51.192 11.6471L53.1192 11.5798L45.7826 29.4129L41.4464 29.5643ZM66.9054 9.16886L70.9103 9.029L71.5907 28.5116L67.5857 28.6515L66.9054 9.16886ZM106.53 20.2668C106.404 21.839 105.898 23.1932 105.013 24.3296C104.129 25.466 102.903 26.3529 101.338 26.9905C99.7721 27.628 97.8953 27.985 95.7071 28.0614C93.8803 28.1252 92.1967 27.973 90.6563 27.6047C89.1359 27.2357 87.809 26.6489 86.6754 25.8443C85.562 25.039 84.6824 24.0246 84.0366 22.8009C83.3902 21.5573 83.0376 20.0923 82.9787 18.406C82.9198 16.7197 83.1694 15.2337 83.7275 13.9479C84.2856 12.6622 85.0919 11.5788 86.1465 10.6978C87.2205 9.79604 88.5029 9.10808 89.9938 8.63393C91.5041 8.13901 93.1726 7.85965 94.9994 7.79585C97.1876 7.71944 99.0851 7.95467 100.692 8.50153C102.319 9.04769 103.614 9.86675 104.577 10.9587C105.539 12.0306 106.128 13.3566 106.344 14.937L102.369 15.0758C102.078 14.2417 101.612 13.5345 100.968 12.9539C100.344 12.3527 99.5448 11.9082 98.57 11.6207C97.5952 11.3331 96.4453 11.2125 95.1204 11.2588C93.4742 11.3163 92.0379 11.6277 90.8115 12.1931C89.5844 12.7384 88.6471 13.5249 87.9996 14.5525C87.3514 15.56 87.0529 16.7965 87.1041 18.2619C87.1546 19.7073 87.5382 20.9099 88.2551 21.8698C88.972 22.8296 89.9619 23.5488 91.2248 24.0272C92.4869 24.4856 93.9411 24.6861 95.5872 24.6286C96.9122 24.5824 98.0408 24.3821 98.9731 24.028C99.9255 23.6732 100.692 23.1841 101.273 22.5608C101.875 21.9368 102.302 21.2184 102.555 20.4056L106.53 20.2668ZM119.006 27.2177C117.119 27.2836 115.442 27.0406 113.976 26.4888C112.529 25.9364 111.385 25.102 110.542 23.9858C109.698 22.8495 109.247 21.4382 109.188 19.7519C109.129 18.0656 109.481 16.6263 110.243 15.4339C111.005 14.2215 112.088 13.2892 113.492 12.6372C114.916 11.9845 116.572 11.6252 118.459 11.5593C120.346 11.4934 122.003 11.737 123.429 12.2902C124.875 12.8427 126.021 13.6971 126.865 14.8535C127.709 15.9898 128.16 17.4011 128.219 19.0873C128.278 20.7736 127.926 22.213 127.164 23.4053C126.401 24.5777 125.317 25.4898 123.913 26.1418C122.529 26.7932 120.893 27.1518 119.006 27.2177ZM118.901 24.2064C119.945 24.17 120.872 23.9567 121.682 23.5666C122.512 23.1557 123.156 22.5906 123.613 21.8711C124.069 21.1316 124.28 20.25 124.244 19.2261C124.208 18.2023 123.937 17.3375 123.43 16.6316C122.922 15.9057 122.25 15.3664 121.414 15.0137C120.577 14.661 119.627 14.5032 118.563 14.5404C117.519 14.5768 116.582 14.8005 115.753 15.2114C114.923 15.6222 114.27 16.1978 113.793 16.938C113.336 17.6775 113.126 18.5692 113.163 19.6131C113.199 20.6369 113.47 21.5018 113.977 22.2076C114.483 22.8934 115.165 23.4123 116.021 23.7643C116.877 24.0962 117.837 24.2436 118.901 24.2064ZM138.671 26.5008C137.166 26.5534 135.789 26.2798 134.542 25.6802C133.315 25.0598 132.329 24.1797 131.586 23.0399C130.842 21.88 130.443 20.5272 130.389 18.9814C130.334 17.3955 130.627 16.0085 131.269 14.8203C131.931 13.6314 132.853 12.6947 134.035 12.0103C135.216 11.3057 136.58 10.9265 138.125 10.8725C139.471 10.8255 140.622 10.9863 141.579 11.3549C142.537 11.7234 143.319 12.2589 143.927 12.9612C144.533 13.6435 144.984 14.4519 145.278 15.3863C145.592 16.32 145.768 17.3389 145.807 18.443C145.837 19.3263 145.728 20.2346 145.48 21.1678C145.23 22.081 144.828 22.9392 144.273 23.7425C143.718 24.5257 142.976 25.1746 142.05 25.6894C141.122 26.184 139.996 26.4545 138.671 26.5008ZM139.831 23.4454C141.015 23.404 142.032 23.1675 142.881 22.7359C143.73 22.3042 144.373 21.719 144.81 20.9802C145.246 20.2414 145.448 19.4002 145.415 18.4567C145.379 17.4329 145.108 16.5781 144.602 15.8923C144.115 15.1857 143.433 14.6568 142.557 14.3055C141.7 13.9535 140.68 13.7982 139.495 13.8396C137.829 13.8978 136.55 14.3846 135.657 15.3002C134.765 16.2157 134.343 17.3962 134.394 18.8416C134.428 19.8051 134.678 20.6406 135.145 21.3479C135.611 22.035 136.242 22.5657 137.039 22.9399C137.856 23.3133 138.787 23.4818 139.831 23.4454ZM144.943 4.93628L148.858 4.79957L149.59 25.7878L145.947 25.9151C145.87 25.4555 145.79 24.8653 145.704 24.1448C145.618 23.4041 145.564 22.7126 145.541 22.0702L144.943 4.93628ZM167.277 20.1956L171.071 20.0631C170.946 21.0926 170.547 22.021 169.872 22.8486C169.218 23.6754 168.306 24.3403 167.138 24.8434C165.97 25.3465 164.532 25.6278 162.826 25.6874C160.919 25.754 159.222 25.5118 157.735 24.9607C156.248 24.3896 155.073 23.5362 154.209 22.4006C153.345 21.265 152.885 19.8741 152.827 18.228C152.77 16.5819 153.122 15.1626 153.885 13.9702C154.646 12.7578 155.729 11.8155 157.132 11.1434C158.556 10.4706 160.231 10.1005 162.159 10.0333C164.126 9.96455 165.773 10.2186 167.1 10.7953C168.426 11.3721 169.423 12.282 170.089 13.5249C170.775 14.7471 171.102 16.3336 171.069 18.2844L156.796 18.7828C156.923 19.5422 157.228 20.2249 157.712 20.8311C158.215 21.4366 158.875 21.906 159.691 22.2393C160.526 22.5719 161.506 22.7186 162.63 22.6794C163.875 22.6359 164.902 22.389 165.71 21.9387C166.538 21.4676 167.06 20.8866 167.277 20.1956ZM162.082 13.0207C160.637 13.0712 159.473 13.4334 158.593 14.1073C157.711 14.7612 157.156 15.5544 156.927 16.4869L167.105 16.1315C166.97 15.1313 166.46 14.3551 165.577 13.8031C164.712 13.2303 163.548 12.9695 162.082 13.0207Z" fill="#101010"/>
<path d="M12.5468 8.07065C13.4983 10.4849 13.9741 11.6921 14.6115 12.7561C16.0692 15.1895 18.1844 17.162 20.7137 18.4465C21.8195 19.0081 23.0569 19.3985 25.5317 20.1793C23.1174 21.1308 21.9103 21.6066 20.8463 22.244C18.4128 23.7017 16.4404 25.817 15.1559 28.3462C14.5943 29.452 14.2039 30.6894 13.4231 33.1642C12.4715 30.7499 11.9957 29.5428 11.3584 28.4788C9.90061 26.0453 7.7854 24.0729 5.25617 22.7884C4.15032 22.2268 2.91293 21.8364 0.438143 21.0556C2.85243 20.104 4.05958 19.6283 5.12355 18.9909C7.55703 17.5331 9.52949 15.4179 10.814 12.8887C11.3756 11.7828 11.766 10.5454 12.5468 8.07065Z" fill="#101010"/>
</svg>
