<svg width="189" height="38" viewBox="0 0 189 38" fill="none" xmlns="http://www.w3.org/2000/svg">
<path d="M46.1462 26.4822L46.0295 23.1397L58.9176 22.6897L59.0343 26.0321L46.1462 26.4822ZM41.4464 30.8973L49.9202 11.095L54.2564 10.9436L64.1812 30.1034L59.8149 30.2559L51.192 12.9801L53.1192 12.9128L45.7826 30.7459L41.4464 30.8973ZM66.9054 10.5019L70.9103 10.362L71.5907 29.8447L67.5857 29.9845L66.9054 10.5019ZM83.9318 9.90729L87.9367 9.76743L88.6171 29.2501L84.6121 29.3899L83.9318 9.90729ZM92.7684 14.1211L96.683 13.9844L97.2056 28.9502L93.291 29.0869L92.7684 14.1211ZM103.627 13.4102C104.551 13.378 105.408 13.4686 106.2 13.6822C106.991 13.8957 107.686 14.2433 108.286 14.7248C108.886 15.2064 109.36 15.833 109.708 16.6047C110.056 17.3563 110.249 18.2641 110.286 19.3281L110.606 28.4822L106.691 28.6189L106.396 20.1574C106.351 18.8927 106.008 17.9801 105.365 17.4196C104.742 16.8384 103.738 16.572 102.353 16.6204C101.309 16.6568 100.372 16.8905 99.5431 17.3215C98.714 17.7524 98.0493 18.2881 97.5491 18.9287C97.0482 19.5492 96.7692 20.192 96.712 20.8573L96.6283 19.3226C96.7041 18.6165 96.9111 17.9259 97.2493 17.2508C97.5875 16.5757 98.0483 15.9567 98.6316 15.3936C99.2343 14.8098 99.9516 14.3425 100.784 13.9919C101.615 13.6413 102.563 13.4474 103.627 13.4102ZM116.666 12.9549C117.589 12.9226 118.447 13.0133 119.238 13.2269C120.03 13.4404 120.725 13.788 121.325 14.2695C121.924 14.7511 122.399 15.3777 122.747 16.1494C123.115 16.9003 123.318 17.8078 123.355 18.8717L123.674 28.0259L119.76 28.1626L119.464 19.701C119.42 18.4363 119.077 17.5237 118.434 16.9633C117.791 16.3828 116.776 16.1167 115.391 16.1651C114.347 16.2015 113.411 16.4352 112.582 16.8661C111.753 17.2971 111.088 17.8328 110.588 18.4734C110.087 19.0939 109.818 19.7364 109.781 20.4009L109.664 18.777C109.741 18.111 109.959 17.4401 110.317 16.7643C110.675 16.0885 111.156 15.4688 111.76 14.905C112.363 14.3413 113.071 13.8844 113.882 13.5345C114.714 13.1838 115.642 12.9906 116.666 12.9549ZM134.525 27.9786C133.039 28.0305 131.673 27.7566 130.426 27.1569C129.198 26.5365 128.203 25.6568 127.44 24.5177C126.696 23.3578 126.297 22.005 126.243 20.4592C126.187 18.8733 126.501 17.4856 127.183 16.296C127.865 15.1064 128.807 14.169 130.009 13.4839C131.23 12.7779 132.624 12.3976 134.19 12.3429C135.916 12.2827 137.314 12.5856 138.382 13.2518C139.47 13.8972 140.276 14.8036 140.799 15.9712C141.322 17.1388 141.609 18.4554 141.66 19.9208C141.691 20.8041 141.582 21.7124 141.333 22.6456C141.084 23.5588 140.682 24.417 140.127 25.2203C139.571 26.0035 138.83 26.6524 137.903 27.1672C136.976 27.6618 135.85 27.9323 134.525 27.9786ZM135.684 24.9232C136.869 24.8818 137.886 24.6453 138.735 24.2137C139.584 23.782 140.227 23.1968 140.663 22.458C141.1 21.7192 141.302 20.878 141.269 19.9345C141.233 18.9107 140.962 18.0559 140.456 17.3701C139.969 16.6635 139.287 16.1446 138.411 15.8134C137.555 15.4614 136.535 15.3061 135.35 15.3475C133.684 15.4057 132.404 15.8925 131.512 16.8081C130.619 17.7035 130.197 18.874 130.248 20.3194C130.281 21.2829 130.532 22.1184 130.998 22.8257C131.465 23.5129 132.096 24.0435 132.893 24.4177C133.71 24.7911 134.641 24.9596 135.684 24.9232ZM141.007 12.4365L144.921 12.2998L145.444 27.2656L141.801 27.3929C141.801 27.3929 141.764 27.2032 141.69 26.8239C141.636 26.4238 141.578 25.9233 141.517 25.3225C141.456 24.7216 141.415 24.1301 141.395 23.548L141.007 12.4365ZM156.375 24.5926C154.749 24.6494 153.305 24.4586 152.044 24.0203C150.802 23.5612 149.822 22.8617 149.106 21.922C148.39 20.9822 148.008 19.8298 147.96 18.4647C147.913 17.1197 148.204 15.9438 148.832 14.937C149.46 13.9302 150.377 13.1344 151.583 12.5496C152.808 11.9641 154.254 11.6423 155.921 11.5841C156.382 11.568 156.825 11.5827 157.249 11.6282C157.693 11.673 158.127 11.7382 158.552 11.8238L166.111 11.59L166.214 14.541C165.191 14.5968 164.143 14.5129 163.07 14.289C162.016 14.0444 161.082 13.7756 160.268 13.4824L160.17 13.2748C160.864 13.5721 161.521 13.9512 162.14 14.412C162.758 14.8527 163.259 15.3779 163.642 15.9876C164.044 16.5765 164.26 17.2724 164.288 18.0754C164.333 19.3803 164.041 20.5161 163.412 21.4827C162.781 22.4293 161.863 23.1749 160.656 23.7195C159.468 24.2434 158.041 24.5344 156.375 24.5926ZM161.699 32.8785L161.674 32.1558C161.642 31.2324 161.318 30.6005 160.703 30.2602C160.108 29.9192 159.299 29.7666 158.275 29.8023L153.608 29.9653C152.705 29.9968 151.939 29.9532 151.312 29.8344C150.705 29.7149 150.216 29.531 149.846 29.2827C149.475 29.0343 149.203 28.7323 149.03 28.3765C148.858 28.0409 148.764 27.6723 148.75 27.2708C148.722 26.4678 148.962 25.8564 149.47 25.4367C149.977 24.9969 150.67 24.6913 151.549 24.5199C152.427 24.3486 153.4 24.2845 154.466 24.3276L156.375 24.5926C155.112 24.6769 154.172 24.8203 153.556 25.0227C152.959 25.2043 152.67 25.5461 152.687 26.0479C152.698 26.3491 152.827 26.5857 153.074 26.758C153.32 26.9102 153.664 26.9786 154.106 26.9632L159.014 26.7918C160.359 26.7448 161.509 26.8453 162.462 27.0934C163.436 27.3609 164.186 27.8272 164.712 28.4922C165.238 29.1773 165.522 30.1221 165.564 31.3266L165.614 32.7418L161.699 32.8785ZM156.276 21.762C157.139 21.7319 157.887 21.5651 158.52 21.2616C159.172 20.9574 159.67 20.5381 160.013 20.0035C160.356 19.4488 160.514 18.8001 160.488 18.0574C160.462 17.2945 160.258 16.6484 159.878 16.119C159.498 15.5896 158.981 15.1956 158.329 14.937C157.676 14.6583 156.908 14.5344 156.025 14.5652C155.162 14.5954 154.404 14.7726 153.752 15.0968C153.099 15.401 152.602 15.8304 152.259 16.385C151.917 16.9397 151.759 17.5984 151.786 18.3613C151.812 19.104 152.015 19.7401 152.395 20.2695C152.775 20.7789 153.291 21.1628 153.943 21.4214C154.615 21.6794 155.393 21.7929 156.276 21.762ZM182.392 21.0008L186.186 20.8683C186.061 21.8977 185.662 22.8262 184.987 23.6537C184.332 24.4806 183.421 25.1455 182.253 25.6486C181.085 26.1517 179.647 26.433 177.941 26.4926C176.034 26.5592 174.337 26.317 172.85 25.7659C171.363 25.1948 170.188 24.3414 169.324 23.2058C168.46 22.0702 168 20.6793 167.942 19.0332C167.885 17.387 168.237 15.9678 168.999 14.7754C169.761 13.5629 170.844 12.6207 172.247 11.9486C173.671 11.2758 175.346 10.9057 177.274 10.8384C179.241 10.7697 180.888 11.0238 182.214 11.6005C183.541 12.1773 184.538 13.0871 185.204 14.3301C185.89 15.5523 186.217 17.1388 186.184 19.0896L171.911 19.588C172.038 20.3474 172.343 21.0301 172.827 21.6363C173.33 22.2418 173.99 22.7112 174.806 23.0445C175.641 23.3771 176.621 23.5238 177.745 23.4845C178.99 23.4411 180.016 23.1942 180.825 22.7439C181.653 22.2728 182.175 21.6918 182.392 21.0008ZM177.197 13.8259C175.752 13.8763 174.588 14.2385 173.708 14.9125C172.826 15.5663 172.271 16.3596 172.042 17.2921L182.22 16.9367C182.084 15.9365 181.575 15.1603 180.691 14.6083C179.827 14.0355 178.662 13.7747 177.197 13.8259Z" fill="#101010"/>
<path d="M12.5468 9.40378C13.4983 11.8181 13.9741 13.0252 14.6115 14.0892C16.0692 16.5227 18.1844 18.4951 20.7137 19.7796C21.8195 20.3412 23.0569 20.7316 25.5317 21.5124C23.1174 22.464 21.9103 22.9397 20.8463 23.5771C18.4128 25.0349 16.4404 27.1501 15.1559 29.6793C14.5943 30.7852 14.2039 32.0226 13.4231 34.4973C12.4715 32.0831 11.9957 30.8759 11.3584 29.8119C9.90061 27.3785 7.7854 25.406 5.25617 24.1215C4.15032 23.5599 2.91293 23.1695 0.438143 22.3887C2.85243 21.4372 4.05958 20.9614 5.12355 20.324C7.55703 18.8662 9.52949 16.751 10.814 14.2218C11.3756 13.116 11.766 11.8786 12.5468 9.40378Z" fill="#101010"/>
</svg>
