<svg width="188" height="36" viewBox="0 0 188 36" fill="none" xmlns="http://www.w3.org/2000/svg">
<mask id="path-1-outside-1_21_633" maskUnits="userSpaceOnUse" x="38.4621" y="2.35707" width="148.782" height="30.1499" fill="black">
<rect fill="white" x="38.4621" y="2.35707" width="148.782" height="30.1499"/>
<path d="M46.4753 26.0054L46.3586 22.6629L59.2467 22.2129L59.3634 25.5553L46.4753 26.0054ZM41.7755 30.4205L50.2493 10.6182L54.5855 10.4668L64.5103 29.6266L60.144 29.7791L51.5211 12.5033L53.4483 12.436L46.1117 30.2691L41.7755 30.4205ZM67.2345 10.0251L71.2394 9.8852L71.9198 29.3678L67.9149 29.5077L67.2345 10.0251ZM90.8733 28.706L81.9723 9.5104L86.3988 9.35582L93.9573 26.3673L92.6635 26.4426L98.6847 8.92679L103.292 8.76591L110.52 25.819L109.224 25.8341L115.578 8.33688L119.914 8.18545L112.464 27.952L107.556 28.1234L100.461 11.4576L101.726 11.4134L95.7816 28.5346L90.8733 28.706ZM122.269 12.6256L126.183 12.4889L126.706 27.4547L122.791 27.5914L122.269 12.6256ZM132.047 15.51C130.923 15.5493 129.957 15.8041 129.15 16.2745C128.341 16.7248 127.697 17.2699 127.217 17.9097C126.737 18.5496 126.406 19.1641 126.226 19.7533L126.138 18.0982C126.15 17.8566 126.218 17.5024 126.342 17.0358C126.466 16.5491 126.659 16.0298 126.921 15.478C127.182 14.9061 127.535 14.3611 127.979 13.8432C128.423 13.3051 128.97 12.8639 129.621 12.5196C130.273 12.1752 131.04 11.9876 131.923 11.9568L132.047 15.51ZM138.612 5.48235L138.732 8.91515L134.185 9.07394L134.065 5.64114L138.612 5.48235ZM134.596 12.1951L138.51 12.0584L139.033 27.0242L135.118 27.1609L134.596 12.1951ZM141.358 11.9589L152.982 11.553L153.088 14.5944L141.465 15.0003L141.358 11.9589ZM145.07 7.72908L148.984 7.59238L149.65 26.6535L145.735 26.7902L145.07 7.72908ZM169.253 20.9943L173.047 20.8618C172.922 21.8912 172.522 22.8197 171.848 23.6473C171.193 24.4741 170.282 25.139 169.114 25.6421C167.945 26.1452 166.508 26.4265 164.802 26.4861C162.895 26.5527 161.198 26.3105 159.711 25.7594C158.224 25.1883 157.049 24.3349 156.185 23.1993C155.321 22.0637 154.861 20.6728 154.803 19.0267C154.746 17.3806 155.098 15.9613 155.86 14.7689C156.622 13.5565 157.705 12.6142 159.108 11.9421C160.532 11.2693 162.207 10.8992 164.134 10.8319C166.102 10.7632 167.749 11.0173 169.075 11.594C170.402 12.1708 171.399 13.0806 172.065 14.3236C172.751 15.5458 173.078 17.1323 173.045 19.0831L158.772 19.5815C158.899 20.3409 159.204 21.0236 159.688 21.6298C160.191 22.2353 160.851 22.7047 161.666 23.038C162.502 23.3706 163.482 23.5173 164.606 23.4781C165.851 23.4346 166.877 23.1877 167.686 22.7374C168.513 22.2663 169.036 21.6853 169.253 20.9943ZM164.058 13.8194C162.613 13.8698 161.449 14.2321 160.568 14.906C159.687 15.5599 159.132 16.3531 158.903 17.2856L169.081 16.9302C168.945 15.93 168.436 15.1538 167.552 14.6018C166.688 14.029 165.523 13.7682 164.058 13.8194ZM175.671 10.7607L179.586 10.624L180.108 25.5898L176.194 25.7265L175.671 10.7607ZM185.45 13.6452C184.325 13.6844 183.359 13.9393 182.552 14.4097C181.743 14.86 181.099 15.4051 180.619 16.0449C180.139 16.6847 179.809 17.2993 179.628 17.8884L179.54 16.2333C179.552 15.9917 179.62 15.6376 179.744 15.171C179.868 14.6843 180.061 14.165 180.323 13.6132C180.585 13.0413 180.937 12.4963 181.382 11.9783C181.825 11.4402 182.372 10.999 183.024 10.6547C183.675 10.3104 184.442 10.1228 185.326 10.0919L185.45 13.6452Z"/>
</mask>
<path d="M46.4753 26.0054L45.2206 26.0492L45.2645 27.3039L46.5191 27.2601L46.4753 26.0054ZM46.3586 22.6629L46.3148 21.4082L45.0601 21.452L45.1039 22.7067L46.3586 22.6629ZM59.2467 22.2129L60.5013 22.169L60.4575 20.9144L59.2028 20.9582L59.2467 22.2129ZM59.3634 25.5553L59.4072 26.81L60.6619 26.7662L60.6181 25.5115L59.3634 25.5553ZM41.7755 30.4205L40.6213 29.9266L39.8435 31.7442L41.8193 31.6752L41.7755 30.4205ZM50.2493 10.6182L50.2055 9.36351L49.4087 9.39134L49.0951 10.1243L50.2493 10.6182ZM54.5855 10.4668L55.7002 9.88932L55.3351 9.18439L54.5416 9.21209L54.5855 10.4668ZM64.5103 29.6266L64.5541 30.8813L66.5382 30.812L65.625 29.0491L64.5103 29.6266ZM60.144 29.7791L59.0207 30.3397L59.3812 31.0619L60.1878 31.0337L60.144 29.7791ZM51.5211 12.5033L51.4773 11.2486L49.5257 11.3168L50.3978 13.064L51.5211 12.5033ZM53.4483 12.436L54.6093 12.9137L55.3499 11.1134L53.4045 11.1813L53.4483 12.436ZM46.1117 30.2691L46.1555 31.5238L46.9647 31.4955L47.2727 30.7467L46.1117 30.2691ZM47.73 25.9616L47.6133 22.6191L45.1039 22.7067L45.2206 26.0492L47.73 25.9616ZM46.4024 23.9176L59.2905 23.4675L59.2028 20.9582L46.3148 21.4082L46.4024 23.9176ZM57.992 22.2567L58.1087 25.5991L60.6181 25.5115L60.5013 22.169L57.992 22.2567ZM59.3196 24.3006L46.4315 24.7507L46.5191 27.2601L59.4072 26.81L59.3196 24.3006ZM42.9297 30.9144L51.4035 11.1121L49.0951 10.1243L40.6213 29.9266L42.9297 30.9144ZM50.2931 11.8729L54.6293 11.7214L54.5416 9.21209L50.2055 9.36351L50.2931 11.8729ZM53.4707 11.0442L63.3955 30.204L65.625 29.0491L55.7002 9.88932L53.4707 11.0442ZM64.4665 28.3719L60.1002 28.5244L60.1878 31.0337L64.5541 30.8813L64.4665 28.3719ZM61.2673 29.2184L52.6444 11.9426L50.3978 13.064L59.0207 30.3397L61.2673 29.2184ZM51.5649 13.758L53.4921 13.6907L53.4045 11.1813L51.4773 11.2486L51.5649 13.758ZM52.2872 11.9584L44.9507 29.7914L47.2727 30.7467L54.6093 12.9137L52.2872 11.9584ZM46.0679 29.0144L41.7317 29.1658L41.8193 31.6752L46.1555 31.5238L46.0679 29.0144ZM67.2345 10.0251L67.1907 8.77038L65.936 8.81419L65.9798 10.0689L67.2345 10.0251ZM71.2394 9.8852L72.4941 9.84139L72.4503 8.58671L71.1956 8.63052L71.2394 9.8852ZM71.9198 29.3678L71.9636 30.6225L73.2183 30.5787L73.1745 29.324L71.9198 29.3678ZM67.9148 29.5077L66.6602 29.5515L66.704 30.8062L67.9587 30.7624L67.9148 29.5077ZM67.2783 11.2797L71.2832 11.1399L71.1956 8.63052L67.1907 8.77038L67.2783 11.2797ZM69.9848 9.92902L70.6651 29.4117L73.1745 29.324L72.4941 9.84139L69.9848 9.92902ZM71.876 28.1132L67.871 28.253L67.9587 30.7624L71.9636 30.6225L71.876 28.1132ZM69.1695 29.4639L68.4892 9.98124L65.9798 10.0689L66.6602 29.5515L69.1695 29.4639ZM90.8733 28.706L89.7344 29.2341L90.0848 29.9897L90.9172 29.9607L90.8733 28.706ZM81.9723 9.5104L81.9285 8.25572L80.0373 8.32176L80.8334 10.0385L81.9723 9.5104ZM86.3988 9.35582L87.5461 8.84606L87.202 8.07157L86.355 8.10114L86.3988 9.35582ZM93.9573 26.3673L94.0303 27.6206L95.8411 27.5151L95.1046 25.8575L93.9573 26.3673ZM92.6635 26.4426L91.4763 26.0345L90.8678 27.8047L92.7365 27.6959L92.6635 26.4426ZM98.6847 8.92679L98.6408 7.67211L97.7781 7.70224L97.4974 8.51867L98.6847 8.92679ZM103.292 8.76591L104.448 8.27596L104.111 7.4811L103.248 7.51123L103.292 8.76591ZM110.52 25.819L110.535 27.0744L112.407 27.0526L111.676 25.3291L110.52 25.819ZM109.224 25.8341L108.044 25.4056L107.425 27.1106L109.239 27.0895L109.224 25.8341ZM115.578 8.33688L115.534 7.0822L114.687 7.11178L114.398 7.90839L115.578 8.33688ZM119.914 8.18545L121.089 8.62822L121.753 6.86502L119.87 6.93078L119.914 8.18545ZM112.464 27.952L112.508 29.2067L113.344 29.1775L113.639 28.3948L112.464 27.952ZM107.556 28.1234L106.4 28.6151L106.738 29.4082L107.599 29.3781L107.556 28.1234ZM100.461 11.4576L100.418 10.2029L98.59 10.2667L99.3062 11.9493L100.461 11.4576ZM101.726 11.4134L102.912 11.8252L103.513 10.0948L101.682 10.1587L101.726 11.4134ZM95.7816 28.5346L95.8255 29.7893L96.6854 29.7592L96.9676 28.9463L95.7816 28.5346ZM92.0123 28.1778L83.1113 8.98227L80.8334 10.0385L89.7344 29.2341L92.0123 28.1778ZM82.0162 10.7651L86.4427 10.6105L86.355 8.10114L81.9285 8.25572L82.0162 10.7651ZM85.2516 9.86558L92.81 26.877L95.1046 25.8575L87.5461 8.84606L85.2516 9.86558ZM93.8843 25.1139L92.5906 25.1893L92.7365 27.6959L94.0303 27.6206L93.8843 25.1139ZM93.8508 26.8507L99.8719 9.33492L97.4974 8.51867L91.4763 26.0345L93.8508 26.8507ZM98.7285 10.1815L103.336 10.0206L103.248 7.51123L98.6408 7.67211L98.7285 10.1815ZM102.136 9.25585L109.364 26.309L111.676 25.3291L104.448 8.27596L102.136 9.25585ZM110.505 24.5637L109.21 24.5788L109.239 27.0895L110.535 27.0744L110.505 24.5637ZM110.404 26.2626L116.758 8.76537L114.398 7.90839L108.044 25.4056L110.404 26.2626ZM115.621 9.59156L119.958 9.44013L119.87 6.93078L115.534 7.0822L115.621 9.59156ZM118.739 7.74269L111.289 27.5092L113.639 28.3948L121.089 8.62822L118.739 7.74269ZM112.42 26.6973L107.512 26.8687L107.599 29.3781L112.508 29.2067L112.42 26.6973ZM108.711 27.6317L101.617 10.9659L99.3062 11.9493L106.4 28.6151L108.711 27.6317ZM100.505 12.7122L101.77 12.6681L101.682 10.1587L100.418 10.2029L100.505 12.7122ZM100.54 11.0016L94.5957 28.1228L96.9676 28.9463L102.912 11.8252L100.54 11.0016ZM95.7378 27.2799L90.8295 27.4513L90.9172 29.9607L95.8255 29.7893L95.7378 27.2799ZM122.269 12.6256L122.225 11.3709L120.97 11.4147L121.014 12.6694L122.269 12.6256ZM126.183 12.4889L127.438 12.4451L127.394 11.1904L126.14 11.2342L126.183 12.4889ZM126.706 27.4547L126.75 28.7093L128.005 28.6655L127.961 27.4109L126.706 27.4547ZM122.791 27.5914L121.537 27.6352L121.581 28.8899L122.835 28.846L122.791 27.5914ZM132.047 15.51L132.091 16.7647L133.346 16.7209L133.302 15.4662L132.047 15.51ZM129.15 16.2745L129.761 17.3712L129.771 17.3654L129.781 17.3594L129.15 16.2745ZM126.226 19.7533L124.972 19.8199L127.426 20.1209L126.226 19.7533ZM126.138 18.0982L124.884 18.0376L124.881 18.1012L124.884 18.1648L126.138 18.0982ZM126.342 17.0358L127.555 17.3592L127.557 17.3522L127.559 17.3451L126.342 17.0358ZM126.921 15.478L128.055 16.0167L128.059 16.0083L128.063 15.9999L126.921 15.478ZM127.979 13.8432L128.932 14.6604L128.94 14.6511L128.948 14.6417L127.979 13.8432ZM131.923 11.9568L133.178 11.913L133.134 10.6583L131.879 10.7021L131.923 11.9568ZM122.313 13.8802L126.227 13.7435L126.14 11.2342L122.225 11.3709L122.313 13.8802ZM124.929 12.5327L125.451 27.4985L127.961 27.4109L127.438 12.4451L124.929 12.5327ZM126.662 26.2L122.748 26.3367L122.835 28.846L126.75 28.7093L126.662 26.2ZM124.046 27.5476L123.523 12.5818L121.014 12.6694L121.537 27.6352L124.046 27.5476ZM132.004 14.2554C130.714 14.3004 129.537 14.5958 128.518 15.1896L129.781 17.3594C130.377 17.0125 131.132 16.7982 132.091 16.7647L132.004 14.2554ZM128.539 15.1778C127.601 15.7004 126.814 16.3553 126.213 17.1562L128.221 18.6633C128.58 18.1845 129.082 17.7493 129.761 17.3712L128.539 15.1778ZM126.213 17.1562C125.67 17.8795 125.259 18.623 125.026 19.3857L127.426 20.1209C127.554 19.7052 127.804 19.2197 128.221 18.6633L126.213 17.1562ZM127.48 19.6867L127.392 18.0315L124.884 18.1648L124.972 19.8199L127.48 19.6867ZM127.392 18.1587C127.397 18.0556 127.436 17.8071 127.555 17.3592L125.129 16.7124C125 17.1978 124.902 17.6576 124.884 18.0376L127.392 18.1587ZM127.559 17.3451C127.659 16.9521 127.821 16.5101 128.055 16.0167L125.787 14.9394C125.497 15.5496 125.273 16.1461 125.125 16.7266L127.559 17.3451ZM128.063 15.9999C128.271 15.5435 128.558 15.0968 128.932 14.6604L127.026 13.0259C126.512 13.6255 126.093 14.2687 125.779 14.9561L128.063 15.9999ZM128.948 14.6417C129.28 14.2387 129.695 13.9007 130.208 13.6294L129.035 11.4097C128.245 11.8271 127.565 12.3714 127.011 13.0447L128.948 14.6417ZM130.208 13.6294C130.662 13.3897 131.236 13.237 131.967 13.2115L131.879 10.7021C130.844 10.7383 129.884 10.9607 129.035 11.4097L130.208 13.6294ZM130.669 12.0006L130.793 15.5538L133.302 15.4662L133.178 11.913L130.669 12.0006ZM138.612 5.48235L139.867 5.43854L139.823 4.18386L138.569 4.22768L138.612 5.48235ZM138.732 8.91515L138.776 10.1698L140.031 10.126L139.987 8.87134L138.732 8.91515ZM134.185 9.07394L132.931 9.11775L132.974 10.3724L134.229 10.3286L134.185 9.07394ZM134.065 5.64114L134.022 4.38646L132.767 4.43027L132.811 5.68495L134.065 5.64114ZM134.596 12.1951L134.552 10.9404L133.297 10.9842L133.341 12.2389L134.596 12.1951ZM138.51 12.0584L139.765 12.0146L139.721 10.7599L138.467 10.8037L138.51 12.0584ZM139.033 27.0242L139.077 28.2789L140.331 28.2351L140.288 26.9804L139.033 27.0242ZM135.118 27.1609L133.864 27.2047L133.908 28.4594L135.162 28.4156L135.118 27.1609ZM137.358 5.52617L137.478 8.95897L139.987 8.87134L139.867 5.43854L137.358 5.52617ZM138.688 7.66048L134.141 7.81926L134.229 10.3286L138.776 10.1698L138.688 7.66048ZM135.44 9.03012L135.32 5.59732L132.811 5.68495L132.931 9.11775L135.44 9.03012ZM134.109 6.89582L138.656 6.73703L138.569 4.22768L134.022 4.38646L134.109 6.89582ZM134.64 13.4498L138.554 13.3131L138.467 10.8037L134.552 10.9404L134.64 13.4498ZM137.256 12.1022L137.778 27.068L140.288 26.9804L139.765 12.0146L137.256 12.1022ZM138.989 25.7695L135.075 25.9062L135.162 28.4156L139.077 28.2789L138.989 25.7695ZM136.373 27.1171L135.85 12.1513L133.341 12.2389L133.864 27.2047L136.373 27.1171ZM141.358 11.9589L141.315 10.7043L140.06 10.7481L140.104 12.0028L141.358 11.9589ZM152.982 11.553L154.236 11.5092L154.193 10.2546L152.938 10.2984L152.982 11.553ZM153.088 14.5944L153.132 15.8491L154.386 15.8053L154.343 14.5506L153.088 14.5944ZM141.465 15.0003L140.21 15.0441L140.254 16.2988L141.508 16.255L141.465 15.0003ZM145.07 7.72908L145.026 6.4744L143.771 6.51821L143.815 7.77289L145.07 7.72908ZM148.984 7.59238L150.239 7.54856L150.195 6.29388L148.94 6.3377L148.984 7.59238ZM149.65 26.6535L149.694 27.9081L150.948 27.8643L150.905 26.6096L149.65 26.6535ZM145.735 26.7902L144.481 26.834L144.524 28.0886L145.779 28.0448L145.735 26.7902ZM141.402 13.2136L153.025 12.8077L152.938 10.2984L141.315 10.7043L141.402 13.2136ZM151.727 11.5969L151.833 14.6382L154.343 14.5506L154.236 11.5092L151.727 11.5969ZM153.044 13.3397L141.421 13.7456L141.508 16.255L153.132 15.8491L153.044 13.3397ZM142.719 14.9565L142.613 11.9151L140.104 12.0028L140.21 15.0441L142.719 14.9565ZM145.114 8.98376L149.028 8.84706L148.94 6.3377L145.026 6.4744L145.114 8.98376ZM147.73 7.63619L148.395 26.6973L150.905 26.6096L150.239 7.54856L147.73 7.63619ZM149.606 25.3988L145.692 25.5355L145.779 28.0448L149.694 27.9081L149.606 25.3988ZM146.99 26.7463L146.324 7.68526L143.815 7.77289L144.481 26.834L146.99 26.7463ZM169.253 20.9943L169.209 19.7396L168.321 19.7706L168.055 20.618L169.253 20.9943ZM173.047 20.8618L174.293 21.013L174.47 19.5559L173.003 19.6071L173.047 20.8618ZM171.848 23.6473L170.875 22.854L170.869 22.861L170.864 22.868L171.848 23.6473ZM169.114 25.6421L168.617 24.489L169.114 25.6421ZM159.711 25.7594L159.261 26.9314L159.268 26.934L159.275 26.9366L159.711 25.7594ZM156.185 23.1993L157.184 22.4393L156.185 23.1993ZM155.86 14.7689L156.918 15.4452L156.923 15.4367L155.86 14.7689ZM159.108 11.9421L158.572 10.807L158.566 10.8098L159.108 11.9421ZM169.075 11.594L169.576 10.4427L169.075 11.594ZM172.065 14.3236L170.959 14.9169L170.964 14.9275L170.97 14.938L172.065 14.3236ZM173.045 19.0831L173.089 20.3378L174.281 20.2962L174.301 19.1039L173.045 19.0831ZM158.772 19.5815L158.728 18.3268L157.298 18.3768L157.534 19.7886L158.772 19.5815ZM159.688 21.6298L158.706 22.4126L158.714 22.4227L158.722 22.4326L159.688 21.6298ZM161.666 23.038L161.191 24.2002L161.202 24.2045L161.666 23.038ZM167.686 22.7374L168.297 23.8342L168.307 23.8285L167.686 22.7374ZM160.568 14.906L161.316 15.9144L161.324 15.9088L161.331 15.9031L160.568 14.906ZM158.903 17.2856L157.684 16.9866L157.288 18.5982L158.947 18.5403L158.903 17.2856ZM169.081 16.9302L169.125 18.1849L170.511 18.1365L170.325 16.7618L169.081 16.9302ZM167.552 14.6018L166.859 15.6483L166.873 15.6576L166.887 15.6665L167.552 14.6018ZM169.297 22.249L173.091 22.1165L173.003 19.6071L169.209 19.7396L169.297 22.249ZM171.801 20.7107C171.705 21.4973 171.404 22.2047 170.875 22.854L172.821 24.4405C173.641 23.4348 174.139 22.2852 174.293 21.013L171.801 20.7107ZM170.864 22.868C170.362 23.5013 169.634 24.0514 168.617 24.489L169.61 26.7952C170.93 26.2267 172.025 25.4469 172.832 24.4265L170.864 22.868ZM168.617 24.489C167.632 24.9133 166.359 25.1756 164.758 25.2314L164.846 27.7408C166.658 27.6775 168.259 27.3771 169.61 26.7952L168.617 24.489ZM164.758 25.2314C162.982 25.2935 161.453 25.0661 160.148 24.5823L159.275 26.9366C160.943 27.5549 162.807 27.812 164.846 27.7408L164.758 25.2314ZM160.161 24.5874C158.866 24.0899 157.891 23.3681 157.184 22.4393L155.186 23.9593C156.207 25.3017 157.582 26.2867 159.261 26.9314L160.161 24.5874ZM157.184 22.4393C156.501 21.541 156.108 20.411 156.058 18.9829L153.548 19.0705C153.614 20.9346 154.141 22.5864 155.186 23.9593L157.184 22.4393ZM156.058 18.9829C156.008 17.5483 156.314 16.3895 156.918 15.4452L154.803 14.0927C153.882 15.533 153.484 17.2128 153.548 19.0705L156.058 18.9829ZM156.923 15.4367C157.548 14.4426 158.442 13.6533 159.65 13.0744L158.566 10.8098C156.968 11.5751 155.696 12.6703 154.797 14.1011L156.923 15.4367ZM159.645 13.0772C160.883 12.4917 162.384 12.1493 164.178 12.0866L164.091 9.57727C162.03 9.64922 160.18 10.0468 158.572 10.807L159.645 13.0772ZM164.178 12.0866C166.023 12.0222 167.47 12.265 168.575 12.7454L169.576 10.4427C168.028 9.76953 166.181 9.50427 164.091 9.57727L164.178 12.0866ZM168.575 12.7454C169.65 13.2126 170.429 13.9296 170.959 14.9169L173.171 13.7304C172.368 12.2317 171.154 11.1289 169.576 10.4427L168.575 12.7454ZM170.97 14.938C171.513 15.905 171.82 17.2507 171.79 19.0623L174.301 19.1039C174.335 17.014 173.989 15.1867 173.16 13.7092L170.97 14.938ZM173.001 17.8284L158.728 18.3268L158.816 20.8362L173.089 20.3378L173.001 17.8284ZM157.534 19.7886C157.696 20.7601 158.091 21.6407 158.706 22.4126L160.669 20.847C160.318 20.4065 160.102 19.9216 160.01 19.3744L157.534 19.7886ZM158.722 22.4326C159.372 23.2143 160.208 23.7984 161.191 24.2002L162.141 21.8759C161.493 21.611 161.01 21.2564 160.653 20.8271L158.722 22.4326ZM161.202 24.2045C162.234 24.6153 163.394 24.7766 164.65 24.7327L164.562 22.2234C163.57 22.258 162.77 22.126 162.131 21.8716L161.202 24.2045ZM164.65 24.7327C166.028 24.6846 167.265 24.4089 168.297 23.8341L167.075 21.6406C166.49 21.9665 165.674 22.1846 164.562 22.2234L164.65 24.7327ZM168.307 23.8285C169.321 23.2513 170.112 22.4495 170.451 21.3706L168.055 20.618C167.96 20.921 167.706 21.2813 167.065 21.6463L168.307 23.8285ZM164.014 12.5647C162.387 12.6215 160.949 13.0345 159.806 13.9089L161.331 15.9031C161.95 15.4296 162.838 15.1182 164.102 15.074L164.014 12.5647ZM159.821 13.8976C158.739 14.6994 157.992 15.7296 157.684 16.9866L160.122 17.5847C160.271 16.9765 160.634 16.4203 161.316 15.9144L159.821 13.8976ZM158.947 18.5403L169.125 18.1849L169.037 15.6755L158.859 16.031L158.947 18.5403ZM170.325 16.7618C170.138 15.3781 169.406 14.2796 168.218 13.5371L166.887 15.6665C167.466 16.0281 167.753 16.4819 167.837 17.0986L170.325 16.7618ZM168.246 13.5554C167.09 12.7892 165.636 12.508 164.014 12.5647L164.102 15.074C165.41 15.0283 166.286 15.2688 166.859 15.6483L168.246 13.5554ZM175.671 10.7607L175.627 9.50604L174.373 9.54986L174.416 10.8045L175.671 10.7607ZM179.586 10.624L180.84 10.5802L180.797 9.32553L179.542 9.36934L179.586 10.624ZM180.108 25.5898L180.152 26.8445L181.407 26.8007L181.363 25.546L180.108 25.5898ZM176.194 25.7265L174.939 25.7703L174.983 27.025L176.237 26.9812L176.194 25.7265ZM185.45 13.6452L185.493 14.8999L186.748 14.8561L186.704 13.6014L185.45 13.6452ZM182.552 14.4097L183.163 15.5064L183.173 15.5006L183.184 15.4945L182.552 14.4097ZM179.628 17.8884L178.375 17.9551L180.829 18.256L179.628 17.8884ZM179.54 16.2333L178.286 16.1728L178.283 16.2364L178.287 16.2999L179.54 16.2333ZM179.744 15.171L180.958 15.4944L180.959 15.4873L180.961 15.4802L179.744 15.171ZM180.323 13.6132L181.457 14.1518L181.461 14.1435L181.465 14.1351L180.323 13.6132ZM181.382 11.9783L182.335 12.7955L182.343 12.7863L182.35 12.7768L181.382 11.9783ZM185.326 10.0919L186.58 10.0481L186.536 8.79345L185.282 8.83726L185.326 10.0919ZM175.715 12.0154L179.629 11.8787L179.542 9.36934L175.627 9.50604L175.715 12.0154ZM178.331 10.6678L178.854 25.6336L181.363 25.546L180.84 10.5802L178.331 10.6678ZM180.064 24.3351L176.15 24.4718L176.237 26.9812L180.152 26.8445L180.064 24.3351ZM177.448 25.6827L176.926 10.7169L174.416 10.8045L174.939 25.7703L177.448 25.6827ZM185.406 12.3905C184.116 12.4355 182.94 12.7309 181.92 13.3248L183.184 15.4945C183.779 15.1476 184.534 14.9334 185.493 14.8999L185.406 12.3905ZM181.941 13.3129C181.003 13.8355 180.216 14.4905 179.615 15.2914L181.623 16.7984C181.983 16.3196 182.484 15.8844 183.163 15.5064L181.941 13.3129ZM179.615 15.2914C179.072 16.0147 178.661 16.7581 178.428 17.5208L180.829 18.256C180.956 17.8404 181.206 17.3548 181.623 16.7984L179.615 15.2914ZM180.882 17.8218L180.794 16.1667L178.287 16.2999L178.375 17.9551L180.882 17.8218ZM180.794 16.2938C180.799 16.1907 180.838 15.9423 180.958 15.4944L178.531 14.8476C178.402 15.333 178.305 15.7927 178.286 16.1728L180.794 16.2938ZM180.961 15.4802C181.061 15.0873 181.223 14.6452 181.457 14.1518L179.189 13.0745C178.899 13.6848 178.675 14.2813 178.528 14.8617L180.961 15.4802ZM181.465 14.1351C181.674 13.6786 181.96 13.232 182.335 12.7955L180.429 11.1611C179.914 11.7606 179.496 12.4039 179.181 13.0912L181.465 14.1351ZM182.35 12.7768C182.682 12.3739 183.097 12.0358 183.611 11.7646L182.437 9.54484C181.647 9.96226 180.968 10.5066 180.413 11.1798L182.35 12.7768ZM183.611 11.7646C184.064 11.5249 184.638 11.3721 185.369 11.3466L185.282 8.83726C184.246 8.87342 183.286 9.09585 182.437 9.54484L183.611 11.7646ZM184.071 10.1358L184.195 13.689L186.704 13.6014L186.58 10.0481L184.071 10.1358Z" fill="#101010" mask="url(#path-1-outside-1_21_633)"/>
<path d="M11.7027 14.0292C12.1416 13.1652 12.4789 12.2275 12.9411 10.7955C13.5021 12.1918 13.9041 13.1036 14.4021 13.935C15.9206 16.4698 18.1239 18.5245 20.7586 19.8625C21.6226 20.3013 22.5602 20.6386 23.9923 21.1009C22.596 21.6618 21.6842 22.0638 20.8528 22.5618C18.3179 24.0803 16.2633 26.2837 14.9253 28.9183C14.4865 29.7823 14.1491 30.72 13.6869 32.152C13.1259 30.7557 12.724 29.8439 12.226 29.0125C10.7075 26.4777 8.50413 24.423 5.8695 23.085C5.00545 22.6462 4.06782 22.3089 2.63574 21.8466C4.03209 21.2857 4.9439 20.8837 5.77524 20.3857C8.31011 18.8672 10.3648 16.6638 11.7027 14.0292Z" stroke="#101010" stroke-width="1.25544"/>
</svg>
