<svg width="286" height="40" viewBox="0 0 286 40" fill="none" xmlns="http://www.w3.org/2000/svg">
<mask id="path-1-outside-1_21_618" maskUnits="userSpaceOnUse" x="39.1324" y="1.96392" width="247.931" height="39.6013" fill="black">
<rect fill="white" x="39.1324" y="1.96392" width="247.931" height="39.6013"/>
<path d="M41.7291 26.935L45.7942 26.793C45.8984 27.4727 46.2313 28.0842 46.7929 28.6274C47.3739 29.1498 48.1217 29.5558 49.0363 29.8454C49.9502 30.115 50.9692 30.2302 52.0934 30.1909C53.1173 30.1552 53.9565 30.0153 54.6113 29.7713C55.2661 29.5274 55.747 29.199 56.0542 28.7863C56.3614 28.3736 56.5052 27.8862 56.4855 27.3241C56.4666 26.7821 56.2515 26.3776 55.8402 26.1105C55.4282 25.8234 54.7874 25.6046 53.9179 25.4541C53.0476 25.2835 51.9064 25.1224 50.4941 24.9707C49.3844 24.8486 48.3328 24.6643 47.3393 24.4176C46.3451 24.1508 45.4586 23.7999 44.6796 23.3648C43.9207 22.929 43.3089 22.3876 42.8441 21.7405C42.3987 21.0727 42.1599 20.2771 42.1276 19.3536C42.0877 18.2094 42.3738 17.1944 42.9861 16.3088C43.6184 15.4224 44.5685 14.7159 45.8365 14.1892C47.1045 13.6626 48.6719 13.3666 50.5389 13.3015C53.3494 13.2033 55.5284 13.7302 57.0761 14.8821C58.6432 16.0132 59.4431 17.6234 59.4758 19.7126L55.5612 19.8493C55.4396 18.6677 54.9079 17.832 53.9662 17.3423C53.0446 16.8519 51.8913 16.6309 50.5061 16.6793C49.2213 16.7242 48.164 16.952 47.3342 17.3629C46.5244 17.773 46.1357 18.4399 46.1679 19.3633C46.1805 19.7246 46.2921 20.0423 46.5027 20.3164C46.7126 20.5703 47.0619 20.7893 47.5507 20.9732C48.0395 21.1571 48.6986 21.3251 49.528 21.477C50.3573 21.6289 51.3875 21.7738 52.6183 21.9117C53.7682 22.0324 54.8098 22.2171 55.743 22.4659C56.6957 22.6939 57.5109 23.0172 58.1888 23.4357C58.8861 23.8335 59.427 24.3572 59.8115 25.0071C60.1959 25.657 60.405 26.4637 60.4387 27.4273C60.48 28.6117 60.205 29.6564 59.6135 30.5614C59.0414 31.4457 58.1213 32.1511 56.8534 32.6778C55.6055 33.2038 53.9678 33.5021 51.9402 33.5729C50.4948 33.6234 49.2148 33.5174 48.1002 33.2548C46.9848 32.9722 46.0166 32.5839 45.1953 32.09C44.3741 31.5961 43.7017 31.0467 43.1781 30.4419C42.6545 29.8371 42.2714 29.2274 42.0289 28.6128C41.8064 27.9975 41.7065 27.4382 41.7291 26.935ZM74.5625 32.7227C73.2376 32.7689 72.0953 32.5777 71.1357 32.1489C70.1954 31.6993 69.4209 31.1033 68.812 30.3608C68.2025 29.5982 67.7411 28.7601 67.4278 27.8465C67.1145 26.9328 66.9425 26.0344 66.9116 25.1511C66.8731 24.047 66.9678 23.0186 67.1958 22.066C67.4439 21.1126 67.8468 20.2745 68.4044 19.5515C68.9614 18.8085 69.6945 18.2201 70.604 17.7864C71.5335 17.3519 72.6707 17.1112 74.0157 17.0643C75.5213 17.0117 76.888 17.2956 78.1156 17.916C79.3432 18.5364 80.329 19.4266 81.073 20.5865C81.8364 21.7256 82.245 23.068 82.299 24.6138C82.3544 26.1997 82.0414 27.5975 81.3601 28.8071C80.678 29.9967 79.746 30.9337 78.5639 31.6182C77.3819 32.3026 76.0481 32.6708 74.5625 32.7227ZM73.1916 29.7255C74.2556 29.6883 75.172 29.4553 75.9409 29.0265C76.7299 28.597 77.3229 28.0235 77.7199 27.3062C78.1363 26.5681 78.3277 25.7172 78.2941 24.7536C78.2436 23.3082 77.7412 22.16 76.7869 21.309C75.8527 20.4572 74.5425 20.0608 72.8562 20.1197C71.7922 20.1568 70.8252 20.3815 69.9553 20.7938C69.1054 21.2054 68.4421 21.7813 67.9655 22.5215C67.4881 23.2416 67.2673 24.1136 67.3031 25.1374C67.3367 26.101 67.597 26.9361 68.084 27.6427C68.5703 28.3292 69.252 28.8581 70.1292 29.2294C71.0065 29.6008 72.0273 29.7661 73.1916 29.7255ZM63.1267 17.7762L66.8606 17.6458L67.1801 21.6143L67.7742 38.6277L63.8596 38.7644L63.1267 17.7762ZM98.9069 26.5362L102.701 26.4037C102.576 27.4331 102.176 28.3616 101.502 29.1891C100.847 30.0159 99.936 30.6809 98.7677 31.184C97.5994 31.6871 96.1621 31.9684 94.4557 32.028C92.5486 32.0946 90.8518 31.8523 89.3653 31.3013C87.8781 30.7301 86.7026 29.8767 85.8389 28.7411C84.9752 27.6055 84.5146 26.2147 84.4571 24.5685C84.3996 22.9224 84.752 21.5031 85.5144 20.3108C86.276 19.0983 87.3586 18.156 88.7622 17.4839C90.1858 16.8111 91.8613 16.4411 93.7884 16.3738C95.7558 16.3051 97.4027 16.5591 98.7293 17.1359C100.056 17.7126 101.052 18.6225 101.719 19.8655C102.405 21.0877 102.732 22.6742 102.699 24.6249L88.426 25.1234C88.553 25.8827 88.8582 26.5655 89.3417 27.1717C89.8452 27.7772 90.5048 28.2466 91.3204 28.5799C92.1561 28.9125 93.136 29.0592 94.2602 29.0199C95.5048 28.9764 96.5313 28.7295 97.3397 28.2792C98.1674 27.8081 98.6898 27.2271 98.9069 26.5362ZM93.7119 19.3612C92.2665 19.4117 91.1033 19.7739 90.2224 20.4478C89.3408 21.1017 88.7856 21.8949 88.5568 22.8275L98.7348 22.4721C98.5994 21.4718 98.0899 20.6957 97.2063 20.1437C96.3422 19.5709 95.1773 19.31 93.7119 19.3612ZM119.315 25.8235L123.109 25.691C122.984 26.7204 122.585 27.6489 121.91 28.4764C121.256 29.3033 120.344 29.9682 119.176 30.4713C118.008 30.9744 116.57 31.2557 114.864 31.3153C112.957 31.3819 111.26 31.1397 109.773 30.5886C108.286 30.0175 107.111 29.1641 106.247 28.0285C105.383 26.8929 104.923 25.502 104.865 23.8559C104.808 22.2097 105.16 20.7905 105.922 19.5981C106.684 18.3856 107.767 17.4434 109.17 16.7713C110.594 16.0985 112.269 15.7284 114.197 15.6611C116.164 15.5924 117.811 15.8465 119.137 16.4232C120.464 17 121.461 17.9098 122.127 19.1528C122.813 20.375 123.14 21.9615 123.107 23.9123L108.834 24.4107C108.961 25.17 109.266 25.8528 109.75 26.459C110.253 27.0645 110.913 27.5339 111.729 27.8672C112.564 28.1998 113.544 28.3465 114.668 28.3072C115.913 28.2638 116.939 28.0169 117.748 27.5666C118.576 27.0955 119.098 26.5145 119.315 25.8235ZM114.12 18.6486C112.675 18.699 111.511 19.0612 110.631 19.7352C109.749 20.389 109.194 21.1823 108.965 22.1148L119.143 21.7594C119.007 20.7591 118.498 19.983 117.614 19.431C116.75 18.8582 115.585 18.5974 114.12 18.6486ZM143.816 24.0333C143.761 25.3417 143.379 26.4806 142.669 27.45C141.979 28.4188 141.001 29.1765 139.733 29.7233C138.465 30.2499 136.948 30.5441 135.182 30.6058C133.335 30.6703 131.668 30.437 130.183 29.906C128.716 29.3543 127.541 28.521 126.658 27.4061C125.795 26.2705 125.333 24.8496 125.273 23.1432C125.214 21.4368 125.575 19.9871 126.358 18.794C127.16 17.6003 128.273 16.677 129.698 16.0243C131.142 15.3709 132.788 15.0119 134.635 14.9474C136.401 14.8857 137.926 15.0837 139.208 15.5414C140.49 15.9791 141.508 16.647 142.263 17.5452C143.038 18.4427 143.508 19.5418 143.674 20.8424L140.091 20.9676C139.715 19.9757 139.055 19.2149 138.112 18.6851C137.169 18.1552 136.045 17.9131 134.74 17.9586C133.696 17.9951 132.749 18.2091 131.898 18.6006C131.068 18.9913 130.404 19.5572 129.907 20.2981C129.43 21.0183 129.21 21.9204 129.248 23.0044C129.285 24.0684 129.567 24.9529 130.095 25.6581C130.621 26.3432 131.322 26.8513 132.198 27.1826C133.073 27.4937 134.033 27.631 135.076 27.5946C136.482 27.5455 137.616 27.2245 138.48 26.6315C139.364 26.0379 139.948 25.2135 140.233 24.1584L143.816 24.0333ZM160.57 29.3574L160.283 21.1368C160.254 20.3137 160.09 19.6361 159.79 19.1039C159.49 18.5716 159.024 18.1759 158.392 17.9166C157.78 17.6566 156.962 17.5444 155.938 17.5802C154.954 17.6145 154.068 17.8364 153.278 18.2459C152.488 18.6353 151.852 19.1399 151.371 19.7596C150.89 20.3593 150.63 20.9915 150.593 21.656L150.505 20.0009C150.582 19.3349 150.79 18.6644 151.128 17.9893C151.467 17.3142 151.927 16.6952 152.511 16.1321C153.094 15.5691 153.802 15.1122 154.634 14.7616C155.485 14.3901 156.443 14.1859 157.506 14.1487C158.43 14.1165 159.287 14.2071 160.079 14.4207C160.869 14.6142 161.564 14.9416 162.163 15.4031C162.762 15.8646 163.235 16.451 163.581 17.1625C163.927 17.8539 164.117 18.6814 164.15 19.645L164.485 29.2207L160.57 29.3574ZM147.17 29.8254L146.437 8.8371L150.352 8.70039L151.085 29.6887L147.17 29.8254ZM173.729 13.9138L185.353 13.5079L185.459 16.5493L173.836 16.9552L173.729 13.9138ZM177.441 9.68397L181.355 9.54727L182.021 28.6083L178.106 28.745L177.441 9.68397ZM196.992 28.4473C195.105 28.5132 193.428 28.2703 191.962 27.7185C190.515 27.166 189.371 26.3317 188.528 25.2155C187.684 24.0792 187.233 22.6679 187.174 20.9816C187.115 19.2953 187.467 17.856 188.229 16.6636C188.991 15.4511 190.074 14.5189 191.478 13.8669C192.902 13.2141 194.558 12.8548 196.445 12.7889C198.332 12.723 199.989 12.9667 201.415 13.5199C202.862 14.0723 204.007 14.9268 204.851 16.0831C205.695 17.2194 206.146 18.6307 206.205 20.317C206.264 22.0033 205.912 23.4426 205.15 24.635C204.387 25.8073 203.303 26.7195 201.899 27.3715C200.515 28.0228 198.879 28.3814 196.992 28.4473ZM196.887 25.4361C197.931 25.3996 198.858 25.1864 199.668 24.7963C200.498 24.3854 201.142 23.8203 201.599 23.1008C202.056 22.3613 202.266 21.4796 202.23 20.4558C202.194 19.432 201.923 18.5672 201.416 17.8613C200.908 17.1353 200.236 16.596 199.4 16.2433C198.563 15.8907 197.613 15.7329 196.549 15.7701C195.505 15.8065 194.569 16.0302 193.739 16.441C192.909 16.8519 192.256 17.4274 191.779 18.1677C191.322 18.9072 191.112 19.7989 191.149 20.8428C191.185 21.8666 191.456 22.7314 191.963 23.4373C192.469 24.1231 193.151 24.642 194.007 24.994C194.863 25.3259 195.823 25.4733 196.887 25.4361ZM213.531 8.00156L234.068 7.28441L234.185 10.6269L213.648 11.344L213.531 8.00156ZM221.914 10.6333L225.919 10.4934L226.498 27.0552L222.493 27.195L221.914 10.6333ZM248.174 21.3236L251.969 21.1911C251.844 22.2206 251.444 23.149 250.769 23.9766C250.115 24.8034 249.203 25.4683 248.035 25.9714C246.867 26.4745 245.43 26.7558 243.723 26.8154C241.816 26.882 240.119 26.6398 238.633 26.0887C237.146 25.5176 235.97 24.6642 235.106 23.5286C234.243 22.393 233.782 21.0021 233.725 19.356C233.667 17.7099 234.02 16.2906 234.782 15.0982C235.544 13.8858 236.626 12.9435 238.03 12.2714C239.453 11.5986 241.129 11.2286 243.056 11.1613C245.023 11.0926 246.67 11.3466 247.997 11.9233C249.323 12.5001 250.32 13.41 250.986 14.6529C251.672 15.8751 251.999 17.4616 251.967 19.4124L237.693 19.9108C237.821 20.6702 238.126 21.3529 238.609 21.9591C239.113 22.5646 239.772 23.034 240.588 23.3673C241.424 23.6999 242.404 23.8466 243.528 23.8074C244.772 23.7639 245.799 23.517 246.607 23.0667C247.435 22.5956 247.957 22.0146 248.174 21.3236ZM242.979 14.1487C241.534 14.1992 240.371 14.5614 239.49 15.2353C238.608 15.8892 238.053 16.6824 237.824 17.6149L248.002 17.2595C247.867 16.2593 247.357 15.4831 246.474 14.9311C245.61 14.3583 244.445 14.0975 242.979 14.1487ZM270.869 10.5216L263.392 19.134L258.022 25.9543L253.234 26.1215L261.029 17.076L266.112 10.6878L270.869 10.5216ZM252.712 11.1557L257.5 10.9885L263.375 16.9337L271.814 25.4727L267.026 25.6399L260.986 19.3085L252.712 11.1557ZM272.653 10.4593L284.276 10.0535L284.382 13.0948L272.759 13.5007L272.653 10.4593ZM276.364 6.22948L280.279 6.09278L280.944 25.1539L277.03 25.2906L276.364 6.22948Z"/>
</mask>
<path d="M41.7291 26.935L41.6853 25.6803L40.527 25.7207L40.4749 26.8786L41.7291 26.935ZM45.7942 26.793L47.0352 26.6029L46.8661 25.4994L45.7504 25.5383L45.7942 26.793ZM46.7929 28.6274L45.9202 29.5298L45.9366 29.5457L45.9535 29.5609L46.7929 28.6274ZM49.0363 29.8454L48.6573 31.0423L48.6692 31.046L48.6811 31.0496L49.0363 29.8454ZM54.6113 29.7713L55.0496 30.9478L54.6113 29.7713ZM56.0542 28.7863L57.0613 29.5359L57.0613 29.5359L56.0542 28.7863ZM55.8402 26.1105L55.1224 27.1406L55.1393 27.1523L55.1566 27.1635L55.8402 26.1105ZM53.9179 25.4541L53.6763 26.6861L53.69 26.6888L53.7037 26.6911L53.9179 25.4541ZM50.4941 24.9707L50.3569 26.2186L50.3601 26.2189L50.4941 24.9707ZM47.3393 24.4176L47.014 25.6301L47.0253 25.6332L47.0368 25.636L47.3393 24.4176ZM44.6796 23.3648L44.0544 24.4535L44.0609 24.4572L44.0674 24.4609L44.6796 23.3648ZM42.8441 21.7405L41.7996 22.4371L41.8117 22.4553L41.8244 22.473L42.8441 21.7405ZM42.9861 16.3088L41.964 15.5796L41.9586 15.5872L41.9533 15.5949L42.9861 16.3088ZM45.8365 14.1892L45.3549 13.0298L45.8365 14.1892ZM57.0761 14.8821L56.3265 15.8892L56.3339 15.8947L56.3413 15.9001L57.0761 14.8821ZM59.4758 19.7126L59.5196 20.9673L60.7504 20.9243L60.7311 19.6929L59.4758 19.7126ZM55.5612 19.8493L54.3124 19.9779L54.4325 21.1449L55.605 21.104L55.5612 19.8493ZM53.9662 17.3423L53.3765 18.4507L53.387 18.4562L53.9662 17.3423ZM47.3342 17.3629L46.7771 16.2377L46.7669 16.2429L47.3342 17.3629ZM46.5027 20.3164L45.5072 21.0813L45.5207 21.0989L45.5349 21.1161L46.5027 20.3164ZM47.5507 20.9732L47.1086 22.1482L47.1086 22.1482L47.5507 20.9732ZM49.528 21.477L49.7542 20.2421L49.528 21.477ZM52.6183 21.9117L52.4786 23.1594L52.4874 23.1603L52.6183 21.9117ZM55.743 22.4659L55.4196 23.679L55.4352 23.6831L55.4508 23.6869L55.743 22.4659ZM58.1888 23.4357L57.5293 24.504L57.5479 24.5154L57.5668 24.5262L58.1888 23.4357ZM59.6135 30.5614L58.5626 29.8746L58.5594 29.8795L59.6135 30.5614ZM56.8534 32.6778L56.3718 31.5184L56.3658 31.5209L56.8534 32.6778ZM48.1002 33.2548L47.7918 34.4718L47.802 34.4744L47.8123 34.4768L48.1002 33.2548ZM45.1953 32.09L44.5483 33.1658L44.5483 33.1658L45.1953 32.09ZM43.1781 30.4419L42.2289 31.2637L42.2289 31.2637L43.1781 30.4419ZM42.0289 28.6128L40.8482 29.0397L40.8544 29.0568L40.8611 29.0737L42.0289 28.6128ZM41.7729 28.1896L45.8381 28.0477L45.7504 25.5383L41.6853 25.6803L41.7729 28.1896ZM44.5533 26.9831C44.7045 27.9705 45.1893 28.8231 45.9202 29.5298L47.6657 27.7249C47.2732 27.3453 47.0922 26.975 47.0352 26.6029L44.5533 26.9831ZM45.9535 29.5609C46.6942 30.2269 47.6102 30.7107 48.6573 31.0423L49.4154 28.6486C48.6333 28.4009 48.0537 28.0726 47.6323 27.6938L45.9535 29.5609ZM48.6811 31.0496C49.7454 31.3635 50.9019 31.4887 52.1373 31.4456L52.0496 28.9362C51.0366 28.9716 50.155 28.8665 49.3915 28.6413L48.6811 31.0496ZM52.1373 31.4456C53.2391 31.4071 54.2243 31.2553 55.0496 30.9478L54.173 28.5949C53.6888 28.7753 52.9955 28.9032 52.0496 28.9362L52.1373 31.4456ZM55.0496 30.9478C55.8523 30.6487 56.5665 30.2007 57.0613 29.5359L55.0471 28.0368C54.9276 28.1974 54.6798 28.4061 54.173 28.5949L55.0496 30.9478ZM57.0613 29.5359C57.5549 28.8728 57.7688 28.099 57.7402 27.2803L55.2309 27.3679C55.2415 27.6734 55.1679 27.8745 55.0471 28.0368L57.0613 29.5359ZM57.7402 27.2803C57.7088 26.3795 57.3191 25.5739 56.5238 25.0575L55.1566 27.1635C55.1793 27.1783 55.1899 27.1888 55.1938 27.193C55.1974 27.1968 55.1994 27.1997 55.2015 27.2037C55.2045 27.2093 55.2268 27.2528 55.2309 27.3679L57.7402 27.2803ZM56.5579 25.0805C55.9213 24.6369 55.0655 24.3787 54.132 24.2171L53.7037 26.6911C54.5093 26.8306 54.935 27.01 55.1224 27.1406L56.5579 25.0805ZM54.1594 24.2221C53.239 24.0417 52.0579 23.876 50.6282 23.7224L50.3601 26.2189C51.7549 26.3687 52.8562 26.5253 53.6763 26.6861L54.1594 24.2221ZM50.6314 23.7228C49.5724 23.6063 48.5764 23.4312 47.6419 23.1991L47.0368 25.636C48.0893 25.8974 49.1964 26.091 50.3569 26.2186L50.6314 23.7228ZM47.6647 23.205C46.7556 22.9611 45.9677 22.6463 45.2918 22.2687L44.0674 24.4609C44.9494 24.9535 45.9347 25.3405 47.014 25.6301L47.6647 23.205ZM45.3048 22.2761C44.6859 21.9207 44.2141 21.4958 43.8637 21.0081L41.8244 22.473C42.4037 23.2794 43.1556 23.9373 44.0544 24.4535L45.3048 22.2761ZM43.8885 21.0439C43.591 20.5978 43.4077 20.0363 43.3823 19.3098L40.8729 19.3975C40.9121 20.5179 41.2064 21.5476 41.7996 22.4371L43.8885 21.0439ZM43.3823 19.3098C43.3511 18.4172 43.5701 17.6717 44.0188 17.0227L41.9533 15.5949C41.1775 16.7172 40.8242 18.0015 40.8729 19.3975L43.3823 19.3098ZM44.0081 17.0379C44.4726 16.3868 45.2108 15.8086 46.3181 15.3486L45.3549 13.0298C43.9263 13.6232 42.7642 14.458 41.964 15.5796L44.0081 17.0379ZM46.3181 15.3486C47.4068 14.8964 48.8155 14.6178 50.5827 14.5561L50.4951 12.0468C48.5283 12.1155 46.8021 12.4287 45.3549 13.0298L46.3181 15.3486ZM50.5827 14.5561C53.2346 14.4635 55.0917 14.9701 56.3265 15.8892L57.8257 13.875C55.9652 12.4903 53.4641 11.9431 50.4951 12.0468L50.5827 14.5561ZM56.3413 15.9001C57.5579 16.7782 58.1934 18.002 58.2205 19.7323L60.7311 19.6929C60.6927 17.2448 59.7284 15.2483 57.8109 13.8642L56.3413 15.9001ZM59.432 18.4579L55.5174 18.5946L55.605 21.104L59.5196 20.9673L59.432 18.4579ZM56.8101 19.7207C56.6512 18.1779 55.9115 16.9389 54.5455 16.2285L53.387 18.4562C53.9043 18.7252 54.2279 19.1575 54.3124 19.9779L56.8101 19.7207ZM54.556 16.234C53.3861 15.6115 51.9979 15.371 50.4623 15.4246L50.5499 17.934C51.7846 17.8908 52.7032 18.0924 53.3765 18.4506L54.556 16.234ZM50.4623 15.4246C49.064 15.4734 47.8163 15.7233 46.7771 16.2378L47.8912 18.488C48.5117 18.1808 49.3786 17.9749 50.5499 17.934L50.4623 15.4246ZM46.7669 16.2429C46.1849 16.5377 45.6871 16.9614 45.3507 17.5383C45.0152 18.1138 44.8905 18.7556 44.9132 19.4071L47.4226 19.3195C47.4131 19.0475 47.4666 18.8943 47.5199 18.8029C47.5723 18.7131 47.6737 18.5982 47.9015 18.4828L46.7669 16.2429ZM44.9132 19.4071C44.9345 20.0171 45.1295 20.5898 45.5072 21.0813L47.4982 19.5515C47.4547 19.4949 47.4265 19.4322 47.4226 19.3195L44.9132 19.4071ZM45.5349 21.1161C45.9431 21.6101 46.5234 21.928 47.1086 22.1482L47.9928 19.7982C47.8071 19.7283 47.6767 19.6623 47.5888 19.6073C47.5457 19.5803 47.5161 19.5579 47.4969 19.5417C47.4874 19.5336 47.4808 19.5274 47.4765 19.5231C47.4723 19.5188 47.4704 19.5166 47.4705 19.5167L45.5349 21.1161ZM47.1086 22.1482C47.6966 22.3695 48.4377 22.5536 49.3018 22.7119L49.7542 20.2421C48.9595 20.0965 48.3824 19.9448 47.9928 19.7982L47.1086 22.1482ZM49.3018 22.7119C50.1696 22.8709 51.2308 23.0196 52.4786 23.1594L52.7581 20.6641C51.5442 20.5281 50.5451 20.387 49.7542 20.2421L49.3018 22.7119ZM52.4874 23.1603C53.5845 23.2754 54.5604 23.4499 55.4196 23.679L56.0664 21.2528C55.0592 20.9843 53.9519 20.7893 52.7493 20.6632L52.4874 23.1603ZM55.4508 23.6869C56.3023 23.8907 56.9876 24.1695 57.5293 24.504L58.8483 22.3675C58.0343 21.8649 57.0891 21.4972 56.0353 21.245L55.4508 23.6869ZM57.5668 24.5262C58.087 24.823 58.4646 25.1961 58.731 25.6464L60.892 24.3678C60.3894 23.5184 59.6852 22.8439 58.8109 22.3452L57.5668 24.5262ZM58.731 25.6464C58.9829 26.0721 59.1557 26.6606 59.184 27.4711L61.6933 27.3835C61.6543 26.2667 61.409 25.2418 60.892 24.3678L58.731 25.6464ZM59.184 27.4711C59.2172 28.4229 58.9988 29.2072 58.5626 29.8746L60.6644 31.2482C61.4111 30.1056 61.7428 28.8005 61.6933 27.3835L59.184 27.4711ZM58.5594 29.8795C58.1618 30.494 57.4757 31.0599 56.3718 31.5184L57.335 33.8372C58.767 33.2424 59.9209 32.3974 60.6675 31.2434L58.5594 29.8795ZM56.3658 31.5209C55.3104 31.9657 53.8399 32.2504 51.8964 32.3183L51.984 34.8276C54.0956 34.7539 55.9006 34.4418 57.341 33.8347L56.3658 31.5209ZM51.8964 32.3183C50.5347 32.3658 49.37 32.2641 48.388 32.0328L47.8123 34.4768C49.0597 34.7706 50.4549 34.881 51.984 34.8276L51.8964 32.3183ZM48.4086 32.0378C47.3893 31.7795 46.5396 31.4335 45.8424 31.0141L44.5483 33.1658C45.4935 33.7343 46.5803 34.1648 47.7918 34.4718L48.4086 32.0378ZM45.8424 31.0141C45.1129 30.5754 44.549 30.1073 44.1273 29.6202L42.2289 31.2637C42.8544 31.9861 43.6354 32.6168 44.5483 33.1658L45.8424 31.0141ZM44.1273 29.6202C43.6775 29.1007 43.3776 28.6104 43.1967 28.152L40.8611 29.0737C41.1653 29.8445 41.6315 30.5736 42.2289 31.2637L44.1273 29.6202ZM43.2095 28.1859C43.027 27.6813 42.9699 27.2891 42.9833 26.9913L40.4749 26.8786C40.443 27.5873 40.5857 28.3138 40.8482 29.0397L43.2095 28.1859ZM71.1357 32.1489L70.5941 33.2815L70.6087 33.2885L70.6235 33.2951L71.1357 32.1489ZM68.812 30.3608L67.8314 31.1446L67.8363 31.1508L67.8412 31.1568L68.812 30.3608ZM67.4278 27.8465L68.6154 27.4392L67.4278 27.8465ZM67.1958 22.066L65.9809 21.7498L65.9777 21.7617L65.9749 21.7737L67.1958 22.066ZM68.4044 19.5515L69.3985 20.3183L69.4038 20.3115L69.409 20.3045L68.4044 19.5515ZM70.604 17.7864L70.0724 16.649L70.0635 16.6532L70.604 17.7864ZM78.1156 17.916L78.6819 16.7955L78.1156 17.916ZM81.073 20.5865L80.0163 21.2643L80.0231 21.2749L80.0301 21.2853L81.073 20.5865ZM81.3601 28.8071L82.4492 29.4316L82.4539 29.4232L81.3601 28.8071ZM78.5639 31.6182L79.193 32.7046L78.5639 31.6182ZM75.9409 29.0265L75.3406 27.9238L75.3294 27.9301L75.9409 29.0265ZM77.7199 27.3062L76.6265 26.6893L76.6215 26.6982L77.7199 27.3062ZM76.7869 21.309L75.941 22.2367L75.9513 22.2459L76.7869 21.309ZM69.9553 20.7938L69.4176 19.6593L69.4081 19.6639L69.9553 20.7938ZM67.9655 22.5215L69.0119 23.2151L69.0165 23.2082L69.021 23.2012L67.9655 22.5215ZM68.084 27.6427L67.0503 28.3551L67.0549 28.3617L67.0595 28.3683L68.084 27.6427ZM70.1292 29.2294L69.6398 30.3856L69.6398 30.3856L70.1292 29.2294ZM63.1267 17.7762L63.0828 16.5215L61.8282 16.5653L61.872 17.82L63.1267 17.7762ZM66.8606 17.6458L68.112 17.545L68.0157 16.3492L66.8168 16.3911L66.8606 17.6458ZM67.1801 21.6143L68.4347 21.5705L68.4337 21.542L68.4315 21.5135L67.1801 21.6143ZM67.7742 38.6277L67.818 39.8824L69.0727 39.8386L69.0289 38.5839L67.7742 38.6277ZM63.8596 38.7644L62.6049 38.8082L62.6487 40.0629L63.9034 40.0191L63.8596 38.7644ZM74.5187 31.468C73.3364 31.5093 72.3933 31.3357 71.6478 31.0027L70.6235 33.2951C71.7973 33.8196 73.1388 34.0286 74.6064 33.9773L74.5187 31.468ZM71.6772 31.0163C70.8886 30.6392 70.2653 30.1531 69.7829 29.5648L67.8412 31.1568C68.5764 32.0535 69.5022 32.7595 70.5941 33.2815L71.6772 31.0163ZM69.7927 29.577C69.2723 28.9259 68.8814 28.2149 68.6154 27.4392L66.2403 28.2537C66.6009 29.3053 67.1327 30.2706 67.8314 31.1446L69.7927 29.577ZM68.6154 27.4392C68.3386 26.632 68.1924 25.8559 68.1663 25.1073L65.6569 25.1949C65.6925 26.2129 65.8905 27.2337 66.2403 28.2537L68.6154 27.4392ZM68.1663 25.1073C68.1312 24.102 68.2182 23.1879 68.4168 22.3582L65.9749 21.7737C65.7174 22.8493 65.6149 23.9919 65.6569 25.1949L68.1663 25.1073ZM68.4108 22.3822C68.6197 21.5793 68.952 20.8972 69.3985 20.3183L67.4103 18.7848C66.7416 19.6518 66.2681 20.646 65.9809 21.7498L68.4108 22.3822ZM69.409 20.3045C69.8341 19.7374 70.4022 19.2735 71.1444 18.9195L70.0635 16.6532C68.9869 17.1667 68.0887 17.8796 67.3999 18.7986L69.409 20.3045ZM71.1356 18.9237C71.8723 18.5794 72.8333 18.3618 74.0595 18.3189L73.9719 15.8096C72.5082 15.8607 71.1946 16.1245 70.0724 16.649L71.1356 18.9237ZM74.0595 18.3189C75.3744 18.273 76.5281 18.5204 77.5493 19.0365L78.6819 16.7955C77.2478 16.0708 75.6683 15.7504 73.9719 15.8096L74.0595 18.3189ZM77.5493 19.0365C78.5765 19.5556 79.3931 20.2927 80.0163 21.2643L82.1297 19.9086C81.265 18.5604 80.1099 17.5173 78.6819 16.7955L77.5493 19.0365ZM80.0301 21.2853C80.6471 22.206 80.9974 23.3149 81.0443 24.6576L83.5537 24.5699C83.4926 22.8211 83.0256 21.2451 82.1159 19.8876L80.0301 21.2853ZM81.0443 24.6576C81.0928 26.0466 80.8189 27.2098 80.2662 28.191L82.4539 29.4232C83.264 27.9851 83.6159 26.3528 83.5537 24.5699L81.0443 24.6576ZM80.2709 28.1827C79.6984 29.1812 78.9248 29.9585 77.9348 30.5317L79.193 32.7046C80.5672 31.9089 81.6576 30.8122 82.4492 29.4315L80.2709 28.1827ZM77.9348 30.5317C76.9466 31.104 75.8169 31.4226 74.5187 31.468L74.6064 33.9773C76.2792 33.9189 77.8172 33.5013 79.193 32.7046L77.9348 30.5317ZM73.2354 30.9802C74.4573 30.9375 75.5768 30.6671 76.5524 30.1229L75.3294 27.9301C74.7673 28.2436 74.0539 28.4392 73.1478 28.4708L73.2354 30.9802ZM76.5412 30.1291C77.5191 29.5967 78.2947 28.8602 78.8184 27.9141L76.6215 26.6982C76.3511 27.1868 75.9407 27.5972 75.3406 27.9239L76.5412 30.1291ZM78.8134 27.923C79.3583 26.9572 79.5893 25.8717 79.5487 24.7098L77.0394 24.7974C77.0661 25.5627 76.9144 26.179 76.6265 26.6893L78.8134 27.923ZM79.5487 24.7098C79.488 22.9712 78.8671 21.4819 77.6225 20.372L75.9513 22.2459C76.6153 22.8381 76.9992 23.6452 77.0394 24.7974L79.5487 24.7098ZM77.6328 20.3812C76.3838 19.2425 74.7136 18.7986 72.8124 18.865L72.9 21.3743C74.3713 21.323 75.3217 21.6719 75.9411 22.2367L77.6328 20.3812ZM72.8124 18.865C71.5955 18.9075 70.4579 19.1663 69.4176 19.6593L70.4929 21.9283C71.1925 21.5967 71.9889 21.4062 72.9 21.3743L72.8124 18.865ZM69.4081 19.6639C68.3663 20.1684 67.5205 20.8935 66.9099 21.8418L69.021 23.2012C69.3637 22.669 69.8445 22.2423 70.5024 21.9237L69.4081 19.6639ZM66.919 21.8279C66.2718 22.8043 66.0053 23.9458 66.0484 25.1812L68.5578 25.0936C68.5294 24.2814 68.7044 23.6789 69.0119 23.2151L66.919 21.8279ZM66.0484 25.1812C66.0894 26.3537 66.4111 27.4276 67.0503 28.3551L69.1177 26.9302C68.783 26.4446 68.5841 25.8483 68.5578 25.0936L66.0484 25.1812ZM67.0595 28.3683C67.6979 29.2695 68.5769 29.9356 69.6398 30.3856L70.6187 28.0733C69.9272 27.7806 69.4427 27.3888 69.1085 26.917L67.0595 28.3683ZM69.6398 30.3856C70.7188 30.8423 71.9282 31.0258 73.2354 30.9802L73.1478 28.4708C72.1263 28.5065 71.2942 28.3593 70.6187 28.0733L69.6398 30.3856ZM63.1705 19.0308L66.9044 18.9005L66.8168 16.3911L63.0828 16.5215L63.1705 19.0308ZM65.6092 17.7465L65.9287 21.715L68.4315 21.5135L68.112 17.545L65.6092 17.7465ZM65.9254 21.6581L66.5195 38.6715L69.0289 38.5839L68.4347 21.5705L65.9254 21.6581ZM67.7304 37.373L63.8158 37.5097L63.9034 40.0191L67.818 39.8824L67.7304 37.373ZM65.1143 38.7206L64.3813 17.7324L61.872 17.82L62.6049 38.8082L65.1143 38.7206ZM98.9069 26.5362L98.8631 25.2815L97.9753 25.3125L97.7091 26.1599L98.9069 26.5362ZM102.701 26.4037L103.947 26.5548L104.124 25.0978L102.657 25.149L102.701 26.4037ZM101.502 29.1891L100.529 28.3959L100.523 28.4028L100.518 28.4099L101.502 29.1891ZM98.7677 31.184L98.2711 30.0309L98.7677 31.184ZM89.3653 31.3013L88.9152 32.4733L88.922 32.4759L88.9289 32.4784L89.3653 31.3013ZM85.8389 28.7411L86.8382 27.9811L85.8389 28.7411ZM85.5144 20.3108L86.5721 20.987L86.5775 20.9786L85.5144 20.3108ZM88.7622 17.4839L88.2258 16.3488L88.22 16.3516L88.7622 17.4839ZM98.7293 17.1359L99.2299 15.9845L98.7293 17.1359ZM101.719 19.8655L100.613 20.4587L100.618 20.4694L100.624 20.4799L101.719 19.8655ZM102.699 24.6249L102.743 25.8796L103.935 25.838L103.954 24.6458L102.699 24.6249ZM88.426 25.1234L88.3822 23.8687L86.9516 23.9186L87.1877 25.3305L88.426 25.1234ZM89.3417 27.1717L88.3602 27.9545L88.3682 27.9645L88.3764 27.9744L89.3417 27.1717ZM91.3204 28.5799L90.8454 29.7421L90.8561 29.7463L91.3204 28.5799ZM97.3397 28.2792L97.9507 29.376L97.9607 29.3703L97.3397 28.2792ZM90.2224 20.4478L90.9703 21.4562L90.9778 21.4506L90.9852 21.445L90.2224 20.4478ZM88.5568 22.8275L87.3375 22.5284L86.9423 24.1401L88.6007 24.0822L88.5568 22.8275ZM98.7348 22.4721L98.7786 23.7267L100.165 23.6783L99.9789 22.3036L98.7348 22.4721ZM97.2063 20.1437L96.5127 21.1901L96.5268 21.1994L96.5411 21.2084L97.2063 20.1437ZM98.9507 27.7908L102.745 27.6583L102.657 25.149L98.8631 25.2815L98.9507 27.7908ZM101.455 26.2525C101.359 27.0392 101.058 27.7465 100.529 28.3959L102.475 29.9823C103.295 28.9766 103.793 27.827 103.947 26.5548L101.455 26.2525ZM100.518 28.4099C100.016 29.0432 99.2875 29.5932 98.2711 30.0309L99.2642 32.337C100.584 31.7685 101.679 30.9887 102.486 29.9683L100.518 28.4099ZM98.2711 30.0309C97.286 30.4551 96.0125 30.7174 94.4119 30.7733L94.4995 33.2827C96.3116 33.2194 97.9128 32.919 99.2642 32.337L98.2711 30.0309ZM94.4119 30.7733C92.6358 30.8353 91.1068 30.608 89.8017 30.1241L88.9289 32.4784C90.5967 33.0967 92.4614 33.3538 94.4995 33.2827L94.4119 30.7733ZM89.8154 30.1293C88.5198 29.6317 87.5446 28.91 86.8382 27.9811L84.8396 29.5012C85.8606 30.8435 87.2364 31.8285 88.9152 32.4733L89.8154 30.1293ZM86.8382 27.9811C86.1549 27.0828 85.7616 25.9529 85.7118 24.5247L83.2024 24.6124C83.2675 26.4765 83.7954 28.1283 84.8396 29.5012L86.8382 27.9811ZM85.7118 24.5247C85.6617 23.0902 85.9683 21.9314 86.5721 20.987L84.4566 19.6345C83.5357 21.0749 83.1375 22.7546 83.2024 24.6124L85.7118 24.5247ZM86.5775 20.9786C87.2019 19.9845 88.0955 19.1951 89.3044 18.6163L88.22 16.3516C86.6217 17.1169 85.3501 18.2121 84.4513 19.643L86.5775 20.9786ZM89.2986 18.619C90.5374 18.0336 92.0384 17.6911 93.8323 17.6285L93.7446 15.1191C91.6842 15.1911 89.8343 15.5887 88.2258 16.3489L89.2986 18.619ZM93.8323 17.6285C95.6765 17.5641 97.1239 17.8069 98.2288 18.2872L99.2299 15.9845C97.6816 15.3114 95.835 15.0461 93.7446 15.1191L93.8323 17.6285ZM98.2288 18.2872C99.3036 18.7545 100.083 19.4714 100.613 20.4587L102.825 19.2722C102.022 17.7735 100.808 16.6708 99.2299 15.9845L98.2288 18.2872ZM100.624 20.4799C101.167 21.4468 101.474 22.7925 101.444 24.6041L103.954 24.6458C103.989 22.5558 103.643 20.7286 102.814 19.2511L100.624 20.4799ZM102.655 23.3703L88.3822 23.8687L88.4698 26.3781L102.743 25.8796L102.655 23.3703ZM87.1877 25.3305C87.3502 26.302 87.7446 27.1826 88.3602 27.9545L90.3232 26.3889C89.9719 25.9484 89.7557 25.4634 89.6642 24.9163L87.1877 25.3305ZM88.3764 27.9744C89.0265 28.7561 89.8624 29.3403 90.8455 29.742L91.7953 27.4177C91.1471 27.1529 90.6639 26.7982 90.307 26.3689L88.3764 27.9744ZM90.8561 29.7463C91.8883 30.1571 93.0483 30.3184 94.304 30.2746L94.2164 27.7652C93.2237 27.7999 92.4238 27.6678 91.7846 27.4134L90.8561 29.7463ZM94.304 30.2746C95.6819 30.2265 96.9189 29.9507 97.9507 29.376L96.7287 27.1825C96.1438 27.5084 95.3278 27.7264 94.2164 27.7652L94.304 30.2746ZM97.9607 29.3703C98.9749 28.7931 99.7657 27.9914 100.105 26.9124L97.7091 26.1599C97.614 26.4629 97.3599 26.8232 96.7187 27.1881L97.9607 29.3703ZM93.6681 18.1065C92.0408 18.1634 90.6025 18.5764 89.4596 19.4507L90.9852 21.445C91.6042 20.9714 92.4921 20.66 93.7557 20.6159L93.6681 18.1065ZM89.4745 19.4395C88.3934 20.2412 87.6458 21.2715 87.3375 22.5284L89.7761 23.1265C89.9253 22.5183 90.2881 21.9622 90.9703 21.4562L89.4745 19.4395ZM88.6007 24.0822L98.7786 23.7267L98.691 21.2174L88.513 21.5728L88.6007 24.0822ZM99.9789 22.3036C99.7915 20.9199 99.06 19.8215 97.8716 19.0789L96.5411 21.2084C97.1198 21.5699 97.4072 22.0237 97.4907 22.6405L99.9789 22.3036ZM97.8999 19.0972C96.7441 18.3311 95.2903 18.0499 93.6681 18.1065L93.7557 20.6159C95.0644 20.5702 95.9402 20.8106 96.5127 21.1901L97.8999 19.0972ZM119.315 25.8235L119.271 24.5688L118.383 24.5998L118.117 25.4472L119.315 25.8235ZM123.109 25.691L124.355 25.8421L124.532 24.3851L123.065 24.4363L123.109 25.691ZM121.91 28.4764L120.937 27.6832L120.931 27.6902L120.926 27.6972L121.91 28.4764ZM119.176 30.4713L118.679 29.3182L119.176 30.4713ZM109.773 30.5886L109.323 31.7606L109.33 31.7632L109.337 31.7658L109.773 30.5886ZM106.247 28.0285L107.246 27.2685L106.247 28.0285ZM105.922 19.5981L106.98 20.2744L106.986 20.2659L105.922 19.5981ZM109.17 16.7713L108.634 15.6362L108.628 15.6389L109.17 16.7713ZM119.137 16.4232L119.638 15.2719L119.137 16.4232ZM122.127 19.1528L121.021 19.7461L121.026 19.7567L121.032 19.7672L122.127 19.1528ZM123.107 23.9123L123.151 25.167L124.343 25.1253L124.363 23.9331L123.107 23.9123ZM108.834 24.4107L108.79 23.156L107.36 23.206L107.596 24.6178L108.834 24.4107ZM109.75 26.459L108.768 27.2418L108.776 27.2518L108.785 27.2617L109.75 26.459ZM111.729 27.8672L111.254 29.0294L111.264 29.0337L111.729 27.8672ZM117.748 27.5666L118.359 28.6634L118.369 28.6577L117.748 27.5666ZM110.631 19.7352L111.378 20.7436L111.386 20.738L111.393 20.7323L110.631 19.7352ZM108.965 22.1148L107.746 21.8158L107.35 23.4274L109.009 23.3695L108.965 22.1148ZM119.143 21.7594L119.187 23.0141L120.573 22.9657L120.387 21.5909L119.143 21.7594ZM117.614 19.431L116.921 20.4774L116.935 20.4868L116.949 20.4957L117.614 19.431ZM119.359 27.0782L123.153 26.9457L123.065 24.4363L119.271 24.5688L119.359 27.0782ZM121.863 25.5398C121.767 26.3265 121.466 27.0338 120.937 27.6832L122.883 29.2697C123.703 28.264 124.201 27.1144 124.355 25.8421L121.863 25.5398ZM120.926 27.6972C120.424 28.3305 119.696 28.8806 118.679 29.3182L119.672 31.6244C120.993 31.0559 122.087 30.276 122.894 29.2556L120.926 27.6972ZM118.679 29.3182C117.694 29.7425 116.421 30.0047 114.82 30.0606L114.908 32.57C116.72 32.5067 118.321 32.2063 119.672 31.6244L118.679 29.3182ZM114.82 30.0606C113.044 30.1226 111.515 29.8953 110.21 29.4114L109.337 31.7658C111.005 32.384 112.869 32.6412 114.908 32.57L114.82 30.0606ZM110.224 29.4166C108.928 28.9191 107.953 28.1973 107.246 27.2685L105.248 28.7885C106.269 30.1309 107.644 31.1158 109.323 31.7606L110.224 29.4166ZM107.246 27.2685C106.563 26.3701 106.17 25.2402 106.12 23.8121L103.611 23.8997C103.676 25.7638 104.204 27.4156 105.248 28.7885L107.246 27.2685ZM106.12 23.8121C106.07 22.3775 106.376 21.2187 106.98 20.2743L104.865 18.9218C103.944 20.3622 103.546 22.042 103.611 23.8997L106.12 23.8121ZM106.986 20.2659C107.61 19.2718 108.504 18.4824 109.713 17.9036L108.628 15.6389C107.03 16.4043 105.758 17.4995 104.859 18.9303L106.986 20.2659ZM109.707 17.9063C110.945 17.3209 112.446 16.9784 114.24 16.9158L114.153 14.4064C112.092 14.4784 110.242 14.876 108.634 15.6362L109.707 17.9063ZM114.24 16.9158C116.085 16.8514 117.532 17.0942 118.637 17.5745L119.638 15.2719C118.09 14.5987 116.243 14.3334 114.153 14.4064L114.24 16.9158ZM118.637 17.5745C119.712 18.0418 120.491 18.7588 121.021 19.7461L123.234 18.5595C122.43 17.0609 121.216 15.9581 119.638 15.2719L118.637 17.5745ZM121.032 19.7672C121.575 20.7341 121.882 22.0799 121.852 23.8914L124.363 23.9331C124.397 21.8432 124.051 20.0159 123.222 18.5384L121.032 19.7672ZM123.064 22.6576L108.79 23.156L108.878 25.6654L123.151 25.167L123.064 22.6576ZM107.596 24.6178C107.758 25.5893 108.153 26.4699 108.768 27.2418L110.731 25.6762C110.38 25.2357 110.164 24.7508 110.072 24.2036L107.596 24.6178ZM108.785 27.2617C109.435 28.0434 110.271 28.6276 111.254 29.0294L112.203 26.7051C111.555 26.4402 111.072 26.0856 110.715 25.6563L108.785 27.2617ZM111.264 29.0337C112.296 29.4445 113.456 29.6058 114.712 29.5619L114.625 27.0526C113.632 27.0872 112.832 26.9552 112.193 26.7008L111.264 29.0337ZM114.712 29.5619C116.09 29.5138 117.327 29.2381 118.359 28.6633L117.137 26.4698C116.552 26.7957 115.736 27.0137 114.625 27.0526L114.712 29.5619ZM118.369 28.6577C119.383 28.0804 120.174 27.2787 120.513 26.1998L118.117 25.4472C118.022 25.7502 117.768 26.1105 117.127 26.4755L118.369 28.6577ZM114.076 17.3939C112.449 17.4507 111.011 17.8637 109.868 18.7381L111.393 20.7323C112.012 20.2588 112.9 19.9474 114.164 19.9032L114.076 17.3939ZM109.883 18.7268C108.802 19.5286 108.054 20.5588 107.746 21.8158L110.184 22.4139C110.333 21.8057 110.696 21.2495 111.378 20.7436L109.883 18.7268ZM109.009 23.3695L119.187 23.0141L119.099 20.5047L108.921 20.8601L109.009 23.3695ZM120.387 21.5909C120.2 20.2072 119.468 19.1088 118.28 18.3663L116.949 20.4957C117.528 20.8572 117.815 21.3111 117.899 21.9278L120.387 21.5909ZM118.308 18.3846C117.152 17.6184 115.698 17.3372 114.076 17.3939L114.164 19.9032C115.473 19.8575 116.348 20.098 116.921 20.4774L118.308 18.3846ZM143.816 24.0333L145.07 24.0858L145.127 22.7313L143.772 22.7786L143.816 24.0333ZM142.669 27.45L141.656 26.7084L141.651 26.7151L141.646 26.7219L142.669 27.45ZM139.733 29.7233L140.215 30.8827L140.223 30.8794L140.231 30.876L139.733 29.7233ZM130.183 29.906L129.74 31.0811L129.75 31.0847L129.76 31.0883L130.183 29.906ZM126.658 27.4061L125.659 28.1662L125.667 28.176L125.674 28.1857L126.658 27.4061ZM126.358 18.794L125.316 18.0936L125.312 18.0996L125.308 18.1056L126.358 18.794ZM129.698 16.0243L129.18 14.8804L129.175 14.883L129.698 16.0243ZM139.208 15.5414L138.786 16.7238L138.794 16.7267L138.802 16.7295L139.208 15.5414ZM142.263 17.5452L141.302 18.353L141.307 18.3594L141.313 18.3657L142.263 17.5452ZM143.674 20.8424L143.718 22.0971L145.094 22.0491L144.92 20.6835L143.674 20.8424ZM140.091 20.9676L138.917 21.4129L139.236 22.2536L140.135 22.2222L140.091 20.9676ZM138.112 18.6851L137.497 19.7796L138.112 18.6851ZM131.898 18.6006L131.373 17.4601L131.364 17.4646L131.898 18.6006ZM129.907 20.2981L128.865 19.599L128.861 19.6045L129.907 20.2981ZM130.095 25.6581L129.089 26.4098L129.094 26.4164L129.099 26.423L130.095 25.6581ZM132.198 27.1826L131.754 28.3568L131.766 28.3613L131.777 28.3655L132.198 27.1826ZM138.48 26.6315L137.78 25.5893L137.769 25.5965L138.48 26.6315ZM140.233 24.1584L140.189 22.9037L139.262 22.9361L139.02 23.8313L140.233 24.1584ZM142.562 23.9807C142.516 25.0639 142.206 25.9577 141.656 26.7084L143.682 28.1917C144.552 27.0035 145.006 25.6194 145.07 24.0858L142.562 23.9807ZM141.646 26.7219C141.11 27.4755 140.327 28.0998 139.236 28.5705L140.231 30.876C141.674 30.2532 142.849 29.3621 143.692 28.1782L141.646 26.7219ZM139.252 28.5639C138.156 29.0188 136.795 29.2932 135.138 29.3511L135.225 31.8605C137.101 31.795 138.774 31.481 140.215 30.8827L139.252 28.5639ZM135.138 29.3511C133.423 29.411 131.918 29.1931 130.605 28.7238L129.76 31.0883C131.419 31.681 133.247 31.9296 135.225 31.8605L135.138 29.3511ZM130.625 28.731C129.349 28.2511 128.37 27.5451 127.642 26.6266L125.674 28.1857C126.713 29.4969 128.083 30.4575 129.74 31.0811L130.625 28.731ZM127.658 26.6461C126.98 25.7551 126.58 24.5985 126.528 23.0994L124.019 23.187C124.085 25.1006 124.609 26.786 125.659 28.1662L127.658 26.6461ZM126.528 23.0994C126.476 21.6003 126.793 20.4186 127.407 19.4825L125.308 18.1056C124.357 19.5556 123.952 21.2734 124.019 23.187L126.528 23.0994ZM127.399 19.4944C128.061 18.5096 128.987 17.7309 130.221 17.1656L129.175 14.883C127.56 15.6231 126.259 16.6909 125.316 18.0936L127.399 19.4944ZM130.215 17.1681C131.488 16.5924 132.969 16.2618 134.679 16.2021L134.591 13.6927C132.607 13.762 130.797 14.1493 129.18 14.8804L130.215 17.1681ZM134.679 16.2021C136.332 16.1444 137.69 16.3327 138.786 16.7238L139.63 14.3591C138.161 13.8348 136.471 13.6271 134.591 13.6927L134.679 16.2021ZM138.802 16.7295C139.902 17.1049 140.715 17.6552 141.302 18.353L143.224 16.7374C142.3 15.6387 141.078 14.8533 139.614 14.3534L138.802 16.7295ZM141.313 18.3657C141.909 19.057 142.291 19.9186 142.429 21.0014L144.92 20.6835C144.726 19.165 144.166 17.8284 143.213 16.7247L141.313 18.3657ZM143.631 19.5878L140.047 19.7129L140.135 22.2222L143.718 22.0971L143.631 19.5878ZM141.265 20.5222C140.782 19.2493 139.921 18.2615 138.727 17.5905L137.497 19.7796C138.189 20.1684 138.648 20.7022 138.917 21.4129L141.265 20.5222ZM138.727 17.5905C137.545 16.9266 136.183 16.652 134.696 16.704L134.784 19.2133C135.906 19.1741 136.793 19.3839 137.497 19.7796L138.727 17.5905ZM134.696 16.704C133.505 16.7455 132.392 16.9914 131.373 17.4601L132.423 19.741C133.106 19.4267 133.887 19.2446 134.784 19.2133L134.696 16.704ZM131.364 17.4646C130.334 17.9493 129.492 18.6634 128.865 19.599L130.95 20.9972C131.316 20.451 131.802 20.0334 132.433 19.7365L131.364 17.4646ZM128.861 19.6045C128.206 20.5929 127.949 21.77 127.993 23.0482L130.503 22.9606C130.472 22.0707 130.654 21.4436 130.954 20.9917L128.861 19.6045ZM127.993 23.0482C128.038 24.3136 128.379 25.4599 129.089 26.4098L131.1 24.9065C130.756 24.446 130.533 23.8232 130.503 22.9606L127.993 23.0482ZM129.099 26.423C129.78 27.3086 130.679 27.9503 131.754 28.3568L132.642 26.0083C131.965 25.7524 131.462 25.3778 131.09 24.8932L129.099 26.423ZM131.777 28.3655C132.819 28.7357 133.938 28.8905 135.12 28.8492L135.033 26.3399C134.127 26.3715 133.327 26.2516 132.618 25.9996L131.777 28.3655ZM135.12 28.8492C136.685 28.7946 138.073 28.4335 139.19 27.6665L137.769 25.5965C137.159 26.0155 136.279 26.2964 135.033 26.3399L135.12 28.8492ZM139.18 27.6737C140.322 26.9064 141.083 25.8244 141.445 24.4855L139.02 23.8313C138.812 24.6026 138.405 25.1694 137.78 25.5894L139.18 27.6737ZM140.276 25.4131L143.86 25.288L143.772 22.7786L140.189 22.9037L140.276 25.4131ZM160.57 29.3574L159.315 29.4012L159.359 30.6559L160.614 30.6121L160.57 29.3574ZM159.79 19.1039L158.696 19.7203L158.696 19.7203L159.79 19.1039ZM158.392 17.9166L157.901 19.0721L157.908 19.0751L157.915 19.0781L158.392 17.9166ZM153.278 18.2459L153.833 19.3721L153.844 19.3664L153.856 19.3604L153.278 18.2459ZM151.371 19.7596L152.35 20.5457L152.357 20.5375L152.363 20.5292L151.371 19.7596ZM150.593 21.656L149.34 21.7227L151.847 21.726L150.593 21.656ZM150.505 20.0009L149.258 19.8563L149.246 19.9616L149.252 20.0675L150.505 20.0009ZM151.128 17.9893L152.251 18.5517L152.251 18.5517L151.128 17.9893ZM152.511 16.1321L153.383 17.0354L153.383 17.0354L152.511 16.1321ZM154.634 14.7616L155.121 15.9185L155.128 15.9154L155.136 15.9123L154.634 14.7616ZM160.079 14.4207L159.752 15.6328L159.766 15.6366L159.78 15.6401L160.079 14.4207ZM162.163 15.4031L161.397 16.3976L162.163 15.4031ZM163.581 17.1625L162.452 17.7122L162.458 17.724L163.581 17.1625ZM164.485 29.2207L164.529 30.4754L165.783 30.4316L165.739 29.1769L164.485 29.2207ZM147.17 29.8254L145.915 29.8692L145.959 31.1238L147.214 31.08L147.17 29.8254ZM146.437 8.8371L146.393 7.58242L145.139 7.62623L145.183 8.88091L146.437 8.8371ZM150.352 8.7004L151.606 8.65658L151.563 7.4019L150.308 7.44572L150.352 8.7004ZM151.085 29.6887L151.129 30.9433L152.383 30.8995L152.339 29.6448L151.085 29.6887ZM161.825 29.3136L161.538 21.093L159.028 21.1806L159.315 29.4012L161.825 29.3136ZM161.538 21.093C161.504 20.1357 161.311 19.245 160.884 18.4874L158.696 19.7203C158.869 20.0271 159.004 20.4917 159.028 21.1806L161.538 21.093ZM160.884 18.4874C160.429 17.6802 159.729 17.1081 158.868 16.7551L157.915 19.0781C158.319 19.2437 158.551 19.4631 158.696 19.7203L160.884 18.4874ZM158.883 16.7611C158.035 16.4011 157.012 16.2865 155.894 16.3255L155.982 18.8348C156.912 18.8024 157.524 18.912 157.901 19.0721L158.883 16.7611ZM155.894 16.3255C154.744 16.3656 153.672 16.6274 152.7 17.1314L153.856 19.3604C154.463 19.0455 155.164 18.8634 155.982 18.8348L155.894 16.3255ZM152.723 17.1197C151.783 17.5828 150.99 18.2022 150.379 18.9901L152.363 20.5292C152.713 20.0776 153.192 19.6877 153.833 19.3721L152.723 17.1197ZM150.392 18.9736C149.773 19.7446 149.394 20.6209 149.34 21.5861L151.847 21.726C151.867 21.3621 152.006 20.974 152.35 20.5457L150.392 18.9736ZM151.847 21.5894L151.759 19.9343L149.252 20.0675L149.34 21.7227L151.847 21.5894ZM151.752 20.1455C151.811 19.6422 151.97 19.1122 152.251 18.5517L150.006 17.427C149.61 18.2166 149.354 19.0277 149.258 19.8563L151.752 20.1455ZM152.251 18.5517C152.521 18.0126 152.894 17.5071 153.383 17.0354L151.639 15.2288C150.961 15.8832 150.412 16.6158 150.006 17.427L152.251 18.5517ZM153.383 17.0354C153.843 16.5914 154.416 16.2158 155.121 15.9185L154.146 13.6047C153.188 14.0086 152.345 14.5467 151.639 15.2288L153.383 17.0354ZM155.136 15.9123C155.823 15.6126 156.621 15.4358 157.55 15.4034L157.463 12.894C156.264 12.9359 155.147 13.1677 154.132 13.6109L155.136 15.9123ZM157.55 15.4034C158.364 15.375 159.095 15.4557 159.752 15.6328L160.406 13.2086C159.479 12.9586 158.496 12.858 157.463 12.894L157.55 15.4034ZM159.78 15.6401C160.414 15.7953 160.947 16.0509 161.397 16.3976L162.929 14.4086C162.181 13.8324 161.324 13.4331 160.377 13.2012L159.78 15.6401ZM161.397 16.3976C161.835 16.7352 162.187 17.1666 162.453 17.7121L164.71 16.6129C164.283 15.7355 163.689 14.9939 162.929 14.4086L161.397 16.3976ZM162.458 17.724C162.706 18.2196 162.867 18.862 162.896 19.6888L165.405 19.6012C165.367 18.5009 165.148 17.4882 164.704 16.601L162.458 17.724ZM162.896 19.6888L163.23 29.2645L165.739 29.1769L165.405 19.6012L162.896 19.6888ZM164.441 27.966L160.526 28.1027L160.614 30.6121L164.529 30.4754L164.441 27.966ZM148.425 29.7815L147.692 8.79328L145.183 8.88091L145.915 29.8692L148.425 29.7815ZM146.481 10.0918L150.396 9.95507L150.308 7.44572L146.393 7.58242L146.481 10.0918ZM149.097 8.74421L149.83 29.7325L152.339 29.6448L151.606 8.65658L149.097 8.74421ZM151.041 28.434L147.126 28.5707L147.214 31.08L151.129 30.9433L151.041 28.434ZM173.729 13.9138L173.685 12.6592L172.431 12.703L172.475 13.9577L173.729 13.9138ZM185.353 13.5079L186.607 13.4641L186.564 12.2094L185.309 12.2533L185.353 13.5079ZM185.459 16.5493L185.503 17.804L186.757 17.7601L186.714 16.5055L185.459 16.5493ZM173.836 16.9552L172.581 16.999L172.625 18.2537L173.879 18.2099L173.836 16.9552ZM177.441 9.68397L177.397 8.42929L176.142 8.4731L176.186 9.72778L177.441 9.68397ZM181.355 9.54727L182.61 9.50345L182.566 8.24877L181.311 8.29259L181.355 9.54727ZM182.021 28.6083L182.065 29.863L183.319 29.8192L183.276 28.5645L182.021 28.6083ZM178.106 28.745L176.852 28.7889L176.895 30.0435L178.15 29.9997L178.106 28.745ZM173.773 15.1685L185.396 14.7626L185.309 12.2533L173.685 12.6592L173.773 15.1685ZM184.098 13.5518L184.204 16.5931L186.714 16.5055L186.607 13.4641L184.098 13.5518ZM185.415 15.2946L173.792 15.7005L173.879 18.2099L185.503 17.804L185.415 15.2946ZM175.09 16.9114L174.984 13.87L172.475 13.9577L172.581 16.999L175.09 16.9114ZM177.484 10.9386L181.399 10.8019L181.311 8.29259L177.397 8.42929L177.484 10.9386ZM180.101 9.59108L180.766 28.6522L183.276 28.5645L182.61 9.50345L180.101 9.59108ZM181.977 27.3537L178.062 27.4904L178.15 29.9997L182.065 29.863L181.977 27.3537ZM179.361 28.7012L178.695 9.64015L176.186 9.72778L176.852 28.7889L179.361 28.7012ZM191.962 27.7185L191.514 28.8913L191.52 28.8935L191.962 27.7185ZM188.528 25.2155L187.52 25.9639L187.526 25.9721L188.528 25.2155ZM188.229 16.6636L189.287 17.3399L189.292 17.3314L188.229 16.6636ZM191.478 13.8669L190.955 12.7255L190.949 12.7282L191.478 13.8669ZM201.415 13.5199L200.961 14.6904L200.967 14.6927L201.415 13.5199ZM204.851 16.0831L203.837 16.8235L203.843 16.8315L204.851 16.0831ZM205.15 24.635L206.202 25.3199L206.208 25.3113L205.15 24.635ZM201.899 27.3715L201.37 26.2328L201.364 26.2355L201.899 27.3715ZM199.668 24.7963L200.213 25.9276L200.225 25.9214L199.668 24.7963ZM201.599 23.1008L202.659 23.7742L202.663 23.7673L202.667 23.7603L201.599 23.1008ZM201.416 17.8613L200.387 18.5808L200.392 18.5873L200.396 18.5937L201.416 17.8613ZM193.739 16.441L193.182 15.3159L193.182 15.3159L193.739 16.441ZM191.779 18.1677L190.723 17.488L190.717 17.498L190.711 17.5081L191.779 18.1677ZM191.963 23.4373L190.943 24.1697L190.948 24.1764L190.953 24.183L191.963 23.4373ZM194.007 24.994L193.53 26.1552L193.542 26.1599L193.553 26.1645L194.007 24.994ZM196.948 27.1926C195.194 27.2539 193.687 27.0262 192.404 26.5435L191.52 28.8935C193.17 29.5143 195.016 29.7725 197.036 29.702L196.948 27.1926ZM192.41 26.5457C191.159 26.068 190.216 25.3674 189.53 24.4589L187.526 25.9721C188.526 27.2959 189.872 28.2641 191.514 28.8913L192.41 26.5457ZM189.536 24.4671C188.871 23.5719 188.48 22.4195 188.429 20.9378L185.919 21.0254C185.985 22.9162 186.497 24.5864 187.52 25.9639L189.536 24.4671ZM188.429 20.9378C188.377 19.456 188.686 18.2792 189.287 17.3398L187.172 15.9873C186.247 17.4328 185.853 19.1346 185.919 21.0254L188.429 20.9378ZM189.292 17.3314C189.915 16.3409 190.804 15.5642 192.007 15.0056L190.949 12.7282C189.344 13.4736 188.067 14.5613 187.166 15.9958L189.292 17.3314ZM192.001 15.0082C193.247 14.4371 194.734 14.1049 196.489 14.0436L196.401 11.5343C194.382 11.6048 192.558 11.9912 190.955 12.7256L192.001 15.0082ZM196.489 14.0436C198.245 13.9823 199.726 14.2113 200.961 14.6903L201.869 12.3494C200.252 11.7221 198.42 11.4638 196.401 11.5343L196.489 14.0436ZM200.967 14.6927C202.206 15.166 203.148 15.8788 203.837 16.8235L205.865 15.3428C204.866 13.9747 203.517 12.9787 201.863 12.3471L200.967 14.6927ZM203.843 16.8315C204.508 17.7267 204.899 18.8791 204.95 20.3608L207.46 20.2732C207.394 18.3824 206.882 16.7122 205.859 15.3347L203.843 16.8315ZM204.95 20.3608C205.002 21.8426 204.693 23.0194 204.092 23.9588L206.208 25.3113C207.132 23.8658 207.526 22.164 207.46 20.2732L204.95 20.3608ZM204.098 23.9502C203.477 24.9044 202.584 25.669 201.37 26.2328L202.428 28.5102C204.022 27.7699 205.297 26.7103 206.202 25.3199L204.098 23.9502ZM201.364 26.2355C200.166 26.7996 198.704 27.1313 196.948 27.1926L197.036 29.702C199.054 29.6315 200.864 29.246 202.433 28.5075L201.364 26.2355ZM196.931 26.6908C198.12 26.6492 199.223 26.4041 200.213 25.9275L199.124 23.6651C198.493 23.9686 197.741 24.1501 196.843 24.1814L196.931 26.6908ZM200.225 25.9214C201.243 25.4178 202.068 24.7039 202.659 23.7742L200.539 22.4274C200.216 22.9366 199.754 23.353 199.111 23.6712L200.225 25.9214ZM202.667 23.7603C203.276 22.7745 203.528 21.6383 203.485 20.412L200.976 20.4996C201.004 21.3209 200.835 21.9481 200.531 22.4413L202.667 23.7603ZM203.485 20.412C203.442 19.1857 203.112 18.0699 202.436 17.1289L200.396 18.5937C200.735 19.0644 200.947 19.6783 200.976 20.4996L203.485 20.412ZM202.445 17.1417C201.798 16.217 200.936 15.5287 199.888 15.0865L198.912 17.4001C199.536 17.6633 200.019 18.0537 200.387 18.5808L202.445 17.1417ZM199.888 15.0865C198.857 14.6518 197.72 14.473 196.505 14.5154L196.593 17.0247C197.506 16.9929 198.27 17.1295 198.912 17.4001L199.888 15.0865ZM196.505 14.5154C195.306 14.5573 194.191 14.8163 193.182 15.3159L194.296 17.5661C194.946 17.244 195.705 17.0558 196.593 17.0247L196.505 14.5154ZM193.182 15.3159C192.159 15.8221 191.329 16.5469 190.723 17.488L192.835 18.8473C193.182 18.308 193.658 17.8817 194.296 17.5661L193.182 15.3159ZM190.711 17.5081C190.1 18.498 189.851 19.6457 189.894 20.8866L192.404 20.799C192.374 19.9521 192.545 19.3164 192.847 18.8272L190.711 17.5081ZM189.894 20.8866C189.937 22.1129 190.267 23.2287 190.943 24.1697L192.983 22.7049C192.645 22.2341 192.432 21.6203 192.404 20.799L189.894 20.8866ZM190.953 24.183C191.607 25.0692 192.48 25.7238 193.53 26.1552L194.484 23.8328C193.821 23.5602 193.331 23.177 192.973 22.6916L190.953 24.183ZM193.553 26.1645C194.591 26.5669 195.724 26.7329 196.931 26.6908L196.843 24.1814C195.922 24.2136 195.135 24.0849 194.461 23.8235L193.553 26.1645ZM213.531 8.00156L213.488 6.74688L212.233 6.7907L212.277 8.04538L213.531 8.00156ZM234.068 7.28441L235.323 7.2406L235.279 5.98592L234.024 6.02973L234.068 7.28441ZM234.185 10.6269L234.229 11.8816L235.483 11.8377L235.439 10.5831L234.185 10.6269ZM213.648 11.344L212.394 11.3878L212.437 12.6425L213.692 12.5987L213.648 11.344ZM221.914 10.6333L221.871 9.3786L220.616 9.42242L220.66 10.6771L221.914 10.6333ZM225.919 10.4934L227.174 10.4496L227.13 9.19493L225.875 9.23875L225.919 10.4934ZM226.498 27.0552L226.541 28.3099L227.796 28.266L227.752 27.0114L226.498 27.0552ZM222.493 27.195L221.238 27.2388L221.282 28.4935L222.537 28.4497L222.493 27.195ZM213.575 9.25624L234.112 8.53909L234.024 6.02973L213.488 6.74688L213.575 9.25624ZM232.813 7.32822L232.93 10.6707L235.439 10.5831L235.323 7.2406L232.813 7.32822ZM234.141 9.37219L213.604 10.0893L213.692 12.5987L234.229 11.8816L234.141 9.37219ZM214.903 11.3002L214.786 7.95775L212.277 8.04538L212.394 11.3878L214.903 11.3002ZM221.958 11.888L225.963 11.7481L225.875 9.23875L221.871 9.3786L221.958 11.888ZM224.665 10.5372L225.243 27.099L227.752 27.0114L227.174 10.4496L224.665 10.5372ZM226.454 25.8005L222.449 25.9404L222.537 28.4497L226.541 28.3099L226.454 25.8005ZM223.747 27.1512L223.169 10.5895L220.66 10.6771L221.238 27.2388L223.747 27.1512ZM248.174 21.3236L248.131 20.0689L247.243 20.0999L246.977 20.9474L248.174 21.3236ZM251.969 21.1911L253.215 21.3423L253.392 19.8852L251.925 19.9365L251.969 21.1911ZM250.769 23.9766L249.796 23.1833L249.791 23.1903L249.785 23.1974L250.769 23.9766ZM248.035 25.9714L247.539 24.8184L248.035 25.9714ZM238.633 26.0887L238.183 27.2607L238.19 27.2633L238.196 27.2659L238.633 26.0887ZM235.106 23.5286L236.106 22.7686L235.106 23.5286ZM234.782 15.0982L235.84 15.7745L235.845 15.766L234.782 15.0982ZM238.03 12.2714L237.493 11.1363L237.487 11.1391L238.03 12.2714ZM247.997 11.9233L248.497 10.772L247.997 11.9233ZM250.986 14.6529L249.88 15.2462L249.886 15.2568L249.892 15.2673L250.986 14.6529ZM251.967 19.4124L252.011 20.6671L253.202 20.6255L253.222 19.4332L251.967 19.4124ZM237.693 19.9108L237.65 18.6562L236.219 18.7061L236.455 20.118L237.693 19.9108ZM238.609 21.9591L237.628 22.7419L237.636 22.752L237.644 22.7619L238.609 21.9591ZM240.588 23.3673L240.113 24.5295L240.124 24.5338L240.588 23.3673ZM246.607 23.0667L247.218 24.1635L247.228 24.1578L246.607 23.0667ZM239.49 15.2353L240.238 16.2437L240.245 16.2381L240.253 16.2324L239.49 15.2353ZM237.824 17.6149L236.605 17.3159L236.21 18.9275L237.868 18.8696L237.824 17.6149ZM248.002 17.2595L248.046 18.5142L249.433 18.4658L249.246 17.0911L248.002 17.2595ZM246.474 14.9311L245.78 15.9776L245.794 15.9869L245.809 15.9958L246.474 14.9311ZM248.218 22.5783L252.012 22.4458L251.925 19.9365L248.131 20.0689L248.218 22.5783ZM250.722 21.04C250.627 21.8266 250.326 22.534 249.796 23.1833L251.742 24.7698C252.562 23.7641 253.061 22.6145 253.215 21.3423L250.722 21.04ZM249.785 23.1974C249.284 23.8306 248.555 24.3807 247.539 24.8184L248.532 27.1245C249.852 26.556 250.946 25.7762 251.754 24.7558L249.785 23.1974ZM247.539 24.8184C246.553 25.2426 245.28 25.5049 243.679 25.5608L243.767 28.0701C245.579 28.0068 247.18 27.7064 248.532 27.1245L247.539 24.8184ZM243.679 25.5608C241.903 25.6228 240.374 25.3954 239.069 24.9116L238.196 27.2659C239.864 27.8842 241.729 28.1413 243.767 28.0701L243.679 25.5608ZM239.083 24.9167C237.787 24.4192 236.812 23.6974 236.106 22.7686L234.107 24.2886C235.128 25.631 236.504 26.616 238.183 27.2607L239.083 24.9167ZM236.106 22.7686C235.422 21.8703 235.029 20.7403 234.979 19.3122L232.47 19.3998C232.535 21.2639 233.063 22.9157 234.107 24.2886L236.106 22.7686ZM234.979 19.3122C234.929 17.8776 235.236 16.7189 235.84 15.7745L233.724 14.422C232.803 15.8624 232.405 17.5421 232.47 19.3998L234.979 19.3122ZM235.845 15.766C236.469 14.7719 237.363 13.9826 238.572 13.4037L237.487 11.1391C235.889 11.9044 234.618 12.9996 233.719 14.4304L235.845 15.766ZM238.566 13.4065C239.805 12.8211 241.306 12.4786 243.1 12.4159L243.012 9.90658C240.952 9.97853 239.102 10.3761 237.493 11.1363L238.566 13.4065ZM243.1 12.4159C244.944 12.3515 246.391 12.5943 247.496 13.0747L248.497 10.772C246.949 10.0988 245.103 9.83358 243.012 9.90658L243.1 12.4159ZM247.496 13.0747C248.571 13.542 249.351 14.2589 249.88 15.2462L252.093 14.0597C251.289 12.561 250.076 11.4582 248.497 10.772L247.496 13.0747ZM249.892 15.2673C250.434 16.2343 250.742 17.58 250.711 19.3916L253.222 19.4332C253.257 17.3433 252.91 15.516 252.081 14.0386L249.892 15.2673ZM251.923 18.1577L237.65 18.6562L237.737 21.1655L252.011 20.6671L251.923 18.1577ZM236.455 20.118C236.618 21.0895 237.012 21.97 237.628 22.7419L239.591 21.1764C239.239 20.7358 239.023 20.2509 238.932 19.7037L236.455 20.118ZM237.644 22.7619C238.294 23.5436 239.13 24.1278 240.113 24.5295L241.063 22.2052C240.415 21.9403 239.931 21.5857 239.574 21.1564L237.644 22.7619ZM240.124 24.5338C241.156 24.9446 242.316 25.1059 243.572 25.062L243.484 22.5527C242.491 22.5874 241.691 22.4553 241.052 22.2009L240.124 24.5338ZM243.572 25.062C244.949 25.0139 246.186 24.7382 247.218 24.1634L245.996 21.97C245.411 22.2958 244.595 22.5139 243.484 22.5527L243.572 25.062ZM247.228 24.1578C248.242 23.5806 249.033 22.7788 249.372 21.6999L246.977 20.9474C246.881 21.2503 246.627 21.6106 245.986 21.9756L247.228 24.1578ZM242.936 12.894C241.308 12.9508 239.87 13.3638 238.727 14.2382L240.253 16.2324C240.872 15.7589 241.76 15.4475 243.023 15.4034L242.936 12.894ZM238.742 14.2269C237.661 15.0287 236.913 16.059 236.605 17.3159L239.044 17.914C239.193 17.3058 239.556 16.7496 240.238 16.2437L238.742 14.2269ZM237.868 18.8696L248.046 18.5142L247.958 16.0048L237.781 16.3603L237.868 18.8696ZM249.246 17.0911C249.059 15.7074 248.327 14.6089 247.139 13.8664L245.809 15.9958C246.387 16.3574 246.675 16.8112 246.758 17.428L249.246 17.0911ZM247.167 13.8847C246.012 13.1186 244.558 12.8374 242.936 12.894L243.023 15.4034C244.332 15.3577 245.208 15.5981 245.78 15.9776L247.167 13.8847ZM270.869 10.5216L271.817 11.3447L273.709 9.16627L270.826 9.26695L270.869 10.5216ZM263.392 19.134L262.444 18.3109L262.424 18.3337L262.405 18.3574L263.392 19.134ZM258.022 25.9543L258.066 27.209L258.648 27.1887L259.009 26.7309L258.022 25.9543ZM253.234 26.1215L252.283 25.302L250.41 27.4764L253.278 27.3762L253.234 26.1215ZM261.029 17.076L261.98 17.8955L261.996 17.8769L262.011 17.8577L261.029 17.076ZM266.112 10.6878L266.068 9.4331L265.49 9.45329L265.129 9.90608L266.112 10.6878ZM252.712 11.1557L252.668 9.90103L249.753 10.0028L251.831 12.05L252.712 11.1557ZM257.5 10.9885L258.392 10.106L258.006 9.71463L257.456 9.73384L257.5 10.9885ZM263.375 16.9337L264.268 16.0513L264.268 16.0512L263.375 16.9337ZM271.814 25.4727L271.857 26.7274L274.72 26.6274L272.707 24.5903L271.814 25.4727ZM267.026 25.6399L266.117 26.5065L266.506 26.9143L267.07 26.8946L267.026 25.6399ZM260.986 19.3085L261.894 18.4419L261.881 18.4279L261.867 18.4142L260.986 19.3085ZM269.921 9.69855L262.444 18.3109L264.34 19.9571L271.817 11.3447L269.921 9.69855ZM262.405 18.3574L257.036 25.1777L259.009 26.7309L264.378 19.9106L262.405 18.3574ZM257.978 24.6996L253.19 24.8668L253.278 27.3762L258.066 27.209L257.978 24.6996ZM254.185 26.941L261.98 17.8955L260.077 16.2565L252.283 25.302L254.185 26.941ZM262.011 17.8577L267.094 11.4695L265.129 9.90608L260.046 16.2943L262.011 17.8577ZM266.155 11.9425L270.913 11.7763L270.826 9.26695L266.068 9.4331L266.155 11.9425ZM252.756 12.4104L257.543 12.2432L257.456 9.73384L252.668 9.90103L252.756 12.4104ZM256.607 11.871L262.482 17.8162L264.268 16.0512L258.392 10.106L256.607 11.871ZM262.482 17.8162L270.921 26.3552L272.707 24.5903L264.268 16.0513L262.482 17.8162ZM271.77 24.218L266.982 24.3852L267.07 26.8946L271.857 26.7274L271.77 24.218ZM267.934 24.7733L261.894 18.4419L260.077 20.1751L266.117 26.5065L267.934 24.7733ZM261.867 18.4142L253.593 10.2614L251.831 12.05L260.105 20.2028L261.867 18.4142ZM272.653 10.4594L272.609 9.20467L271.354 9.24849L271.398 10.5032L272.653 10.4594ZM284.276 10.0535L285.531 10.0096L285.487 8.75496L284.232 8.79878L284.276 10.0535ZM284.382 13.0948L284.426 14.3495L285.681 14.3057L285.637 13.051L284.382 13.0948ZM272.759 13.5007L271.504 13.5445L271.548 14.7992L272.803 14.7554L272.759 13.5007ZM276.364 6.22948L276.32 4.9748L275.066 5.01862L275.11 6.2733L276.364 6.22948ZM280.279 6.09278L281.533 6.04897L281.49 4.79429L280.235 4.8381L280.279 6.09278ZM280.944 25.1539L280.988 26.4085L282.243 26.3647L282.199 25.11L280.944 25.1539ZM277.03 25.2906L275.775 25.3344L275.819 26.589L277.074 26.5452L277.03 25.2906ZM272.697 11.714L284.32 11.3081L284.232 8.79878L272.609 9.20467L272.697 11.714ZM283.022 10.0973L283.128 13.1386L285.637 13.051L285.531 10.0096L283.022 10.0973ZM284.339 11.8401L272.715 12.246L272.803 14.7554L284.426 14.3495L284.339 11.8401ZM274.014 13.4569L273.908 10.4155L271.398 10.5032L271.504 13.5445L274.014 13.4569ZM276.408 7.48416L280.323 7.34746L280.235 4.8381L276.32 4.9748L276.408 7.48416ZM279.024 6.1366L279.69 25.1977L282.199 25.11L281.533 6.04897L279.024 6.1366ZM280.901 23.8992L276.986 24.0359L277.074 26.5452L280.988 26.4085L280.901 23.8992ZM278.285 25.2467L277.619 6.18567L275.11 6.2733L275.775 25.3344L278.285 25.2467Z" fill="#101010" mask="url(#path-1-outside-1_21_618)"/>
<path d="M11.3736 17.1259C11.8124 16.2618 12.1498 15.3242 12.612 13.8921C13.173 15.2885 13.575 16.2003 14.073 17.0316C15.5915 19.5665 17.7948 21.6212 20.4295 22.9591C21.2935 23.398 22.2311 23.7353 23.6632 24.1975C22.2669 24.7585 21.3551 25.1605 20.5237 25.6585C17.9888 27.177 15.9342 29.3803 14.5962 32.015C14.1574 32.879 13.82 33.8166 13.3578 35.2487C12.7968 33.8524 12.3949 32.9406 11.8969 32.1092C10.3784 29.5743 8.17502 27.5197 5.5404 26.1817C4.67634 25.7429 3.73872 25.4055 2.30664 24.9433C3.70299 24.3823 4.6148 23.9804 5.44614 23.4824C7.98101 21.9639 10.0357 19.7605 11.3736 17.1259Z" stroke="#101010" stroke-width="1.25544"/>
</svg>
