<svg width="254" height="38" viewBox="0 0 254 38" fill="none" xmlns="http://www.w3.org/2000/svg">
<path d="M40.8564 12.9147L61.393 12.1975L61.5097 15.54L40.9731 16.2572L40.8564 12.9147ZM49.2393 15.5464L53.2442 15.4065L53.8226 31.9683L49.8176 32.1082L49.2393 15.5464ZM75.4993 26.2368L79.2934 26.1043C79.1686 27.1337 78.7689 28.0622 78.0943 28.8897C77.4398 29.7165 76.5284 30.3815 75.3601 30.8846C74.1918 31.3876 72.7545 31.669 71.0481 31.7286C69.141 31.7952 67.4442 31.5529 65.9577 31.0019C64.4705 30.4307 63.295 29.5773 62.4313 28.4417C61.5676 27.3061 61.107 25.9153 61.0495 24.2691C60.992 22.623 61.3444 21.2037 62.1068 20.0113C62.8684 18.7989 63.951 17.8566 65.3546 17.1845C66.7782 16.5117 68.4537 16.1417 70.3809 16.0744C72.3482 16.0057 73.9952 16.2597 75.3218 16.8365C76.6483 17.4132 77.6449 18.3231 78.3114 19.5661C78.9972 20.7883 79.324 22.3748 79.2916 24.3255L65.0184 24.824C65.1454 25.5833 65.4506 26.2661 65.9341 26.8723C66.4376 27.4778 67.0972 27.9472 67.9128 28.2805C68.7485 28.6131 69.7284 28.7597 70.8526 28.7205C72.0973 28.677 73.1237 28.4301 73.9321 27.9798C74.7598 27.5087 75.2822 26.9277 75.4993 26.2368ZM70.3043 19.0618C68.8589 19.1123 67.6957 19.4745 66.8148 20.1484C65.9332 20.8023 65.378 21.5955 65.1493 22.5281L75.3272 22.1726C75.1918 21.1724 74.6823 20.3963 73.7987 19.8442C72.9346 19.2714 71.7697 19.0106 70.3043 19.0618ZM98.1943 15.4348L90.7166 24.0472L85.3471 30.8674L80.5592 31.0346L88.3534 21.9891L93.4365 15.6009L98.1943 15.4348ZM80.0366 16.0688L84.8244 15.9016L90.7001 21.8469L99.1385 30.3858L94.3506 30.553L88.3108 24.2216L80.0366 16.0688ZM99.9777 15.3725L111.601 14.9666L111.707 18.0079L100.084 18.4138L99.9777 15.3725ZM103.689 11.1426L107.604 11.0059L108.269 30.067L104.355 30.2037L103.689 11.1426ZM120.298 14.6629L131.921 14.257L132.027 17.2983L120.404 17.7042L120.298 14.6629ZM124.009 10.433L127.924 10.2963L128.589 29.3574L124.675 29.4941L124.009 10.433ZM143.56 29.1964C141.673 29.2623 139.997 29.0193 138.53 28.4676C137.084 27.9151 135.939 27.0807 135.096 25.9645C134.253 24.8282 133.801 23.4169 133.742 21.7306C133.684 20.0443 134.035 18.605 134.798 17.4126C135.559 16.2002 136.642 15.2679 138.046 14.6159C139.471 13.9632 141.127 13.6039 143.014 13.538C144.901 13.4721 146.557 13.7157 147.984 14.2689C149.43 14.8214 150.575 15.6758 151.42 16.8322C152.263 17.9685 152.714 19.3798 152.773 21.0661C152.832 22.7523 152.481 24.1917 151.718 25.3841C150.955 26.5564 149.872 27.4685 148.467 28.1206C147.083 28.7719 145.447 29.1305 143.56 29.1964ZM143.455 26.1852C144.499 26.1487 145.426 25.9354 146.237 25.5453C147.067 25.1345 147.71 24.5693 148.167 23.8499C148.624 23.1104 148.834 22.2287 148.799 21.2049C148.763 20.181 148.491 19.3162 147.984 18.6103C147.477 17.8844 146.805 17.3451 145.968 16.9924C145.132 16.6397 144.182 16.482 143.118 16.5191C142.074 16.5556 141.137 16.7792 140.307 17.1901C139.477 17.601 138.824 18.1765 138.347 18.9167C137.891 19.6562 137.681 20.5479 137.717 21.5918C137.753 22.6157 138.024 23.4805 138.531 24.1864C139.038 24.8722 139.719 25.391 140.576 25.743C141.431 26.0749 142.391 26.2223 143.455 26.1852ZM170.598 27.8904L161.306 8.70851L165.732 8.55394L173.724 25.8819L172.338 25.9303L179.072 8.0881L183.438 7.93563L175.597 27.7159L170.598 27.8904ZM193.404 27.4558C191.517 27.5217 189.841 27.2787 188.374 26.727C186.928 26.1745 185.783 25.3402 184.94 24.2239C184.097 23.0876 183.645 21.6763 183.586 19.99C183.528 18.3038 183.879 16.8644 184.642 15.672C185.403 14.4596 186.486 13.5273 187.891 12.8753C189.315 12.2226 190.971 11.8633 192.858 11.7974C194.745 11.7315 196.401 11.9751 197.828 12.5283C199.274 13.0808 200.419 13.9352 201.264 15.0916C202.107 16.2279 202.559 17.6392 202.617 19.3255C202.676 21.0118 202.325 22.4511 201.562 23.6435C200.799 24.8158 199.716 25.7279 198.311 26.38C196.927 27.0313 195.291 27.3899 193.404 27.4558ZM193.299 24.4446C194.343 24.4081 195.27 24.1948 196.081 23.8047C196.911 23.3939 197.554 22.8287 198.011 22.1093C198.468 21.3698 198.678 20.4881 198.643 19.4643C198.607 18.4405 198.335 17.5756 197.828 16.8697C197.321 16.1438 196.649 15.6045 195.812 15.2518C194.976 14.8991 194.026 14.7414 192.962 14.7785C191.918 14.815 190.981 15.0386 190.151 15.4495C189.321 15.8604 188.668 16.4359 188.191 17.1761C187.735 17.9156 187.525 18.8073 187.561 19.8512C187.597 20.8751 187.868 21.7399 188.375 22.4458C188.882 23.1316 189.563 23.6505 190.42 24.0024C191.275 24.3343 192.235 24.4817 193.299 24.4446ZM209.506 4.97519L209.626 8.40799L205.079 8.56677L204.959 5.13397L209.506 4.97519ZM205.489 11.6879L209.404 11.5512L209.926 26.517L206.012 26.6537L205.489 11.6879ZM231.389 19.8584C231.334 21.1667 230.951 22.3056 230.242 23.2751C229.552 24.2439 228.573 25.0016 227.306 25.5483C226.038 26.075 224.521 26.3692 222.754 26.4309C220.907 26.4954 219.241 26.2621 217.755 25.7311C216.289 25.1793 215.114 24.346 214.231 23.2312C213.367 22.0956 212.906 20.6746 212.846 18.9683C212.786 17.2619 213.148 15.8122 213.93 14.6191C214.733 13.4253 215.846 12.5021 217.27 11.8494C218.715 11.1959 220.361 10.837 222.207 10.7725C223.974 10.7108 225.498 10.9088 226.781 11.3665C228.062 11.8041 229.08 12.4721 229.835 13.3703C230.61 14.2678 231.081 15.3668 231.247 16.6675L227.664 16.7926C227.287 15.8008 226.628 15.04 225.685 14.5101C224.741 13.9803 223.617 13.7381 222.313 13.7837C221.269 13.8202 220.321 14.0341 219.471 14.4256C218.64 14.8164 217.977 15.3823 217.48 16.1232C217.003 16.8433 216.783 17.7454 216.821 18.8295C216.858 19.8934 217.14 20.778 217.667 21.4832C218.194 22.1683 218.895 22.6764 219.771 23.0076C220.646 23.3188 221.605 23.4561 222.649 23.4196C224.054 23.3706 225.189 23.0496 226.052 22.4566C226.936 21.863 227.52 21.0386 227.805 19.9835L231.389 19.8584ZM247.939 20.215L251.733 20.0825C251.608 21.112 251.209 22.0404 250.534 22.868C249.88 23.6948 248.968 24.3597 247.8 24.8628C246.632 25.3659 245.194 25.6472 243.488 25.7068C241.581 25.7734 239.884 25.5312 238.398 24.9801C236.91 24.409 235.735 23.5556 234.871 22.42C234.007 21.2844 233.547 19.8935 233.489 18.2474C233.432 16.6013 233.784 15.182 234.547 13.9896C235.308 12.7772 236.391 11.8349 237.794 11.1628C239.218 10.49 240.894 10.1199 242.821 10.0527C244.788 9.98395 246.435 10.238 247.762 10.8147C249.088 11.3915 250.085 12.3014 250.751 13.5443C251.437 14.7665 251.764 16.353 251.731 18.3038L237.458 18.8022C237.585 19.5616 237.89 20.2443 238.374 20.8505C238.877 21.456 239.537 21.9254 240.353 22.2587C241.188 22.5913 242.168 22.738 243.292 22.6988C244.537 22.6553 245.564 22.4084 246.372 21.9581C247.2 21.487 247.722 20.906 247.939 20.215ZM242.744 13.0401C241.299 13.0905 240.136 13.4528 239.255 14.1267C238.373 14.7806 237.818 15.5738 237.589 16.5063L247.767 16.1509C247.632 15.1507 247.122 14.3745 246.239 13.8225C245.374 13.2497 244.21 12.9889 242.744 13.0401Z" fill="#101010"/>
<path d="M12.5468 10.9068C13.4983 13.3211 13.9741 14.5283 14.6115 15.5922C16.0692 18.0257 18.1844 19.9982 20.7137 21.2826C21.8195 21.8442 23.0569 22.2346 25.5317 23.0155C23.1174 23.967 21.9103 24.4428 20.8463 25.0802C18.4128 26.5379 16.4404 28.6531 15.1559 31.1824C14.5943 32.2882 14.2039 33.5256 13.4231 36.0004C12.4715 33.5861 11.9957 32.379 11.3584 31.315C9.90061 28.8815 7.7854 26.909 5.25617 25.6246C4.15032 25.063 2.91293 24.6726 0.438143 23.8918C2.85243 22.9402 4.05958 22.4644 5.12355 21.8271C7.55703 20.3693 9.52949 18.2541 10.814 15.7248C11.3756 14.619 11.766 13.3816 12.5468 10.9068Z" fill="#101010"/>
</svg>
